<mxfile host="app.diagrams.net" agent="Mozilla/5.0 (Windows NT 10.0; Win64; x64) AppleWebKit/537.36 (KHTML, like Gecko) Chrome/131.0.0.0 Safari/537.36" version="26.0.5" pages="10">
  <diagram name="YDB_v1" id="C7OSRYrNuouZH7E-v7BA">
    <mxGraphModel dx="1050" dy="661" grid="1" gridSize="10" guides="1" tooltips="1" connect="1" arrows="1" fold="1" page="1" pageScale="1" pageWidth="827" pageHeight="1169" math="0" shadow="0">
      <root>
        <mxCell id="0" />
        <mxCell id="1" parent="0" />
        <mxCell id="IQb5sZqRNneQYxTxxwIh-19" value="" style="rounded=1;whiteSpace=wrap;html=1;fillColor=#66B2FF;" parent="1" vertex="1">
          <mxGeometry x="300" y="110" width="150" height="220" as="geometry" />
        </mxCell>
        <mxCell id="IQb5sZqRNneQYxTxxwIh-16" value="" style="rounded=1;whiteSpace=wrap;html=1;fillColor=#66B2FF;" parent="1" vertex="1">
          <mxGeometry x="40" y="110" width="150" height="220" as="geometry" />
        </mxCell>
        <mxCell id="IQb5sZqRNneQYxTxxwIh-15" value="" style="rounded=1;whiteSpace=wrap;html=1;" parent="1" vertex="1">
          <mxGeometry x="312.5" y="150" width="125" height="170" as="geometry" />
        </mxCell>
        <mxCell id="IQb5sZqRNneQYxTxxwIh-14" value="" style="rounded=1;whiteSpace=wrap;html=1;rotation=0;" parent="1" vertex="1">
          <mxGeometry x="52.5" y="150" width="125" height="170" as="geometry" />
        </mxCell>
        <mxCell id="IQb5sZqRNneQYxTxxwIh-2" value="YDB" style="shape=datastore;whiteSpace=wrap;html=1;" parent="1" vertex="1">
          <mxGeometry x="80" y="195" width="70" height="70" as="geometry" />
        </mxCell>
        <mxCell id="IQb5sZqRNneQYxTxxwIh-3" value="PostgreSQL" style="shape=datastore;whiteSpace=wrap;html=1;" parent="1" vertex="1">
          <mxGeometry x="340" y="195" width="70" height="70" as="geometry" />
        </mxCell>
        <mxCell id="IQb5sZqRNneQYxTxxwIh-4" value="" style="endArrow=classic;html=1;rounded=0;entryX=0;entryY=0.5;entryDx=0;entryDy=0;exitX=1;exitY=0.5;exitDx=0;exitDy=0;" parent="1" source="IQb5sZqRNneQYxTxxwIh-2" target="IQb5sZqRNneQYxTxxwIh-3" edge="1">
          <mxGeometry relative="1" as="geometry">
            <mxPoint x="140" y="-10" as="sourcePoint" />
            <mxPoint x="300" y="-10" as="targetPoint" />
          </mxGeometry>
        </mxCell>
        <mxCell id="IQb5sZqRNneQYxTxxwIh-5" value="Label" style="edgeLabel;resizable=0;html=1;;align=center;verticalAlign=middle;" parent="IQb5sZqRNneQYxTxxwIh-4" connectable="0" vertex="1">
          <mxGeometry relative="1" as="geometry" />
        </mxCell>
        <mxCell id="IQb5sZqRNneQYxTxxwIh-18" value="Во внутреннее&lt;div&gt;хранилище&lt;/div&gt;" style="edgeLabel;html=1;align=center;verticalAlign=middle;resizable=0;points=[];" parent="IQb5sZqRNneQYxTxxwIh-4" vertex="1" connectable="0">
          <mxGeometry x="0.0485" y="-2" relative="1" as="geometry">
            <mxPoint as="offset" />
          </mxGeometry>
        </mxCell>
        <mxCell id="IQb5sZqRNneQYxTxxwIh-17" value="&lt;font color=&quot;#ffffff&quot; style=&quot;font-size: 14px; font-weight: normal;&quot;&gt;Источники данных&lt;/font&gt;" style="text;strokeColor=none;fillColor=none;html=1;fontSize=24;fontStyle=1;verticalAlign=middle;align=center;" parent="1" vertex="1">
          <mxGeometry x="43.75" y="115" width="130" height="30" as="geometry" />
        </mxCell>
        <mxCell id="IQb5sZqRNneQYxTxxwIh-23" value="" style="rounded=1;whiteSpace=wrap;html=1;fillColor=#66B2FF;" parent="1" vertex="1">
          <mxGeometry x="40" y="660" width="150" height="220" as="geometry" />
        </mxCell>
        <mxCell id="IQb5sZqRNneQYxTxxwIh-25" value="" style="rounded=1;whiteSpace=wrap;html=1;rotation=0;" parent="1" vertex="1">
          <mxGeometry x="51.25" y="700" width="128.75" height="170" as="geometry" />
        </mxCell>
        <mxCell id="IQb5sZqRNneQYxTxxwIh-26" value="YDB" style="shape=datastore;whiteSpace=wrap;html=1;" parent="1" vertex="1">
          <mxGeometry x="77.75" y="745" width="70" height="70" as="geometry" />
        </mxCell>
        <mxCell id="IQb5sZqRNneQYxTxxwIh-31" value="&lt;font color=&quot;#ffffff&quot; style=&quot;font-size: 14px; font-weight: normal;&quot;&gt;Источники данных&lt;/font&gt;" style="text;strokeColor=none;fillColor=none;html=1;fontSize=24;fontStyle=1;verticalAlign=middle;align=center;" parent="1" vertex="1">
          <mxGeometry x="47.5" y="665" width="130" height="30" as="geometry" />
        </mxCell>
        <mxCell id="IQb5sZqRNneQYxTxxwIh-34" value="" style="rounded=1;whiteSpace=wrap;html=1;fillColor=#66B2FF;rotation=0;" parent="1" vertex="1">
          <mxGeometry x="563.75" y="110" width="150" height="220" as="geometry" />
        </mxCell>
        <mxCell id="IQb5sZqRNneQYxTxxwIh-35" value="" style="rounded=1;whiteSpace=wrap;html=1;rotation=0;" parent="1" vertex="1">
          <mxGeometry x="576.25" y="150" width="125" height="170" as="geometry" />
        </mxCell>
        <mxCell id="IQb5sZqRNneQYxTxxwIh-20" value="&lt;font color=&quot;#ffffff&quot; style=&quot;font-size: 14px;&quot;&gt;Визуализация данных&lt;/font&gt;" style="text;html=1;align=center;verticalAlign=middle;whiteSpace=wrap;rounded=0;" parent="1" vertex="1">
          <mxGeometry x="581.5" y="110" width="122.5" height="40" as="geometry" />
        </mxCell>
        <mxCell id="IQb5sZqRNneQYxTxxwIh-36" value="&lt;font color=&quot;#ffffff&quot; style=&quot;font-size: 14px;&quot;&gt;Датасеты&lt;/font&gt;" style="text;html=1;align=center;verticalAlign=middle;whiteSpace=wrap;rounded=0;" parent="1" vertex="1">
          <mxGeometry x="345" y="115" width="60" height="30" as="geometry" />
        </mxCell>
        <mxCell id="IQb5sZqRNneQYxTxxwIh-21" value="Polymatica Dashboards TN" style="rounded=1;whiteSpace=wrap;html=1;" parent="1" vertex="1">
          <mxGeometry x="593.75" y="195" width="90" height="70" as="geometry" />
        </mxCell>
        <mxCell id="IQb5sZqRNneQYxTxxwIh-38" style="edgeStyle=orthogonalEdgeStyle;rounded=0;orthogonalLoop=1;jettySize=auto;html=1;exitX=1;exitY=0.5;exitDx=0;exitDy=0;entryX=0;entryY=0.5;entryDx=0;entryDy=0;" parent="1" source="IQb5sZqRNneQYxTxxwIh-3" target="IQb5sZqRNneQYxTxxwIh-21" edge="1">
          <mxGeometry relative="1" as="geometry" />
        </mxCell>
        <mxCell id="IQb5sZqRNneQYxTxxwIh-39" value="" style="rounded=1;whiteSpace=wrap;html=1;fillColor=#66B2FF;rotation=0;" parent="1" vertex="1">
          <mxGeometry x="300" y="660" width="150" height="220" as="geometry" />
        </mxCell>
        <mxCell id="IQb5sZqRNneQYxTxxwIh-40" value="" style="rounded=1;whiteSpace=wrap;html=1;rotation=0;" parent="1" vertex="1">
          <mxGeometry x="312.5" y="700" width="125" height="170" as="geometry" />
        </mxCell>
        <mxCell id="IQb5sZqRNneQYxTxxwIh-41" value="&lt;font color=&quot;#ffffff&quot; style=&quot;font-size: 14px;&quot;&gt;Визуализация данных&lt;/font&gt;" style="text;html=1;align=center;verticalAlign=middle;whiteSpace=wrap;rounded=0;" parent="1" vertex="1">
          <mxGeometry x="317.75" y="660" width="122.5" height="40" as="geometry" />
        </mxCell>
        <mxCell id="IQb5sZqRNneQYxTxxwIh-42" value="Polymatica Dashboards TN" style="rounded=1;whiteSpace=wrap;html=1;" parent="1" vertex="1">
          <mxGeometry x="330" y="745" width="90" height="70" as="geometry" />
        </mxCell>
        <mxCell id="IQb5sZqRNneQYxTxxwIh-28" value="" style="endArrow=classic;html=1;rounded=0;exitX=1;exitY=0.5;exitDx=0;exitDy=0;" parent="1" source="IQb5sZqRNneQYxTxxwIh-26" edge="1">
          <mxGeometry relative="1" as="geometry">
            <mxPoint x="143.75" y="540" as="sourcePoint" />
            <mxPoint x="330" y="780" as="targetPoint" />
          </mxGeometry>
        </mxCell>
        <mxCell id="IQb5sZqRNneQYxTxxwIh-29" value="Label" style="edgeLabel;resizable=0;html=1;;align=center;verticalAlign=middle;" parent="IQb5sZqRNneQYxTxxwIh-28" connectable="0" vertex="1">
          <mxGeometry relative="1" as="geometry" />
        </mxCell>
        <mxCell id="IQb5sZqRNneQYxTxxwIh-30" value="Live-коннект" style="edgeLabel;html=1;align=center;verticalAlign=middle;resizable=0;points=[];" parent="IQb5sZqRNneQYxTxxwIh-28" vertex="1" connectable="0">
          <mxGeometry x="0.0485" y="-2" relative="1" as="geometry">
            <mxPoint x="-4" y="-2" as="offset" />
          </mxGeometry>
        </mxCell>
      </root>
    </mxGraphModel>
  </diagram>
  <diagram id="CycQRQJZT9dvxTCYRH_a" name="YDB_v2">
    <mxGraphModel dx="1050" dy="661" grid="1" gridSize="10" guides="1" tooltips="1" connect="1" arrows="1" fold="1" page="1" pageScale="1" pageWidth="827" pageHeight="1169" math="0" shadow="0">
      <root>
        <mxCell id="0" />
        <mxCell id="1" parent="0" />
        <mxCell id="39LMBJjZmOOkfZlVVmtk-11" value="" style="rounded=1;whiteSpace=wrap;html=1;fillColor=#66B2FF;rotation=0;" parent="1" vertex="1">
          <mxGeometry x="563.75" y="110" width="150" height="220" as="geometry" />
        </mxCell>
        <mxCell id="39LMBJjZmOOkfZlVVmtk-12" value="" style="rounded=1;whiteSpace=wrap;html=1;rotation=0;" parent="1" vertex="1">
          <mxGeometry x="576.25" y="150" width="125" height="170" as="geometry" />
        </mxCell>
        <mxCell id="39LMBJjZmOOkfZlVVmtk-1" value="" style="rounded=1;whiteSpace=wrap;html=1;fillColor=#66B2FF;" parent="1" vertex="1">
          <mxGeometry x="300" y="110" width="150" height="220" as="geometry" />
        </mxCell>
        <mxCell id="39LMBJjZmOOkfZlVVmtk-2" value="" style="rounded=1;whiteSpace=wrap;html=1;fillColor=#66B2FF;" parent="1" vertex="1">
          <mxGeometry x="40" y="40" width="150" height="360" as="geometry" />
        </mxCell>
        <mxCell id="39LMBJjZmOOkfZlVVmtk-3" value="" style="rounded=1;whiteSpace=wrap;html=1;" parent="1" vertex="1">
          <mxGeometry x="312.5" y="150" width="125" height="170" as="geometry" />
        </mxCell>
        <mxCell id="39LMBJjZmOOkfZlVVmtk-4" value="" style="rounded=1;whiteSpace=wrap;html=1;rotation=0;" parent="1" vertex="1">
          <mxGeometry x="52.5" y="80" width="125" height="310" as="geometry" />
        </mxCell>
        <mxCell id="39LMBJjZmOOkfZlVVmtk-21" style="edgeStyle=orthogonalEdgeStyle;rounded=1;orthogonalLoop=1;jettySize=auto;html=1;exitX=1;exitY=0.5;exitDx=0;exitDy=0;entryX=0;entryY=0.5;entryDx=0;entryDy=0;curved=0;" parent="1" source="39LMBJjZmOOkfZlVVmtk-5" target="39LMBJjZmOOkfZlVVmtk-6" edge="1">
          <mxGeometry relative="1" as="geometry" />
        </mxCell>
        <mxCell id="39LMBJjZmOOkfZlVVmtk-5" value="YDB&lt;div&gt;OLTP mode&lt;/div&gt;" style="shape=datastore;whiteSpace=wrap;html=1;" parent="1" vertex="1">
          <mxGeometry x="80" y="125" width="70" height="70" as="geometry" />
        </mxCell>
        <mxCell id="Y8DmGPraMoPVkwErQ-rJ-1" style="edgeStyle=orthogonalEdgeStyle;rounded=0;orthogonalLoop=1;jettySize=auto;html=1;exitX=1;exitY=0.5;exitDx=0;exitDy=0;entryX=0;entryY=0.5;entryDx=0;entryDy=0;" parent="1" source="39LMBJjZmOOkfZlVVmtk-6" target="39LMBJjZmOOkfZlVVmtk-15" edge="1">
          <mxGeometry relative="1" as="geometry" />
        </mxCell>
        <mxCell id="39LMBJjZmOOkfZlVVmtk-6" value="PostgreSQL" style="shape=datastore;whiteSpace=wrap;html=1;" parent="1" vertex="1">
          <mxGeometry x="340" y="195" width="70" height="70" as="geometry" />
        </mxCell>
        <mxCell id="39LMBJjZmOOkfZlVVmtk-10" value="&lt;font color=&quot;#ffffff&quot; style=&quot;font-size: 14px; font-weight: normal;&quot;&gt;Источники данных&lt;/font&gt;" style="text;strokeColor=none;fillColor=none;html=1;fontSize=24;fontStyle=1;verticalAlign=middle;align=center;" parent="1" vertex="1">
          <mxGeometry x="43.75" y="45" width="130" height="30" as="geometry" />
        </mxCell>
        <mxCell id="39LMBJjZmOOkfZlVVmtk-13" value="&lt;font color=&quot;#ffffff&quot; style=&quot;font-size: 14px;&quot;&gt;Визуализация данных&lt;/font&gt;" style="text;html=1;align=center;verticalAlign=middle;whiteSpace=wrap;rounded=0;" parent="1" vertex="1">
          <mxGeometry x="581.5" y="110" width="122.5" height="40" as="geometry" />
        </mxCell>
        <mxCell id="39LMBJjZmOOkfZlVVmtk-14" value="&lt;font color=&quot;#ffffff&quot; style=&quot;font-size: 14px;&quot;&gt;Датасеты&lt;/font&gt;" style="text;html=1;align=center;verticalAlign=middle;whiteSpace=wrap;rounded=0;" parent="1" vertex="1">
          <mxGeometry x="345" y="115" width="60" height="30" as="geometry" />
        </mxCell>
        <mxCell id="39LMBJjZmOOkfZlVVmtk-20" style="edgeStyle=orthogonalEdgeStyle;rounded=1;orthogonalLoop=1;jettySize=auto;html=1;exitX=1;exitY=0.5;exitDx=0;exitDy=0;entryX=0;entryY=0.5;entryDx=0;entryDy=0;curved=0;strokeColor=default;align=center;verticalAlign=middle;fontFamily=Helvetica;fontSize=11;fontColor=default;labelBackgroundColor=default;endArrow=classic;" parent="1" source="39LMBJjZmOOkfZlVVmtk-18" target="39LMBJjZmOOkfZlVVmtk-6" edge="1">
          <mxGeometry relative="1" as="geometry" />
        </mxCell>
        <mxCell id="39LMBJjZmOOkfZlVVmtk-18" value="PostgreSQL" style="shape=datastore;whiteSpace=wrap;html=1;" parent="1" vertex="1">
          <mxGeometry x="80" y="262.5" width="70" height="70" as="geometry" />
        </mxCell>
        <mxCell id="39LMBJjZmOOkfZlVVmtk-15" value="Polymatica Dashboards TN" style="rounded=1;whiteSpace=wrap;html=1;" parent="1" vertex="1">
          <mxGeometry x="593.75" y="195" width="90" height="70" as="geometry" />
        </mxCell>
      </root>
    </mxGraphModel>
  </diagram>
  <diagram id="zAkqvuvl4o3wh7JrVeKg" name="PA-cluster">
    <mxGraphModel dx="2074" dy="1140" grid="1" gridSize="10" guides="1" tooltips="1" connect="1" arrows="1" fold="1" page="1" pageScale="1" pageWidth="827" pageHeight="1169" math="0" shadow="0">
      <root>
        <mxCell id="0" />
        <mxCell id="1" parent="0" />
        <mxCell id="I4ClpxqnDc8t4JSx1x---15" value="" style="rounded=1;whiteSpace=wrap;html=1;fillColor=#66B2FF;rotation=0;" parent="1" vertex="1">
          <mxGeometry x="563.75" y="520" width="150" height="220" as="geometry" />
        </mxCell>
        <mxCell id="I4ClpxqnDc8t4JSx1x---16" value="" style="rounded=1;whiteSpace=wrap;html=1;rotation=0;" parent="1" vertex="1">
          <mxGeometry x="576.25" y="560" width="125" height="170" as="geometry" />
        </mxCell>
        <mxCell id="I4ClpxqnDc8t4JSx1x---11" value="" style="rounded=1;whiteSpace=wrap;html=1;fillColor=#66B2FF;rotation=0;" parent="1" vertex="1">
          <mxGeometry x="563.75" y="280" width="150" height="220" as="geometry" />
        </mxCell>
        <mxCell id="I4ClpxqnDc8t4JSx1x---12" value="" style="rounded=1;whiteSpace=wrap;html=1;rotation=0;" parent="1" vertex="1">
          <mxGeometry x="576.25" y="320" width="125" height="170" as="geometry" />
        </mxCell>
        <mxCell id="v2xoQwJN6eoDoinNDaAP-2" value="" style="rounded=1;whiteSpace=wrap;html=1;fillColor=#66B2FF;" parent="1" vertex="1">
          <mxGeometry x="20" y="140" width="150" height="530" as="geometry" />
        </mxCell>
        <mxCell id="v2xoQwJN6eoDoinNDaAP-4" value="" style="rounded=1;whiteSpace=wrap;html=1;rotation=0;" parent="1" vertex="1">
          <mxGeometry x="32.5" y="180" width="125" height="480" as="geometry" />
        </mxCell>
        <mxCell id="UsWtGjG9ktZwR3wqx3gP-5" value="Other" style="strokeWidth=2;html=1;shape=mxgraph.flowchart.database;whiteSpace=wrap;spacingTop=5;" parent="1" vertex="1">
          <mxGeometry x="60" y="535" width="70" height="30" as="geometry" />
        </mxCell>
        <mxCell id="I4ClpxqnDc8t4JSx1x---19" style="edgeStyle=orthogonalEdgeStyle;rounded=1;orthogonalLoop=1;jettySize=auto;html=1;exitX=1;exitY=0.5;exitDx=0;exitDy=0;exitPerimeter=0;entryX=0;entryY=0.5;entryDx=0;entryDy=0;curved=0;" parent="1" source="UsWtGjG9ktZwR3wqx3gP-4" target="gSGg3YU30_O8Tkvs_O3P-5" edge="1">
          <mxGeometry relative="1" as="geometry" />
        </mxCell>
        <mxCell id="UsWtGjG9ktZwR3wqx3gP-4" value="JDBC" style="strokeWidth=2;html=1;shape=mxgraph.flowchart.database;whiteSpace=wrap;spacingTop=5;" parent="1" vertex="1">
          <mxGeometry x="60" y="515" width="70" height="30" as="geometry" />
        </mxCell>
        <mxCell id="v2xoQwJN6eoDoinNDaAP-1" value="" style="rounded=1;whiteSpace=wrap;html=1;fillColor=#66B2FF;" parent="1" vertex="1">
          <mxGeometry x="310" y="280" width="150" height="220" as="geometry" />
        </mxCell>
        <mxCell id="v2xoQwJN6eoDoinNDaAP-3" value="" style="rounded=1;whiteSpace=wrap;html=1;" parent="1" vertex="1">
          <mxGeometry x="322.5" y="320" width="125" height="170" as="geometry" />
        </mxCell>
        <mxCell id="v2xoQwJN6eoDoinNDaAP-5" style="edgeStyle=orthogonalEdgeStyle;rounded=1;orthogonalLoop=1;jettySize=auto;html=1;exitX=1;exitY=0.5;exitDx=0;exitDy=0;entryX=0;entryY=0.5;entryDx=0;entryDy=0;curved=0;" parent="1" source="v2xoQwJN6eoDoinNDaAP-6" target="gSGg3YU30_O8Tkvs_O3P-5" edge="1">
          <mxGeometry relative="1" as="geometry">
            <mxPoint x="340" y="230" as="targetPoint" />
          </mxGeometry>
        </mxCell>
        <mxCell id="v2xoQwJN6eoDoinNDaAP-6" value="Database" style="shape=datastore;whiteSpace=wrap;html=1;" parent="1" vertex="1">
          <mxGeometry x="60" y="225" width="70" height="70" as="geometry" />
        </mxCell>
        <mxCell id="v2xoQwJN6eoDoinNDaAP-8" value="&lt;font color=&quot;#ffffff&quot; style=&quot;font-size: 14px; font-weight: normal;&quot;&gt;Источники данных&lt;/font&gt;" style="text;strokeColor=none;fillColor=none;html=1;fontSize=24;fontStyle=1;verticalAlign=middle;align=center;" parent="1" vertex="1">
          <mxGeometry x="23.75" y="145" width="130" height="30" as="geometry" />
        </mxCell>
        <mxCell id="v2xoQwJN6eoDoinNDaAP-9" value="" style="rounded=1;whiteSpace=wrap;html=1;fillColor=#66B2FF;rotation=0;" parent="1" vertex="1">
          <mxGeometry x="563.75" y="45" width="150" height="220" as="geometry" />
        </mxCell>
        <mxCell id="v2xoQwJN6eoDoinNDaAP-10" value="" style="rounded=1;whiteSpace=wrap;html=1;rotation=0;" parent="1" vertex="1">
          <mxGeometry x="576.25" y="85" width="125" height="170" as="geometry" />
        </mxCell>
        <mxCell id="v2xoQwJN6eoDoinNDaAP-12" value="&lt;font color=&quot;#ffffff&quot;&gt;&lt;span style=&quot;font-size: 14px;&quot;&gt;Server #1&lt;/span&gt;&lt;/font&gt;" style="text;html=1;align=center;verticalAlign=middle;whiteSpace=wrap;rounded=0;" parent="1" vertex="1">
          <mxGeometry x="340" y="285" width="90" height="30" as="geometry" />
        </mxCell>
        <mxCell id="v2xoQwJN6eoDoinNDaAP-14" style="edgeStyle=orthogonalEdgeStyle;rounded=1;orthogonalLoop=1;jettySize=auto;html=1;exitX=1;exitY=0.5;exitDx=0;exitDy=0;entryX=0;entryY=0.5;entryDx=0;entryDy=0;curved=0;" parent="1" source="gSGg3YU30_O8Tkvs_O3P-5" target="I4ClpxqnDc8t4JSx1x---9" edge="1">
          <mxGeometry relative="1" as="geometry">
            <mxPoint x="410" y="230" as="sourcePoint" />
            <mxPoint x="593.75" y="165" as="targetPoint" />
          </mxGeometry>
        </mxCell>
        <mxCell id="v2xoQwJN6eoDoinNDaAP-15" style="edgeStyle=orthogonalEdgeStyle;rounded=1;orthogonalLoop=1;jettySize=auto;html=1;exitX=1;exitY=0.5;exitDx=0;exitDy=0;entryX=0;entryY=0.5;entryDx=0;entryDy=0;curved=0;strokeColor=default;align=center;verticalAlign=middle;fontFamily=Helvetica;fontSize=11;fontColor=default;labelBackgroundColor=default;endArrow=classic;exitPerimeter=0;" parent="1" source="v2xoQwJN6eoDoinNDaAP-17" target="gSGg3YU30_O8Tkvs_O3P-5" edge="1">
          <mxGeometry relative="1" as="geometry">
            <mxPoint x="150" y="297.5" as="sourcePoint" />
            <mxPoint x="340" y="230" as="targetPoint" />
          </mxGeometry>
        </mxCell>
        <mxCell id="v2xoQwJN6eoDoinNDaAP-17" value="File" style="whiteSpace=wrap;html=1;shape=mxgraph.basic.document" parent="1" vertex="1">
          <mxGeometry x="60" y="365" width="70" height="70" as="geometry" />
        </mxCell>
        <mxCell id="UsWtGjG9ktZwR3wqx3gP-1" value="ODBC" style="strokeWidth=2;html=1;shape=mxgraph.flowchart.database;whiteSpace=wrap;spacingLeft=0;spacingTop=5;" parent="1" vertex="1">
          <mxGeometry x="60" y="495" width="70" height="30" as="geometry" />
        </mxCell>
        <mxCell id="gSGg3YU30_O8Tkvs_O3P-1" value="&lt;font color=&quot;#ffffff&quot;&gt;&lt;span style=&quot;font-size: 14px;&quot;&gt;Server #2&lt;/span&gt;&lt;/font&gt;" style="text;html=1;align=center;verticalAlign=middle;whiteSpace=wrap;rounded=0;" parent="1" vertex="1">
          <mxGeometry x="593.75" y="50" width="90" height="30" as="geometry" />
        </mxCell>
        <mxCell id="I4ClpxqnDc8t4JSx1x---21" style="edgeStyle=orthogonalEdgeStyle;rounded=1;orthogonalLoop=1;jettySize=auto;html=1;entryX=0;entryY=0.5;entryDx=0;entryDy=0;curved=0;" parent="1" source="gSGg3YU30_O8Tkvs_O3P-5" target="I4ClpxqnDc8t4JSx1x---14" edge="1">
          <mxGeometry relative="1" as="geometry" />
        </mxCell>
        <mxCell id="I4ClpxqnDc8t4JSx1x---22" style="edgeStyle=orthogonalEdgeStyle;rounded=1;orthogonalLoop=1;jettySize=auto;html=1;entryX=0;entryY=0.5;entryDx=0;entryDy=0;curved=0;" parent="1" source="gSGg3YU30_O8Tkvs_O3P-5" target="I4ClpxqnDc8t4JSx1x---18" edge="1">
          <mxGeometry relative="1" as="geometry" />
        </mxCell>
        <mxCell id="gSGg3YU30_O8Tkvs_O3P-5" value="PA Master" style="shape=image;html=1;verticalAlign=top;verticalLabelPosition=bottom;labelBackgroundColor=#ffffff;imageAspect=0;aspect=fixed;image=https://cdn1.iconfinder.com/data/icons/seo-and-web-development-6/32/development_globe_sphere-128.png" parent="1" vertex="1">
          <mxGeometry x="350" y="365" width="70" height="70" as="geometry" />
        </mxCell>
        <mxCell id="I4ClpxqnDc8t4JSx1x---9" value="PA Slave" style="shape=image;html=1;verticalAlign=top;verticalLabelPosition=bottom;labelBackgroundColor=#ffffff;imageAspect=0;aspect=fixed;image=https://cdn1.iconfinder.com/data/icons/seo-and-web-development-6/32/development_globe_sphere-128.png" parent="1" vertex="1">
          <mxGeometry x="603.75" y="130" width="70" height="70" as="geometry" />
        </mxCell>
        <mxCell id="I4ClpxqnDc8t4JSx1x---13" value="&lt;font color=&quot;#ffffff&quot;&gt;&lt;span style=&quot;font-size: 14px;&quot;&gt;Server #3&lt;/span&gt;&lt;/font&gt;" style="text;html=1;align=center;verticalAlign=middle;whiteSpace=wrap;rounded=0;" parent="1" vertex="1">
          <mxGeometry x="593.75" y="285" width="90" height="30" as="geometry" />
        </mxCell>
        <mxCell id="I4ClpxqnDc8t4JSx1x---14" value="PA Slave" style="shape=image;html=1;verticalAlign=top;verticalLabelPosition=bottom;labelBackgroundColor=#ffffff;imageAspect=0;aspect=fixed;image=https://cdn1.iconfinder.com/data/icons/seo-and-web-development-6/32/development_globe_sphere-128.png" parent="1" vertex="1">
          <mxGeometry x="603.75" y="365" width="70" height="70" as="geometry" />
        </mxCell>
        <mxCell id="I4ClpxqnDc8t4JSx1x---17" value="&lt;font color=&quot;#ffffff&quot;&gt;&lt;span style=&quot;font-size: 14px;&quot;&gt;Server #4&lt;/span&gt;&lt;/font&gt;" style="text;html=1;align=center;verticalAlign=middle;whiteSpace=wrap;rounded=0;" parent="1" vertex="1">
          <mxGeometry x="593.75" y="525" width="90" height="30" as="geometry" />
        </mxCell>
        <mxCell id="I4ClpxqnDc8t4JSx1x---18" value="PA Slave" style="shape=image;html=1;verticalAlign=top;verticalLabelPosition=bottom;labelBackgroundColor=#ffffff;imageAspect=0;aspect=fixed;image=https://cdn1.iconfinder.com/data/icons/seo-and-web-development-6/32/development_globe_sphere-128.png" parent="1" vertex="1">
          <mxGeometry x="603.75" y="605" width="70" height="70" as="geometry" />
        </mxCell>
      </root>
    </mxGraphModel>
  </diagram>
  <diagram name="PA-cluster_v2" id="kgbY9mmlYbhSaQBnAIGx">
    <mxGraphModel dx="1235" dy="778" grid="1" gridSize="10" guides="1" tooltips="1" connect="1" arrows="1" fold="1" page="1" pageScale="1" pageWidth="1169" pageHeight="827" math="0" shadow="0">
      <root>
        <mxCell id="BC4szQIssQrzn8wiqJx_-0" />
        <mxCell id="BC4szQIssQrzn8wiqJx_-1" parent="BC4szQIssQrzn8wiqJx_-0" />
        <mxCell id="HVfQ9R8C9olwwlzY_nE2-5" value="&lt;div&gt;&lt;br&gt;&lt;/div&gt;Slave-узлы" style="rounded=0;whiteSpace=wrap;html=1;dashed=1;verticalAlign=bottom;align=left;labelPosition=center;verticalLabelPosition=middle;fontStyle=1;fontSize=13;spacingLeft=2;" vertex="1" parent="BC4szQIssQrzn8wiqJx_-1">
          <mxGeometry y="600" width="750" height="270" as="geometry" />
        </mxCell>
        <mxCell id="BC4szQIssQrzn8wiqJx_-2" value="&lt;span&gt;Server #4&lt;/span&gt;" style="rounded=1;whiteSpace=wrap;html=1;fillColor=#66B2FF;rotation=0;verticalAlign=top;fontColor=#FFFFFF;fontStyle=1;fontSize=13;" vertex="1" parent="BC4szQIssQrzn8wiqJx_-1">
          <mxGeometry x="580" y="625" width="150" height="220" as="geometry" />
        </mxCell>
        <mxCell id="BC4szQIssQrzn8wiqJx_-3" value="" style="rounded=1;whiteSpace=wrap;html=1;rotation=0;" vertex="1" parent="BC4szQIssQrzn8wiqJx_-1">
          <mxGeometry x="592.5" y="665" width="125" height="170" as="geometry" />
        </mxCell>
        <mxCell id="BC4szQIssQrzn8wiqJx_-4" value="&lt;span&gt;Server #3&lt;/span&gt;" style="rounded=1;whiteSpace=wrap;html=1;fillColor=#66B2FF;rotation=0;fontColor=#FFFFFF;verticalAlign=top;fontStyle=1;fontSize=13;" vertex="1" parent="BC4szQIssQrzn8wiqJx_-1">
          <mxGeometry x="300" y="625" width="150" height="220" as="geometry" />
        </mxCell>
        <mxCell id="BC4szQIssQrzn8wiqJx_-5" value="" style="rounded=1;whiteSpace=wrap;html=1;rotation=0;" vertex="1" parent="BC4szQIssQrzn8wiqJx_-1">
          <mxGeometry x="312.5" y="665" width="125" height="170" as="geometry" />
        </mxCell>
        <mxCell id="BC4szQIssQrzn8wiqJx_-6" value="&lt;span style=&quot;text-wrap-mode: nowrap;&quot;&gt;Источники&amp;nbsp;&lt;/span&gt;&lt;div&gt;&lt;span style=&quot;text-wrap-mode: nowrap;&quot;&gt;данных&lt;/span&gt;&lt;/div&gt;" style="rounded=1;whiteSpace=wrap;html=1;fillColor=#66B2FF;fontColor=#FFFFFF;verticalAlign=top;fontSize=13;fontStyle=1" vertex="1" parent="BC4szQIssQrzn8wiqJx_-1">
          <mxGeometry x="870" y="320" width="150" height="530" as="geometry" />
        </mxCell>
        <mxCell id="BC4szQIssQrzn8wiqJx_-7" value="" style="rounded=1;whiteSpace=wrap;html=1;rotation=0;" vertex="1" parent="BC4szQIssQrzn8wiqJx_-1">
          <mxGeometry x="882.5" y="360" width="125" height="480" as="geometry" />
        </mxCell>
        <mxCell id="BC4szQIssQrzn8wiqJx_-8" value="Other" style="strokeWidth=2;html=1;shape=mxgraph.flowchart.database;whiteSpace=wrap;spacingTop=5;" vertex="1" parent="BC4szQIssQrzn8wiqJx_-1">
          <mxGeometry x="910" y="715" width="70" height="30" as="geometry" />
        </mxCell>
        <mxCell id="BC4szQIssQrzn8wiqJx_-10" value="JDBC" style="strokeWidth=2;html=1;shape=mxgraph.flowchart.database;whiteSpace=wrap;spacingTop=5;" vertex="1" parent="BC4szQIssQrzn8wiqJx_-1">
          <mxGeometry x="910" y="695" width="70" height="30" as="geometry" />
        </mxCell>
        <mxCell id="BC4szQIssQrzn8wiqJx_-11" value="&lt;span&gt;Server #1&lt;/span&gt;" style="rounded=1;whiteSpace=wrap;html=1;fillColor=#66B2FF;verticalAlign=top;fontColor=#FFFFFF;fontSize=13;fontStyle=1" vertex="1" parent="BC4szQIssQrzn8wiqJx_-1">
          <mxGeometry x="300.5" y="320" width="150" height="220" as="geometry" />
        </mxCell>
        <mxCell id="BC4szQIssQrzn8wiqJx_-12" value="" style="rounded=1;whiteSpace=wrap;html=1;" vertex="1" parent="BC4szQIssQrzn8wiqJx_-1">
          <mxGeometry x="313" y="360" width="125" height="170" as="geometry" />
        </mxCell>
        <mxCell id="BC4szQIssQrzn8wiqJx_-14" value="Database" style="shape=datastore;whiteSpace=wrap;html=1;labelPosition=center;verticalLabelPosition=bottom;align=center;verticalAlign=top;fontStyle=1" vertex="1" parent="BC4szQIssQrzn8wiqJx_-1">
          <mxGeometry x="910" y="405" width="70" height="70" as="geometry" />
        </mxCell>
        <mxCell id="BC4szQIssQrzn8wiqJx_-16" value="&lt;span&gt;Server #2&lt;/span&gt;" style="rounded=1;whiteSpace=wrap;html=1;fillColor=#66B2FF;rotation=0;verticalAlign=top;fontColor=#FFFFFF;fontStyle=1;fontSize=13;" vertex="1" parent="BC4szQIssQrzn8wiqJx_-1">
          <mxGeometry x="20" y="625" width="150" height="220" as="geometry" />
        </mxCell>
        <mxCell id="BC4szQIssQrzn8wiqJx_-17" value="" style="rounded=1;whiteSpace=wrap;html=1;rotation=0;" vertex="1" parent="BC4szQIssQrzn8wiqJx_-1">
          <mxGeometry x="32.5" y="665" width="125" height="170" as="geometry" />
        </mxCell>
        <mxCell id="BC4szQIssQrzn8wiqJx_-19" style="edgeStyle=orthogonalEdgeStyle;rounded=1;orthogonalLoop=1;jettySize=auto;html=1;exitX=0.5;exitY=1;exitDx=0;exitDy=0;curved=0;startArrow=classic;startFill=1;strokeWidth=2;" edge="1" parent="BC4szQIssQrzn8wiqJx_-1" source="BC4szQIssQrzn8wiqJx_-11" target="BC4szQIssQrzn8wiqJx_-16">
          <mxGeometry relative="1" as="geometry">
            <mxPoint x="400.5" y="110" as="sourcePoint" />
            <mxPoint x="584.25" y="45" as="targetPoint" />
          </mxGeometry>
        </mxCell>
        <mxCell id="BC4szQIssQrzn8wiqJx_-21" value="File" style="whiteSpace=wrap;html=1;shape=mxgraph.basic.document;verticalAlign=top;labelPosition=center;verticalLabelPosition=bottom;align=center;fontStyle=1" vertex="1" parent="BC4szQIssQrzn8wiqJx_-1">
          <mxGeometry x="910" y="545" width="70" height="70" as="geometry" />
        </mxCell>
        <mxCell id="BC4szQIssQrzn8wiqJx_-22" value="ODBC" style="strokeWidth=2;html=1;shape=mxgraph.flowchart.database;whiteSpace=wrap;spacingLeft=0;spacingTop=5;" vertex="1" parent="BC4szQIssQrzn8wiqJx_-1">
          <mxGeometry x="910" y="675" width="70" height="30" as="geometry" />
        </mxCell>
        <mxCell id="BC4szQIssQrzn8wiqJx_-24" style="edgeStyle=orthogonalEdgeStyle;rounded=1;orthogonalLoop=1;jettySize=auto;html=1;entryX=0.5;entryY=0;entryDx=0;entryDy=0;curved=0;exitX=0.5;exitY=1;exitDx=0;exitDy=0;startArrow=classic;startFill=1;strokeWidth=2;" edge="1" parent="BC4szQIssQrzn8wiqJx_-1" source="BC4szQIssQrzn8wiqJx_-11" target="BC4szQIssQrzn8wiqJx_-4">
          <mxGeometry relative="1" as="geometry" />
        </mxCell>
        <mxCell id="BC4szQIssQrzn8wiqJx_-25" style="edgeStyle=orthogonalEdgeStyle;rounded=1;orthogonalLoop=1;jettySize=auto;html=1;entryX=0.5;entryY=0;entryDx=0;entryDy=0;curved=0;exitX=0.5;exitY=1;exitDx=0;exitDy=0;strokeWidth=2;startArrow=classic;startFill=1;" edge="1" parent="BC4szQIssQrzn8wiqJx_-1" source="BC4szQIssQrzn8wiqJx_-11" target="BC4szQIssQrzn8wiqJx_-2">
          <mxGeometry relative="1" as="geometry" />
        </mxCell>
        <mxCell id="BC4szQIssQrzn8wiqJx_-26" value="PA Master" style="shape=image;html=1;verticalAlign=top;verticalLabelPosition=bottom;labelBackgroundColor=#ffffff;imageAspect=0;aspect=fixed;image=https://cdn1.iconfinder.com/data/icons/seo-and-web-development-6/32/development_globe_sphere-128.png" vertex="1" parent="BC4szQIssQrzn8wiqJx_-1">
          <mxGeometry x="340.5" y="405" width="70" height="70" as="geometry" />
        </mxCell>
        <mxCell id="BC4szQIssQrzn8wiqJx_-27" value="PA Slave" style="shape=image;html=1;verticalAlign=top;verticalLabelPosition=bottom;labelBackgroundColor=#ffffff;imageAspect=0;aspect=fixed;image=https://cdn1.iconfinder.com/data/icons/seo-and-web-development-6/32/development_globe_sphere-128.png;fontStyle=1" vertex="1" parent="BC4szQIssQrzn8wiqJx_-1">
          <mxGeometry x="62.5" y="710" width="70" height="70" as="geometry" />
        </mxCell>
        <mxCell id="BC4szQIssQrzn8wiqJx_-29" value="PA Slave" style="shape=image;html=1;verticalAlign=top;verticalLabelPosition=bottom;labelBackgroundColor=#ffffff;imageAspect=0;aspect=fixed;image=https://cdn1.iconfinder.com/data/icons/seo-and-web-development-6/32/development_globe_sphere-128.png;fontStyle=1" vertex="1" parent="BC4szQIssQrzn8wiqJx_-1">
          <mxGeometry x="340" y="710" width="70" height="70" as="geometry" />
        </mxCell>
        <mxCell id="BC4szQIssQrzn8wiqJx_-31" value="PA Slave" style="shape=image;html=1;verticalAlign=top;verticalLabelPosition=bottom;labelBackgroundColor=#ffffff;imageAspect=0;aspect=fixed;image=https://cdn1.iconfinder.com/data/icons/seo-and-web-development-6/32/development_globe_sphere-128.png;fontStyle=1" vertex="1" parent="BC4szQIssQrzn8wiqJx_-1">
          <mxGeometry x="620" y="710" width="70" height="70" as="geometry" />
        </mxCell>
        <mxCell id="Vj-ElNkni9zt4C1KA1Vx-0" style="rounded=1;orthogonalLoop=1;jettySize=auto;html=1;entryX=1;entryY=0.5;entryDx=0;entryDy=0;startArrow=none;startFill=0;strokeWidth=2;exitX=0.031;exitY=0.179;exitDx=0;exitDy=0;exitPerimeter=0;edgeStyle=orthogonalEdgeStyle;" edge="1" parent="BC4szQIssQrzn8wiqJx_-1" source="BC4szQIssQrzn8wiqJx_-7" target="BC4szQIssQrzn8wiqJx_-12">
          <mxGeometry relative="1" as="geometry">
            <mxPoint x="810" y="445" as="sourcePoint" />
          </mxGeometry>
        </mxCell>
        <mxCell id="HVfQ9R8C9olwwlzY_nE2-0" value="Клиентское&amp;nbsp;&lt;div&gt;приложение&lt;/div&gt;" style="rounded=1;whiteSpace=wrap;html=1;fillColor=#66B2FF;fontColor=#FFFFFF;labelPosition=center;verticalLabelPosition=middle;align=center;verticalAlign=top;spacingTop=0;spacing=2;fontStyle=1;fontSize=13;" vertex="1" parent="BC4szQIssQrzn8wiqJx_-1">
          <mxGeometry x="22.5" y="320" width="150" height="220" as="geometry" />
        </mxCell>
        <mxCell id="HVfQ9R8C9olwwlzY_nE2-7" style="edgeStyle=orthogonalEdgeStyle;rounded=1;orthogonalLoop=1;jettySize=auto;html=1;exitX=1;exitY=0.5;exitDx=0;exitDy=0;entryX=0;entryY=0.5;entryDx=0;entryDy=0;curved=0;startArrow=classic;startFill=1;strokeWidth=2;" edge="1" parent="BC4szQIssQrzn8wiqJx_-1" source="HVfQ9R8C9olwwlzY_nE2-1" target="BC4szQIssQrzn8wiqJx_-12">
          <mxGeometry relative="1" as="geometry" />
        </mxCell>
        <mxCell id="HVfQ9R8C9olwwlzY_nE2-1" value="" style="rounded=1;whiteSpace=wrap;html=1;rotation=0;" vertex="1" parent="BC4szQIssQrzn8wiqJx_-1">
          <mxGeometry x="35.5" y="360" width="125" height="170" as="geometry" />
        </mxCell>
        <mxCell id="HVfQ9R8C9olwwlzY_nE2-2" value="Веб-клиент" style="sketch=0;outlineConnect=0;fontColor=#232F3E;gradientColor=none;fillColor=#232F3D;strokeColor=none;dashed=0;verticalLabelPosition=bottom;verticalAlign=top;align=center;html=1;fontSize=12;fontStyle=1;aspect=fixed;pointerEvents=1;shape=mxgraph.aws4.client;" vertex="1" parent="BC4szQIssQrzn8wiqJx_-1">
          <mxGeometry x="63" y="410.88" width="70" height="68.24" as="geometry" />
        </mxCell>
      </root>
    </mxGraphModel>
  </diagram>
  <diagram id="5ZkrY96yM3ZGY0qlJAiX" name="PA-cluster_2_v1">
    <mxGraphModel dx="1050" dy="661" grid="1" gridSize="10" guides="1" tooltips="1" connect="1" arrows="1" fold="1" page="1" pageScale="1" pageWidth="1169" pageHeight="827" math="0" shadow="0">
      <root>
        <mxCell id="0" />
        <mxCell id="1" parent="0" />
        <mxCell id="r2AK_g9CTLc91CSiZ3bf-2" value="" style="rounded=0;whiteSpace=wrap;html=1;fillColor=none;strokeColor=none;" vertex="1" parent="1">
          <mxGeometry x="600" y="1110" width="120" height="140" as="geometry" />
        </mxCell>
        <mxCell id="zghtrdZSJm3pvbIgBXX0-176" value="" style="rounded=0;whiteSpace=wrap;html=1;strokeColor=none;opacity=0;fontSize=14;" parent="1" vertex="1">
          <mxGeometry x="600" y="1350" width="120" height="120" as="geometry" />
        </mxCell>
        <mxCell id="zghtrdZSJm3pvbIgBXX0-226" value="" style="rounded=0;whiteSpace=wrap;html=1;strokeColor=none;opacity=0;" parent="1" vertex="1">
          <mxGeometry x="910" y="1250" width="160" height="320" as="geometry" />
        </mxCell>
        <mxCell id="zghtrdZSJm3pvbIgBXX0-7" value="" style="rounded=0;whiteSpace=wrap;html=1;strokeColor=none;opacity=0;" parent="1" vertex="1">
          <mxGeometry x="420" y="580" width="70" height="80" as="geometry" />
        </mxCell>
        <mxCell id="QVlkPiVy0YhddwgEQc7a-5" value="Источники данных" style="rounded=1;whiteSpace=wrap;html=1;strokeWidth=2;strokeColor=#0000FF;verticalAlign=top;fontSize=14;fontStyle=1" parent="1" vertex="1">
          <mxGeometry x="610" y="70" width="110" height="290" as="geometry" />
        </mxCell>
        <mxCell id="Crykv5mqERcpsCl8l9cI-1" value="" style="rounded=0;whiteSpace=wrap;html=1;strokeColor=none;opacity=0;" parent="1" vertex="1">
          <mxGeometry x="628" y="122.5" width="65" height="65" as="geometry" />
        </mxCell>
        <mxCell id="Crykv5mqERcpsCl8l9cI-2" value="" style="rounded=0;whiteSpace=wrap;html=1;strokeColor=none;opacity=0;" parent="1" vertex="1">
          <mxGeometry x="628" y="197.5" width="65" height="65" as="geometry" />
        </mxCell>
        <mxCell id="A1h7gI5JFBrF_3tYyRFv-13" value="" style="rounded=0;whiteSpace=wrap;html=1;strokeColor=none;opacity=0;" parent="1" vertex="1">
          <mxGeometry x="20" y="130" width="270" height="200" as="geometry" />
        </mxCell>
        <mxCell id="A1h7gI5JFBrF_3tYyRFv-16" style="edgeStyle=orthogonalEdgeStyle;rounded=0;orthogonalLoop=1;jettySize=auto;html=1;exitX=0;exitY=0.361;exitDx=0;exitDy=0;entryX=1;entryY=0.5;entryDx=0;entryDy=0;exitPerimeter=0;startArrow=classic;startFill=1;strokeWidth=2;" parent="1" source="A1h7gI5JFBrF_3tYyRFv-11" target="A1h7gI5JFBrF_3tYyRFv-13" edge="1">
          <mxGeometry relative="1" as="geometry" />
        </mxCell>
        <mxCell id="A1h7gI5JFBrF_3tYyRFv-11" value="" style="rounded=0;whiteSpace=wrap;html=1;strokeColor=none;opacity=0;" parent="1" vertex="1">
          <mxGeometry x="400" y="190" width="90" height="110" as="geometry" />
        </mxCell>
        <mxCell id="G6ZCYnDbYn_422bs6-S7-37" value="Slave-узлы" style="rounded=1;whiteSpace=wrap;html=1;strokeWidth=2;strokeColor=#0000FF;verticalAlign=top;fontSize=14;fontStyle=1" parent="1" vertex="1">
          <mxGeometry x="30" y="140" width="250" height="180" as="geometry" />
        </mxCell>
        <mxCell id="G6ZCYnDbYn_422bs6-S7-11" value="" style="group" parent="1" vertex="1" connectable="0">
          <mxGeometry x="50" y="180" width="50" height="50" as="geometry" />
        </mxCell>
        <mxCell id="G6ZCYnDbYn_422bs6-S7-1" value="" style="rounded=1;whiteSpace=wrap;html=1;strokeWidth=2;" parent="G6ZCYnDbYn_422bs6-S7-11" vertex="1">
          <mxGeometry width="50" height="50" as="geometry" />
        </mxCell>
        <mxCell id="G6ZCYnDbYn_422bs6-S7-2" value="" style="endArrow=none;html=1;rounded=0;exitX=0;exitY=0.5;exitDx=0;exitDy=0;entryX=1;entryY=0.5;entryDx=0;entryDy=0;strokeWidth=2;" parent="G6ZCYnDbYn_422bs6-S7-11" source="G6ZCYnDbYn_422bs6-S7-1" target="G6ZCYnDbYn_422bs6-S7-1" edge="1">
          <mxGeometry width="50" height="50" relative="1" as="geometry">
            <mxPoint x="30" y="50" as="sourcePoint" />
            <mxPoint x="80" as="targetPoint" />
          </mxGeometry>
        </mxCell>
        <mxCell id="G6ZCYnDbYn_422bs6-S7-3" value="" style="endArrow=none;html=1;rounded=0;strokeWidth=2;" parent="G6ZCYnDbYn_422bs6-S7-11" edge="1">
          <mxGeometry width="50" height="50" relative="1" as="geometry">
            <mxPoint x="5" y="15" as="sourcePoint" />
            <mxPoint x="25" y="15" as="targetPoint" />
          </mxGeometry>
        </mxCell>
        <mxCell id="G6ZCYnDbYn_422bs6-S7-6" value="" style="endArrow=none;html=1;rounded=0;strokeWidth=2;" parent="G6ZCYnDbYn_422bs6-S7-11" edge="1">
          <mxGeometry width="50" height="50" relative="1" as="geometry">
            <mxPoint x="5" y="35" as="sourcePoint" />
            <mxPoint x="25" y="35" as="targetPoint" />
          </mxGeometry>
        </mxCell>
        <mxCell id="G6ZCYnDbYn_422bs6-S7-12" value="" style="group" parent="1" vertex="1" connectable="0">
          <mxGeometry x="130" y="180" width="50" height="50" as="geometry" />
        </mxCell>
        <mxCell id="G6ZCYnDbYn_422bs6-S7-13" value="" style="rounded=1;whiteSpace=wrap;html=1;strokeWidth=2;" parent="G6ZCYnDbYn_422bs6-S7-12" vertex="1">
          <mxGeometry width="50" height="50" as="geometry" />
        </mxCell>
        <mxCell id="G6ZCYnDbYn_422bs6-S7-14" value="" style="endArrow=none;html=1;rounded=0;exitX=0;exitY=0.5;exitDx=0;exitDy=0;entryX=1;entryY=0.5;entryDx=0;entryDy=0;strokeWidth=2;" parent="G6ZCYnDbYn_422bs6-S7-12" source="G6ZCYnDbYn_422bs6-S7-13" target="G6ZCYnDbYn_422bs6-S7-13" edge="1">
          <mxGeometry width="50" height="50" relative="1" as="geometry">
            <mxPoint x="30" y="50" as="sourcePoint" />
            <mxPoint x="80" as="targetPoint" />
          </mxGeometry>
        </mxCell>
        <mxCell id="G6ZCYnDbYn_422bs6-S7-15" value="" style="endArrow=none;html=1;rounded=0;strokeWidth=2;" parent="G6ZCYnDbYn_422bs6-S7-12" edge="1">
          <mxGeometry width="50" height="50" relative="1" as="geometry">
            <mxPoint x="5" y="15" as="sourcePoint" />
            <mxPoint x="25" y="15" as="targetPoint" />
          </mxGeometry>
        </mxCell>
        <mxCell id="G6ZCYnDbYn_422bs6-S7-16" value="" style="endArrow=none;html=1;rounded=0;strokeWidth=2;" parent="G6ZCYnDbYn_422bs6-S7-12" edge="1">
          <mxGeometry width="50" height="50" relative="1" as="geometry">
            <mxPoint x="5" y="35" as="sourcePoint" />
            <mxPoint x="25" y="35" as="targetPoint" />
          </mxGeometry>
        </mxCell>
        <mxCell id="G6ZCYnDbYn_422bs6-S7-17" value="" style="group" parent="1" vertex="1" connectable="0">
          <mxGeometry x="210" y="180" width="50" height="50" as="geometry" />
        </mxCell>
        <mxCell id="G6ZCYnDbYn_422bs6-S7-18" value="" style="rounded=1;whiteSpace=wrap;html=1;strokeWidth=2;" parent="G6ZCYnDbYn_422bs6-S7-17" vertex="1">
          <mxGeometry width="50" height="50" as="geometry" />
        </mxCell>
        <mxCell id="G6ZCYnDbYn_422bs6-S7-19" value="" style="endArrow=none;html=1;rounded=0;exitX=0;exitY=0.5;exitDx=0;exitDy=0;entryX=1;entryY=0.5;entryDx=0;entryDy=0;strokeWidth=2;" parent="G6ZCYnDbYn_422bs6-S7-17" source="G6ZCYnDbYn_422bs6-S7-18" target="G6ZCYnDbYn_422bs6-S7-18" edge="1">
          <mxGeometry width="50" height="50" relative="1" as="geometry">
            <mxPoint x="30" y="50" as="sourcePoint" />
            <mxPoint x="80" as="targetPoint" />
          </mxGeometry>
        </mxCell>
        <mxCell id="G6ZCYnDbYn_422bs6-S7-20" value="" style="endArrow=none;html=1;rounded=0;strokeWidth=2;" parent="G6ZCYnDbYn_422bs6-S7-17" edge="1">
          <mxGeometry width="50" height="50" relative="1" as="geometry">
            <mxPoint x="5" y="15" as="sourcePoint" />
            <mxPoint x="25" y="15" as="targetPoint" />
          </mxGeometry>
        </mxCell>
        <mxCell id="G6ZCYnDbYn_422bs6-S7-21" value="" style="endArrow=none;html=1;rounded=0;strokeWidth=2;" parent="G6ZCYnDbYn_422bs6-S7-17" edge="1">
          <mxGeometry width="50" height="50" relative="1" as="geometry">
            <mxPoint x="5" y="35" as="sourcePoint" />
            <mxPoint x="25" y="35" as="targetPoint" />
          </mxGeometry>
        </mxCell>
        <mxCell id="G6ZCYnDbYn_422bs6-S7-22" value="" style="group" parent="1" vertex="1" connectable="0">
          <mxGeometry x="50" y="250" width="50" height="50" as="geometry" />
        </mxCell>
        <mxCell id="G6ZCYnDbYn_422bs6-S7-23" value="" style="rounded=1;whiteSpace=wrap;html=1;strokeWidth=2;" parent="G6ZCYnDbYn_422bs6-S7-22" vertex="1">
          <mxGeometry width="50" height="50" as="geometry" />
        </mxCell>
        <mxCell id="G6ZCYnDbYn_422bs6-S7-24" value="" style="endArrow=none;html=1;rounded=0;exitX=0;exitY=0.5;exitDx=0;exitDy=0;entryX=1;entryY=0.5;entryDx=0;entryDy=0;strokeWidth=2;" parent="G6ZCYnDbYn_422bs6-S7-22" source="G6ZCYnDbYn_422bs6-S7-23" target="G6ZCYnDbYn_422bs6-S7-23" edge="1">
          <mxGeometry width="50" height="50" relative="1" as="geometry">
            <mxPoint x="30" y="50" as="sourcePoint" />
            <mxPoint x="80" as="targetPoint" />
          </mxGeometry>
        </mxCell>
        <mxCell id="G6ZCYnDbYn_422bs6-S7-25" value="" style="endArrow=none;html=1;rounded=0;strokeWidth=2;" parent="G6ZCYnDbYn_422bs6-S7-22" edge="1">
          <mxGeometry width="50" height="50" relative="1" as="geometry">
            <mxPoint x="5" y="15" as="sourcePoint" />
            <mxPoint x="25" y="15" as="targetPoint" />
          </mxGeometry>
        </mxCell>
        <mxCell id="G6ZCYnDbYn_422bs6-S7-26" value="" style="endArrow=none;html=1;rounded=0;strokeWidth=2;" parent="G6ZCYnDbYn_422bs6-S7-22" edge="1">
          <mxGeometry width="50" height="50" relative="1" as="geometry">
            <mxPoint x="5" y="35" as="sourcePoint" />
            <mxPoint x="25" y="35" as="targetPoint" />
          </mxGeometry>
        </mxCell>
        <mxCell id="G6ZCYnDbYn_422bs6-S7-27" value="" style="group" parent="1" vertex="1" connectable="0">
          <mxGeometry x="130" y="250" width="50" height="50" as="geometry" />
        </mxCell>
        <mxCell id="G6ZCYnDbYn_422bs6-S7-28" value="" style="rounded=1;whiteSpace=wrap;html=1;strokeWidth=2;" parent="G6ZCYnDbYn_422bs6-S7-27" vertex="1">
          <mxGeometry width="50" height="50" as="geometry" />
        </mxCell>
        <mxCell id="G6ZCYnDbYn_422bs6-S7-29" value="" style="endArrow=none;html=1;rounded=0;exitX=0;exitY=0.5;exitDx=0;exitDy=0;entryX=1;entryY=0.5;entryDx=0;entryDy=0;strokeWidth=2;" parent="G6ZCYnDbYn_422bs6-S7-27" source="G6ZCYnDbYn_422bs6-S7-28" target="G6ZCYnDbYn_422bs6-S7-28" edge="1">
          <mxGeometry width="50" height="50" relative="1" as="geometry">
            <mxPoint x="30" y="50" as="sourcePoint" />
            <mxPoint x="80" as="targetPoint" />
          </mxGeometry>
        </mxCell>
        <mxCell id="G6ZCYnDbYn_422bs6-S7-30" value="" style="endArrow=none;html=1;rounded=0;strokeWidth=2;" parent="G6ZCYnDbYn_422bs6-S7-27" edge="1">
          <mxGeometry width="50" height="50" relative="1" as="geometry">
            <mxPoint x="5" y="15" as="sourcePoint" />
            <mxPoint x="25" y="15" as="targetPoint" />
          </mxGeometry>
        </mxCell>
        <mxCell id="G6ZCYnDbYn_422bs6-S7-31" value="" style="endArrow=none;html=1;rounded=0;strokeWidth=2;" parent="G6ZCYnDbYn_422bs6-S7-27" edge="1">
          <mxGeometry width="50" height="50" relative="1" as="geometry">
            <mxPoint x="5" y="35" as="sourcePoint" />
            <mxPoint x="25" y="35" as="targetPoint" />
          </mxGeometry>
        </mxCell>
        <mxCell id="G6ZCYnDbYn_422bs6-S7-32" value="" style="group" parent="1" vertex="1" connectable="0">
          <mxGeometry x="210" y="250" width="50" height="50" as="geometry" />
        </mxCell>
        <mxCell id="G6ZCYnDbYn_422bs6-S7-39" value="" style="group" parent="G6ZCYnDbYn_422bs6-S7-32" vertex="1" connectable="0">
          <mxGeometry width="50" height="50" as="geometry" />
        </mxCell>
        <mxCell id="G6ZCYnDbYn_422bs6-S7-33" value="" style="rounded=1;whiteSpace=wrap;html=1;strokeWidth=2;" parent="G6ZCYnDbYn_422bs6-S7-39" vertex="1">
          <mxGeometry width="50" height="50" as="geometry" />
        </mxCell>
        <mxCell id="G6ZCYnDbYn_422bs6-S7-34" value="" style="endArrow=none;html=1;rounded=0;exitX=0;exitY=0.5;exitDx=0;exitDy=0;entryX=1;entryY=0.5;entryDx=0;entryDy=0;strokeWidth=2;" parent="G6ZCYnDbYn_422bs6-S7-39" source="G6ZCYnDbYn_422bs6-S7-33" target="G6ZCYnDbYn_422bs6-S7-33" edge="1">
          <mxGeometry width="50" height="50" relative="1" as="geometry">
            <mxPoint x="30" y="50" as="sourcePoint" />
            <mxPoint x="80" as="targetPoint" />
          </mxGeometry>
        </mxCell>
        <mxCell id="G6ZCYnDbYn_422bs6-S7-35" value="" style="endArrow=none;html=1;rounded=0;strokeWidth=2;" parent="G6ZCYnDbYn_422bs6-S7-39" edge="1">
          <mxGeometry width="50" height="50" relative="1" as="geometry">
            <mxPoint x="5" y="15" as="sourcePoint" />
            <mxPoint x="25" y="15" as="targetPoint" />
          </mxGeometry>
        </mxCell>
        <mxCell id="G6ZCYnDbYn_422bs6-S7-36" value="" style="endArrow=none;html=1;rounded=0;strokeWidth=2;" parent="G6ZCYnDbYn_422bs6-S7-39" edge="1">
          <mxGeometry width="50" height="50" relative="1" as="geometry">
            <mxPoint x="5" y="35" as="sourcePoint" />
            <mxPoint x="25" y="35" as="targetPoint" />
          </mxGeometry>
        </mxCell>
        <mxCell id="G6ZCYnDbYn_422bs6-S7-41" value="Master-узел" style="rounded=1;whiteSpace=wrap;html=1;strokeWidth=2;labelPosition=center;verticalLabelPosition=bottom;align=center;verticalAlign=top;fontSize=14;fontStyle=1" parent="1" vertex="1">
          <mxGeometry x="420" y="205" width="50" height="50" as="geometry" />
        </mxCell>
        <mxCell id="G6ZCYnDbYn_422bs6-S7-42" value="" style="endArrow=none;html=1;rounded=0;exitX=0;exitY=0.5;exitDx=0;exitDy=0;entryX=1;entryY=0.5;entryDx=0;entryDy=0;strokeWidth=2;elbow=vertical;" parent="1" source="G6ZCYnDbYn_422bs6-S7-41" target="G6ZCYnDbYn_422bs6-S7-41" edge="1">
          <mxGeometry width="50" height="50" relative="1" as="geometry">
            <mxPoint x="450" y="255" as="sourcePoint" />
            <mxPoint x="500" y="205" as="targetPoint" />
          </mxGeometry>
        </mxCell>
        <mxCell id="G6ZCYnDbYn_422bs6-S7-43" value="" style="endArrow=none;html=1;rounded=0;strokeWidth=2;" parent="1" edge="1">
          <mxGeometry width="50" height="50" relative="1" as="geometry">
            <mxPoint x="425" y="220" as="sourcePoint" />
            <mxPoint x="445" y="220" as="targetPoint" />
          </mxGeometry>
        </mxCell>
        <mxCell id="G6ZCYnDbYn_422bs6-S7-44" value="" style="endArrow=none;html=1;rounded=0;strokeWidth=2;" parent="1" edge="1">
          <mxGeometry width="50" height="50" relative="1" as="geometry">
            <mxPoint x="425" y="240" as="sourcePoint" />
            <mxPoint x="445" y="240" as="targetPoint" />
          </mxGeometry>
        </mxCell>
        <mxCell id="QVlkPiVy0YhddwgEQc7a-2" value="Пользователь" style="sketch=0;outlineConnect=0;fontColor=#232F3E;gradientColor=none;strokeColor=#232F3E;fillColor=#ffffff;dashed=0;verticalLabelPosition=bottom;verticalAlign=top;align=center;html=1;fontSize=14;fontStyle=1;aspect=fixed;shape=mxgraph.aws4.resourceIcon;resIcon=mxgraph.aws4.user;" parent="1" vertex="1">
          <mxGeometry x="420" y="50" width="50" height="50" as="geometry" />
        </mxCell>
        <mxCell id="QVlkPiVy0YhddwgEQc7a-3" value="" style="endArrow=classic;startArrow=classic;html=1;rounded=0;strokeWidth=2;" parent="1" edge="1">
          <mxGeometry width="50" height="50" relative="1" as="geometry">
            <mxPoint x="445" y="190" as="sourcePoint" />
            <mxPoint x="445" y="130" as="targetPoint" />
          </mxGeometry>
        </mxCell>
        <mxCell id="A1h7gI5JFBrF_3tYyRFv-5" style="edgeStyle=orthogonalEdgeStyle;rounded=1;orthogonalLoop=1;jettySize=auto;html=1;curved=0;strokeWidth=2;entryX=1.003;entryY=0.099;entryDx=0;entryDy=0;entryPerimeter=0;exitX=0;exitY=0.5;exitDx=0;exitDy=0;" parent="1" source="Crykv5mqERcpsCl8l9cI-1" target="A1h7gI5JFBrF_3tYyRFv-11" edge="1">
          <mxGeometry relative="1" as="geometry">
            <mxPoint x="620" y="160" as="sourcePoint" />
            <mxPoint x="510" y="200" as="targetPoint" />
            <Array as="points">
              <mxPoint x="570" y="155" />
              <mxPoint x="570" y="201" />
            </Array>
          </mxGeometry>
        </mxCell>
        <mxCell id="A1h7gI5JFBrF_3tYyRFv-7" value="Native Client" style="edgeLabel;html=1;align=center;verticalAlign=bottom;resizable=0;points=[];fontColor=#000000;spacingLeft=0;" parent="A1h7gI5JFBrF_3tYyRFv-5" vertex="1" connectable="0">
          <mxGeometry x="0.4545" relative="1" as="geometry">
            <mxPoint x="-5" y="-3" as="offset" />
          </mxGeometry>
        </mxCell>
        <mxCell id="QVlkPiVy0YhddwgEQc7a-7" value="" style="html=1;verticalLabelPosition=bottom;align=center;labelBackgroundColor=#ffffff;verticalAlign=top;strokeWidth=2;strokeColor=#000000;shadow=0;dashed=0;shape=mxgraph.ios7.icons.data;" parent="1" vertex="1">
          <mxGeometry x="644.5" y="130" width="41" height="50" as="geometry" />
        </mxCell>
        <mxCell id="A1h7gI5JFBrF_3tYyRFv-2" style="edgeStyle=orthogonalEdgeStyle;rounded=1;orthogonalLoop=1;jettySize=auto;html=1;curved=0;strokeWidth=2;spacing=0;entryX=0.987;entryY=0.356;entryDx=0;entryDy=0;entryPerimeter=0;exitX=0;exitY=0.5;exitDx=0;exitDy=0;" parent="1" source="Crykv5mqERcpsCl8l9cI-2" target="A1h7gI5JFBrF_3tYyRFv-11" edge="1">
          <mxGeometry relative="1" as="geometry">
            <mxPoint x="510" y="230" as="targetPoint" />
            <mxPoint x="590" y="229" as="sourcePoint" />
            <Array as="points" />
          </mxGeometry>
        </mxCell>
        <mxCell id="A1h7gI5JFBrF_3tYyRFv-3" value="JDBC/ODBC" style="edgeLabel;html=1;align=center;verticalAlign=middle;resizable=0;points=[];" parent="A1h7gI5JFBrF_3tYyRFv-2" vertex="1" connectable="0">
          <mxGeometry x="0.43" relative="1" as="geometry">
            <mxPoint x="12" as="offset" />
          </mxGeometry>
        </mxCell>
        <mxCell id="A1h7gI5JFBrF_3tYyRFv-1" value="" style="html=1;verticalLabelPosition=bottom;align=center;labelBackgroundColor=#ffffff;verticalAlign=top;strokeWidth=2;strokeColor=#000000;shadow=0;dashed=0;shape=mxgraph.ios7.icons.data;" parent="1" vertex="1">
          <mxGeometry x="644.5" y="205" width="41" height="50" as="geometry" />
        </mxCell>
        <mxCell id="A1h7gI5JFBrF_3tYyRFv-9" style="edgeStyle=orthogonalEdgeStyle;rounded=1;orthogonalLoop=1;jettySize=auto;html=1;curved=0;strokeWidth=2;exitX=0;exitY=0.5;exitDx=0;exitDy=0;entryX=1.008;entryY=0.643;entryDx=0;entryDy=0;entryPerimeter=0;" parent="1" source="A1h7gI5JFBrF_3tYyRFv-8" target="A1h7gI5JFBrF_3tYyRFv-11" edge="1">
          <mxGeometry relative="1" as="geometry">
            <mxPoint x="490" y="260" as="targetPoint" />
            <Array as="points">
              <mxPoint x="570" y="305" />
              <mxPoint x="570" y="261" />
            </Array>
          </mxGeometry>
        </mxCell>
        <mxCell id="A1h7gI5JFBrF_3tYyRFv-10" value="CSV/XLSL" style="edgeLabel;html=1;align=center;verticalAlign=top;resizable=0;points=[];" parent="A1h7gI5JFBrF_3tYyRFv-9" vertex="1" connectable="0">
          <mxGeometry x="0.6" relative="1" as="geometry">
            <mxPoint x="10" y="-5" as="offset" />
          </mxGeometry>
        </mxCell>
        <mxCell id="A1h7gI5JFBrF_3tYyRFv-8" value="" style="shape=image;html=1;verticalAlign=top;verticalLabelPosition=bottom;labelBackgroundColor=#ffffff;imageAspect=0;aspect=fixed;image=https://cdn0.iconfinder.com/data/icons/phosphor-thin-vol-3/256/microsoft-excel-logo-thin-128.png" parent="1" vertex="1">
          <mxGeometry x="632.5" y="272" width="65" height="65" as="geometry" />
        </mxCell>
        <mxCell id="zghtrdZSJm3pvbIgBXX0-2" value="Источники&amp;nbsp;&lt;div&gt;данных&lt;/div&gt;" style="rounded=1;whiteSpace=wrap;html=1;strokeWidth=2;strokeColor=#0000FF;verticalAlign=top;fontSize=14;fontStyle=1" parent="1" vertex="1">
          <mxGeometry x="620" y="500" width="100" height="200" as="geometry" />
        </mxCell>
        <mxCell id="zghtrdZSJm3pvbIgBXX0-4" value="" style="rounded=0;whiteSpace=wrap;html=1;strokeColor=none;opacity=0;" parent="1" vertex="1">
          <mxGeometry x="643.5" y="560" width="55" height="50" as="geometry" />
        </mxCell>
        <mxCell id="zghtrdZSJm3pvbIgBXX0-5" value="" style="rounded=0;whiteSpace=wrap;html=1;strokeColor=none;opacity=0;" parent="1" vertex="1">
          <mxGeometry x="30" y="500" width="270" height="240" as="geometry" />
        </mxCell>
        <mxCell id="zghtrdZSJm3pvbIgBXX0-6" style="edgeStyle=orthogonalEdgeStyle;rounded=0;orthogonalLoop=1;jettySize=auto;html=1;exitX=0;exitY=0.5;exitDx=0;exitDy=0;entryX=1;entryY=0.5;entryDx=0;entryDy=0;startArrow=classic;startFill=1;strokeWidth=2;" parent="1" source="zghtrdZSJm3pvbIgBXX0-7" target="zghtrdZSJm3pvbIgBXX0-5" edge="1">
          <mxGeometry relative="1" as="geometry" />
        </mxCell>
        <mxCell id="zghtrdZSJm3pvbIgBXX0-8" value="Slave-узлы" style="rounded=1;whiteSpace=wrap;html=1;strokeWidth=2;strokeColor=#0000FF;verticalAlign=top;fontSize=14;fontStyle=1" parent="1" vertex="1">
          <mxGeometry x="40" y="500" width="250" height="200" as="geometry" />
        </mxCell>
        <mxCell id="zghtrdZSJm3pvbIgBXX0-9" value="" style="group" parent="1" vertex="1" connectable="0">
          <mxGeometry x="60" y="560" width="50" height="50" as="geometry" />
        </mxCell>
        <mxCell id="zghtrdZSJm3pvbIgBXX0-10" value="" style="rounded=1;whiteSpace=wrap;html=1;strokeWidth=2;" parent="zghtrdZSJm3pvbIgBXX0-9" vertex="1">
          <mxGeometry width="50" height="50" as="geometry" />
        </mxCell>
        <mxCell id="zghtrdZSJm3pvbIgBXX0-11" value="" style="endArrow=none;html=1;rounded=0;exitX=0;exitY=0.5;exitDx=0;exitDy=0;entryX=1;entryY=0.5;entryDx=0;entryDy=0;strokeWidth=2;" parent="zghtrdZSJm3pvbIgBXX0-9" source="zghtrdZSJm3pvbIgBXX0-10" target="zghtrdZSJm3pvbIgBXX0-10" edge="1">
          <mxGeometry width="50" height="50" relative="1" as="geometry">
            <mxPoint x="30" y="50" as="sourcePoint" />
            <mxPoint x="80" as="targetPoint" />
          </mxGeometry>
        </mxCell>
        <mxCell id="zghtrdZSJm3pvbIgBXX0-12" value="" style="endArrow=none;html=1;rounded=0;strokeWidth=2;" parent="zghtrdZSJm3pvbIgBXX0-9" edge="1">
          <mxGeometry width="50" height="50" relative="1" as="geometry">
            <mxPoint x="5" y="15" as="sourcePoint" />
            <mxPoint x="25" y="15" as="targetPoint" />
          </mxGeometry>
        </mxCell>
        <mxCell id="zghtrdZSJm3pvbIgBXX0-13" value="" style="endArrow=none;html=1;rounded=0;strokeWidth=2;" parent="zghtrdZSJm3pvbIgBXX0-9" edge="1">
          <mxGeometry width="50" height="50" relative="1" as="geometry">
            <mxPoint x="5" y="35" as="sourcePoint" />
            <mxPoint x="25" y="35" as="targetPoint" />
          </mxGeometry>
        </mxCell>
        <mxCell id="zghtrdZSJm3pvbIgBXX0-14" value="" style="group" parent="1" vertex="1" connectable="0">
          <mxGeometry x="140" y="560" width="50" height="50" as="geometry" />
        </mxCell>
        <mxCell id="zghtrdZSJm3pvbIgBXX0-15" value="" style="rounded=1;whiteSpace=wrap;html=1;strokeWidth=2;" parent="zghtrdZSJm3pvbIgBXX0-14" vertex="1">
          <mxGeometry width="50" height="50" as="geometry" />
        </mxCell>
        <mxCell id="zghtrdZSJm3pvbIgBXX0-16" value="" style="endArrow=none;html=1;rounded=0;exitX=0;exitY=0.5;exitDx=0;exitDy=0;entryX=1;entryY=0.5;entryDx=0;entryDy=0;strokeWidth=2;" parent="zghtrdZSJm3pvbIgBXX0-14" source="zghtrdZSJm3pvbIgBXX0-15" target="zghtrdZSJm3pvbIgBXX0-15" edge="1">
          <mxGeometry width="50" height="50" relative="1" as="geometry">
            <mxPoint x="30" y="50" as="sourcePoint" />
            <mxPoint x="80" as="targetPoint" />
          </mxGeometry>
        </mxCell>
        <mxCell id="zghtrdZSJm3pvbIgBXX0-17" value="" style="endArrow=none;html=1;rounded=0;strokeWidth=2;" parent="zghtrdZSJm3pvbIgBXX0-14" edge="1">
          <mxGeometry width="50" height="50" relative="1" as="geometry">
            <mxPoint x="5" y="15" as="sourcePoint" />
            <mxPoint x="25" y="15" as="targetPoint" />
          </mxGeometry>
        </mxCell>
        <mxCell id="zghtrdZSJm3pvbIgBXX0-18" value="" style="endArrow=none;html=1;rounded=0;strokeWidth=2;" parent="zghtrdZSJm3pvbIgBXX0-14" edge="1">
          <mxGeometry width="50" height="50" relative="1" as="geometry">
            <mxPoint x="5" y="35" as="sourcePoint" />
            <mxPoint x="25" y="35" as="targetPoint" />
          </mxGeometry>
        </mxCell>
        <mxCell id="zghtrdZSJm3pvbIgBXX0-19" value="" style="group" parent="1" vertex="1" connectable="0">
          <mxGeometry x="220" y="560" width="50" height="50" as="geometry" />
        </mxCell>
        <mxCell id="zghtrdZSJm3pvbIgBXX0-20" value="" style="rounded=1;whiteSpace=wrap;html=1;strokeWidth=2;" parent="zghtrdZSJm3pvbIgBXX0-19" vertex="1">
          <mxGeometry width="50" height="50" as="geometry" />
        </mxCell>
        <mxCell id="zghtrdZSJm3pvbIgBXX0-21" value="" style="endArrow=none;html=1;rounded=0;exitX=0;exitY=0.5;exitDx=0;exitDy=0;entryX=1;entryY=0.5;entryDx=0;entryDy=0;strokeWidth=2;" parent="zghtrdZSJm3pvbIgBXX0-19" source="zghtrdZSJm3pvbIgBXX0-20" target="zghtrdZSJm3pvbIgBXX0-20" edge="1">
          <mxGeometry width="50" height="50" relative="1" as="geometry">
            <mxPoint x="30" y="50" as="sourcePoint" />
            <mxPoint x="80" as="targetPoint" />
          </mxGeometry>
        </mxCell>
        <mxCell id="zghtrdZSJm3pvbIgBXX0-22" value="" style="endArrow=none;html=1;rounded=0;strokeWidth=2;" parent="zghtrdZSJm3pvbIgBXX0-19" edge="1">
          <mxGeometry width="50" height="50" relative="1" as="geometry">
            <mxPoint x="5" y="15" as="sourcePoint" />
            <mxPoint x="25" y="15" as="targetPoint" />
          </mxGeometry>
        </mxCell>
        <mxCell id="zghtrdZSJm3pvbIgBXX0-23" value="" style="endArrow=none;html=1;rounded=0;strokeWidth=2;" parent="zghtrdZSJm3pvbIgBXX0-19" edge="1">
          <mxGeometry width="50" height="50" relative="1" as="geometry">
            <mxPoint x="5" y="35" as="sourcePoint" />
            <mxPoint x="25" y="35" as="targetPoint" />
          </mxGeometry>
        </mxCell>
        <mxCell id="zghtrdZSJm3pvbIgBXX0-24" value="" style="group" parent="1" vertex="1" connectable="0">
          <mxGeometry x="60" y="630" width="50" height="50" as="geometry" />
        </mxCell>
        <mxCell id="zghtrdZSJm3pvbIgBXX0-25" value="" style="rounded=1;whiteSpace=wrap;html=1;strokeWidth=2;" parent="zghtrdZSJm3pvbIgBXX0-24" vertex="1">
          <mxGeometry width="50" height="50" as="geometry" />
        </mxCell>
        <mxCell id="zghtrdZSJm3pvbIgBXX0-26" value="" style="endArrow=none;html=1;rounded=0;exitX=0;exitY=0.5;exitDx=0;exitDy=0;entryX=1;entryY=0.5;entryDx=0;entryDy=0;strokeWidth=2;" parent="zghtrdZSJm3pvbIgBXX0-24" source="zghtrdZSJm3pvbIgBXX0-25" target="zghtrdZSJm3pvbIgBXX0-25" edge="1">
          <mxGeometry width="50" height="50" relative="1" as="geometry">
            <mxPoint x="30" y="50" as="sourcePoint" />
            <mxPoint x="80" as="targetPoint" />
          </mxGeometry>
        </mxCell>
        <mxCell id="zghtrdZSJm3pvbIgBXX0-27" value="" style="endArrow=none;html=1;rounded=0;strokeWidth=2;" parent="zghtrdZSJm3pvbIgBXX0-24" edge="1">
          <mxGeometry width="50" height="50" relative="1" as="geometry">
            <mxPoint x="5" y="15" as="sourcePoint" />
            <mxPoint x="25" y="15" as="targetPoint" />
          </mxGeometry>
        </mxCell>
        <mxCell id="zghtrdZSJm3pvbIgBXX0-28" value="" style="endArrow=none;html=1;rounded=0;strokeWidth=2;" parent="zghtrdZSJm3pvbIgBXX0-24" edge="1">
          <mxGeometry width="50" height="50" relative="1" as="geometry">
            <mxPoint x="5" y="35" as="sourcePoint" />
            <mxPoint x="25" y="35" as="targetPoint" />
          </mxGeometry>
        </mxCell>
        <mxCell id="zghtrdZSJm3pvbIgBXX0-29" value="" style="group" parent="1" vertex="1" connectable="0">
          <mxGeometry x="140" y="630" width="50" height="50" as="geometry" />
        </mxCell>
        <mxCell id="zghtrdZSJm3pvbIgBXX0-30" value="" style="rounded=1;whiteSpace=wrap;html=1;strokeWidth=2;" parent="zghtrdZSJm3pvbIgBXX0-29" vertex="1">
          <mxGeometry width="50" height="50" as="geometry" />
        </mxCell>
        <mxCell id="zghtrdZSJm3pvbIgBXX0-31" value="" style="endArrow=none;html=1;rounded=0;exitX=0;exitY=0.5;exitDx=0;exitDy=0;entryX=1;entryY=0.5;entryDx=0;entryDy=0;strokeWidth=2;" parent="zghtrdZSJm3pvbIgBXX0-29" source="zghtrdZSJm3pvbIgBXX0-30" target="zghtrdZSJm3pvbIgBXX0-30" edge="1">
          <mxGeometry width="50" height="50" relative="1" as="geometry">
            <mxPoint x="30" y="50" as="sourcePoint" />
            <mxPoint x="80" as="targetPoint" />
          </mxGeometry>
        </mxCell>
        <mxCell id="zghtrdZSJm3pvbIgBXX0-32" value="" style="endArrow=none;html=1;rounded=0;strokeWidth=2;" parent="zghtrdZSJm3pvbIgBXX0-29" edge="1">
          <mxGeometry width="50" height="50" relative="1" as="geometry">
            <mxPoint x="5" y="15" as="sourcePoint" />
            <mxPoint x="25" y="15" as="targetPoint" />
          </mxGeometry>
        </mxCell>
        <mxCell id="zghtrdZSJm3pvbIgBXX0-33" value="" style="endArrow=none;html=1;rounded=0;strokeWidth=2;" parent="zghtrdZSJm3pvbIgBXX0-29" edge="1">
          <mxGeometry width="50" height="50" relative="1" as="geometry">
            <mxPoint x="5" y="35" as="sourcePoint" />
            <mxPoint x="25" y="35" as="targetPoint" />
          </mxGeometry>
        </mxCell>
        <mxCell id="zghtrdZSJm3pvbIgBXX0-34" value="" style="group" parent="1" vertex="1" connectable="0">
          <mxGeometry x="220" y="630" width="50" height="50" as="geometry" />
        </mxCell>
        <mxCell id="zghtrdZSJm3pvbIgBXX0-35" value="" style="group" parent="zghtrdZSJm3pvbIgBXX0-34" vertex="1" connectable="0">
          <mxGeometry width="50" height="50" as="geometry" />
        </mxCell>
        <mxCell id="zghtrdZSJm3pvbIgBXX0-36" value="" style="rounded=1;whiteSpace=wrap;html=1;strokeWidth=2;" parent="zghtrdZSJm3pvbIgBXX0-35" vertex="1">
          <mxGeometry width="50" height="50" as="geometry" />
        </mxCell>
        <mxCell id="zghtrdZSJm3pvbIgBXX0-37" value="" style="endArrow=none;html=1;rounded=0;exitX=0;exitY=0.5;exitDx=0;exitDy=0;entryX=1;entryY=0.5;entryDx=0;entryDy=0;strokeWidth=2;" parent="zghtrdZSJm3pvbIgBXX0-35" source="zghtrdZSJm3pvbIgBXX0-36" target="zghtrdZSJm3pvbIgBXX0-36" edge="1">
          <mxGeometry width="50" height="50" relative="1" as="geometry">
            <mxPoint x="30" y="50" as="sourcePoint" />
            <mxPoint x="80" as="targetPoint" />
          </mxGeometry>
        </mxCell>
        <mxCell id="zghtrdZSJm3pvbIgBXX0-38" value="" style="endArrow=none;html=1;rounded=0;strokeWidth=2;" parent="zghtrdZSJm3pvbIgBXX0-35" edge="1">
          <mxGeometry width="50" height="50" relative="1" as="geometry">
            <mxPoint x="5" y="15" as="sourcePoint" />
            <mxPoint x="25" y="15" as="targetPoint" />
          </mxGeometry>
        </mxCell>
        <mxCell id="zghtrdZSJm3pvbIgBXX0-39" value="" style="endArrow=none;html=1;rounded=0;strokeWidth=2;" parent="zghtrdZSJm3pvbIgBXX0-35" edge="1">
          <mxGeometry width="50" height="50" relative="1" as="geometry">
            <mxPoint x="5" y="35" as="sourcePoint" />
            <mxPoint x="25" y="35" as="targetPoint" />
          </mxGeometry>
        </mxCell>
        <mxCell id="zghtrdZSJm3pvbIgBXX0-44" value="Пользователь" style="sketch=0;outlineConnect=0;fontColor=#232F3E;gradientColor=none;strokeColor=#232F3E;fillColor=#ffffff;dashed=0;verticalLabelPosition=bottom;verticalAlign=top;align=center;html=1;fontSize=14;fontStyle=1;aspect=fixed;shape=mxgraph.aws4.resourceIcon;resIcon=mxgraph.aws4.user;" parent="1" vertex="1">
          <mxGeometry x="430" y="430" width="50" height="50" as="geometry" />
        </mxCell>
        <mxCell id="zghtrdZSJm3pvbIgBXX0-45" value="" style="endArrow=classic;startArrow=classic;html=1;rounded=0;strokeWidth=2;exitX=0.5;exitY=0;exitDx=0;exitDy=0;" parent="1" source="zghtrdZSJm3pvbIgBXX0-7" edge="1">
          <mxGeometry width="50" height="50" relative="1" as="geometry">
            <mxPoint x="500" y="550" as="sourcePoint" />
            <mxPoint x="455" y="510" as="targetPoint" />
          </mxGeometry>
        </mxCell>
        <mxCell id="zghtrdZSJm3pvbIgBXX0-49" style="rounded=1;orthogonalLoop=1;jettySize=auto;html=1;strokeWidth=2;spacing=0;exitX=0;exitY=0.5;exitDx=0;exitDy=0;jumpSize=6;edgeStyle=orthogonalEdgeStyle;entryX=1;entryY=0.5;entryDx=0;entryDy=0;" parent="1" source="zghtrdZSJm3pvbIgBXX0-4" target="zghtrdZSJm3pvbIgBXX0-7" edge="1">
          <mxGeometry relative="1" as="geometry">
            <mxPoint x="540" y="620" as="targetPoint" />
            <mxPoint x="600" y="609" as="sourcePoint" />
            <Array as="points">
              <mxPoint x="530" y="585" />
              <mxPoint x="530" y="620" />
            </Array>
          </mxGeometry>
        </mxCell>
        <mxCell id="zghtrdZSJm3pvbIgBXX0-50" value="JDBC/ODBC" style="edgeLabel;html=1;align=center;verticalAlign=top;resizable=0;points=[];" parent="zghtrdZSJm3pvbIgBXX0-49" vertex="1" connectable="0">
          <mxGeometry x="0.43" relative="1" as="geometry">
            <mxPoint x="50" y="-26" as="offset" />
          </mxGeometry>
        </mxCell>
        <mxCell id="zghtrdZSJm3pvbIgBXX0-55" value="Native Client" style="edgeLabel;html=1;align=center;verticalAlign=bottom;resizable=0;points=[];rotation=0;" parent="zghtrdZSJm3pvbIgBXX0-49" vertex="1" connectable="0">
          <mxGeometry x="0.43" relative="1" as="geometry">
            <mxPoint x="50" y="-23" as="offset" />
          </mxGeometry>
        </mxCell>
        <mxCell id="zghtrdZSJm3pvbIgBXX0-51" value="" style="html=1;verticalLabelPosition=bottom;align=center;labelBackgroundColor=#ffffff;verticalAlign=top;strokeWidth=2;strokeColor=#000000;shadow=0;dashed=0;shape=mxgraph.ios7.icons.data;" parent="1" vertex="1">
          <mxGeometry x="648" y="560" width="45" height="50" as="geometry" />
        </mxCell>
        <mxCell id="zghtrdZSJm3pvbIgBXX0-52" style="rounded=1;orthogonalLoop=1;jettySize=auto;html=1;strokeWidth=2;entryX=1;entryY=0.5;entryDx=0;entryDy=0;exitX=0;exitY=0.5;exitDx=0;exitDy=0;edgeStyle=orthogonalEdgeStyle;" parent="1" source="zghtrdZSJm3pvbIgBXX0-67" target="zghtrdZSJm3pvbIgBXX0-7" edge="1">
          <mxGeometry relative="1" as="geometry">
            <mxPoint x="500" y="620" as="targetPoint" />
            <Array as="points">
              <mxPoint x="530" y="651" />
              <mxPoint x="530" y="620" />
            </Array>
            <mxPoint x="600" y="649" as="sourcePoint" />
          </mxGeometry>
        </mxCell>
        <mxCell id="zghtrdZSJm3pvbIgBXX0-53" value="CSV/XLSL" style="edgeLabel;html=1;align=center;verticalAlign=bottom;resizable=0;points=[];" parent="zghtrdZSJm3pvbIgBXX0-52" vertex="1" connectable="0">
          <mxGeometry x="0.6" relative="1" as="geometry">
            <mxPoint x="58" y="31" as="offset" />
          </mxGeometry>
        </mxCell>
        <mxCell id="zghtrdZSJm3pvbIgBXX0-54" value="" style="shape=image;html=1;verticalAlign=top;verticalLabelPosition=bottom;labelBackgroundColor=#ffffff;imageAspect=0;aspect=fixed;image=https://cdn0.iconfinder.com/data/icons/phosphor-thin-vol-3/256/microsoft-excel-logo-thin-128.png;container=0;" parent="1" vertex="1">
          <mxGeometry x="640.5" y="621" width="59" height="59" as="geometry" />
        </mxCell>
        <mxCell id="zghtrdZSJm3pvbIgBXX0-67" value="" style="rounded=0;whiteSpace=wrap;html=1;strokeColor=none;opacity=0;" parent="1" vertex="1">
          <mxGeometry x="644.5" y="625.5" width="55" height="50" as="geometry" />
        </mxCell>
        <mxCell id="zghtrdZSJm3pvbIgBXX0-69" value="" style="group" parent="1" vertex="1" connectable="0">
          <mxGeometry x="430" y="595" width="50" height="50" as="geometry" />
        </mxCell>
        <mxCell id="zghtrdZSJm3pvbIgBXX0-40" value="Master-узел" style="rounded=1;whiteSpace=wrap;html=1;strokeWidth=2;labelPosition=center;verticalLabelPosition=bottom;align=center;verticalAlign=top;fontSize=14;fontStyle=1" parent="zghtrdZSJm3pvbIgBXX0-69" vertex="1">
          <mxGeometry width="50" height="50" as="geometry" />
        </mxCell>
        <mxCell id="zghtrdZSJm3pvbIgBXX0-41" value="" style="endArrow=none;html=1;rounded=0;exitX=0;exitY=0.5;exitDx=0;exitDy=0;entryX=1;entryY=0.5;entryDx=0;entryDy=0;strokeWidth=2;elbow=vertical;" parent="zghtrdZSJm3pvbIgBXX0-69" source="zghtrdZSJm3pvbIgBXX0-40" target="zghtrdZSJm3pvbIgBXX0-40" edge="1">
          <mxGeometry width="50" height="50" relative="1" as="geometry">
            <mxPoint x="30" y="50" as="sourcePoint" />
            <mxPoint x="80" as="targetPoint" />
          </mxGeometry>
        </mxCell>
        <mxCell id="zghtrdZSJm3pvbIgBXX0-42" value="" style="endArrow=none;html=1;rounded=0;strokeWidth=2;" parent="zghtrdZSJm3pvbIgBXX0-69" edge="1">
          <mxGeometry width="50" height="50" relative="1" as="geometry">
            <mxPoint x="5" y="15" as="sourcePoint" />
            <mxPoint x="25" y="15" as="targetPoint" />
          </mxGeometry>
        </mxCell>
        <mxCell id="zghtrdZSJm3pvbIgBXX0-43" value="" style="endArrow=none;html=1;rounded=0;strokeWidth=2;" parent="zghtrdZSJm3pvbIgBXX0-69" edge="1">
          <mxGeometry width="50" height="50" relative="1" as="geometry">
            <mxPoint x="5" y="35" as="sourcePoint" />
            <mxPoint x="25" y="35" as="targetPoint" />
          </mxGeometry>
        </mxCell>
        <mxCell id="zghtrdZSJm3pvbIgBXX0-121" value="" style="rounded=0;whiteSpace=wrap;html=1;strokeColor=none;opacity=0;" parent="1" vertex="1">
          <mxGeometry x="410" y="940" width="70" height="80" as="geometry" />
        </mxCell>
        <mxCell id="zghtrdZSJm3pvbIgBXX0-122" value="Источники&amp;nbsp;&lt;div&gt;данных&lt;/div&gt;" style="rounded=1;whiteSpace=wrap;html=1;strokeWidth=2;strokeColor=#0000FF;verticalAlign=top;fontSize=14;fontStyle=1" parent="1" vertex="1">
          <mxGeometry x="610" y="860" width="100" height="200" as="geometry" />
        </mxCell>
        <mxCell id="zghtrdZSJm3pvbIgBXX0-124" value="" style="rounded=0;whiteSpace=wrap;html=1;strokeColor=none;opacity=0;" parent="1" vertex="1">
          <mxGeometry x="20" y="860" width="270" height="240" as="geometry" />
        </mxCell>
        <mxCell id="zghtrdZSJm3pvbIgBXX0-125" style="edgeStyle=orthogonalEdgeStyle;rounded=0;orthogonalLoop=1;jettySize=auto;html=1;exitX=0;exitY=0.5;exitDx=0;exitDy=0;entryX=1;entryY=0.5;entryDx=0;entryDy=0;startArrow=classic;startFill=1;strokeWidth=2;" parent="1" source="zghtrdZSJm3pvbIgBXX0-121" target="zghtrdZSJm3pvbIgBXX0-124" edge="1">
          <mxGeometry relative="1" as="geometry" />
        </mxCell>
        <mxCell id="zghtrdZSJm3pvbIgBXX0-126" value="Slave-узлы" style="rounded=1;whiteSpace=wrap;html=1;strokeWidth=2;strokeColor=#0000FF;verticalAlign=top;fontSize=14;fontStyle=1" parent="1" vertex="1">
          <mxGeometry x="30" y="860" width="250" height="200" as="geometry" />
        </mxCell>
        <mxCell id="zghtrdZSJm3pvbIgBXX0-127" value="" style="group" parent="1" vertex="1" connectable="0">
          <mxGeometry x="50" y="920" width="50" height="50" as="geometry" />
        </mxCell>
        <mxCell id="zghtrdZSJm3pvbIgBXX0-128" value="" style="rounded=1;whiteSpace=wrap;html=1;strokeWidth=2;" parent="zghtrdZSJm3pvbIgBXX0-127" vertex="1">
          <mxGeometry width="50" height="50" as="geometry" />
        </mxCell>
        <mxCell id="zghtrdZSJm3pvbIgBXX0-129" value="" style="endArrow=none;html=1;rounded=0;exitX=0;exitY=0.5;exitDx=0;exitDy=0;entryX=1;entryY=0.5;entryDx=0;entryDy=0;strokeWidth=2;" parent="zghtrdZSJm3pvbIgBXX0-127" source="zghtrdZSJm3pvbIgBXX0-128" target="zghtrdZSJm3pvbIgBXX0-128" edge="1">
          <mxGeometry width="50" height="50" relative="1" as="geometry">
            <mxPoint x="30" y="50" as="sourcePoint" />
            <mxPoint x="80" as="targetPoint" />
          </mxGeometry>
        </mxCell>
        <mxCell id="zghtrdZSJm3pvbIgBXX0-130" value="" style="endArrow=none;html=1;rounded=0;strokeWidth=2;" parent="zghtrdZSJm3pvbIgBXX0-127" edge="1">
          <mxGeometry width="50" height="50" relative="1" as="geometry">
            <mxPoint x="5" y="15" as="sourcePoint" />
            <mxPoint x="25" y="15" as="targetPoint" />
          </mxGeometry>
        </mxCell>
        <mxCell id="zghtrdZSJm3pvbIgBXX0-131" value="" style="endArrow=none;html=1;rounded=0;strokeWidth=2;" parent="zghtrdZSJm3pvbIgBXX0-127" edge="1">
          <mxGeometry width="50" height="50" relative="1" as="geometry">
            <mxPoint x="5" y="35" as="sourcePoint" />
            <mxPoint x="25" y="35" as="targetPoint" />
          </mxGeometry>
        </mxCell>
        <mxCell id="zghtrdZSJm3pvbIgBXX0-132" value="" style="group" parent="1" vertex="1" connectable="0">
          <mxGeometry x="130" y="920" width="50" height="50" as="geometry" />
        </mxCell>
        <mxCell id="zghtrdZSJm3pvbIgBXX0-133" value="" style="rounded=1;whiteSpace=wrap;html=1;strokeWidth=2;" parent="zghtrdZSJm3pvbIgBXX0-132" vertex="1">
          <mxGeometry width="50" height="50" as="geometry" />
        </mxCell>
        <mxCell id="zghtrdZSJm3pvbIgBXX0-134" value="" style="endArrow=none;html=1;rounded=0;exitX=0;exitY=0.5;exitDx=0;exitDy=0;entryX=1;entryY=0.5;entryDx=0;entryDy=0;strokeWidth=2;" parent="zghtrdZSJm3pvbIgBXX0-132" source="zghtrdZSJm3pvbIgBXX0-133" target="zghtrdZSJm3pvbIgBXX0-133" edge="1">
          <mxGeometry width="50" height="50" relative="1" as="geometry">
            <mxPoint x="30" y="50" as="sourcePoint" />
            <mxPoint x="80" as="targetPoint" />
          </mxGeometry>
        </mxCell>
        <mxCell id="zghtrdZSJm3pvbIgBXX0-135" value="" style="endArrow=none;html=1;rounded=0;strokeWidth=2;" parent="zghtrdZSJm3pvbIgBXX0-132" edge="1">
          <mxGeometry width="50" height="50" relative="1" as="geometry">
            <mxPoint x="5" y="15" as="sourcePoint" />
            <mxPoint x="25" y="15" as="targetPoint" />
          </mxGeometry>
        </mxCell>
        <mxCell id="zghtrdZSJm3pvbIgBXX0-136" value="" style="endArrow=none;html=1;rounded=0;strokeWidth=2;" parent="zghtrdZSJm3pvbIgBXX0-132" edge="1">
          <mxGeometry width="50" height="50" relative="1" as="geometry">
            <mxPoint x="5" y="35" as="sourcePoint" />
            <mxPoint x="25" y="35" as="targetPoint" />
          </mxGeometry>
        </mxCell>
        <mxCell id="zghtrdZSJm3pvbIgBXX0-137" value="" style="group" parent="1" vertex="1" connectable="0">
          <mxGeometry x="210" y="920" width="50" height="50" as="geometry" />
        </mxCell>
        <mxCell id="zghtrdZSJm3pvbIgBXX0-138" value="" style="rounded=1;whiteSpace=wrap;html=1;strokeWidth=2;" parent="zghtrdZSJm3pvbIgBXX0-137" vertex="1">
          <mxGeometry width="50" height="50" as="geometry" />
        </mxCell>
        <mxCell id="zghtrdZSJm3pvbIgBXX0-139" value="" style="endArrow=none;html=1;rounded=0;exitX=0;exitY=0.5;exitDx=0;exitDy=0;entryX=1;entryY=0.5;entryDx=0;entryDy=0;strokeWidth=2;" parent="zghtrdZSJm3pvbIgBXX0-137" source="zghtrdZSJm3pvbIgBXX0-138" target="zghtrdZSJm3pvbIgBXX0-138" edge="1">
          <mxGeometry width="50" height="50" relative="1" as="geometry">
            <mxPoint x="30" y="50" as="sourcePoint" />
            <mxPoint x="80" as="targetPoint" />
          </mxGeometry>
        </mxCell>
        <mxCell id="zghtrdZSJm3pvbIgBXX0-140" value="" style="endArrow=none;html=1;rounded=0;strokeWidth=2;" parent="zghtrdZSJm3pvbIgBXX0-137" edge="1">
          <mxGeometry width="50" height="50" relative="1" as="geometry">
            <mxPoint x="5" y="15" as="sourcePoint" />
            <mxPoint x="25" y="15" as="targetPoint" />
          </mxGeometry>
        </mxCell>
        <mxCell id="zghtrdZSJm3pvbIgBXX0-141" value="" style="endArrow=none;html=1;rounded=0;strokeWidth=2;" parent="zghtrdZSJm3pvbIgBXX0-137" edge="1">
          <mxGeometry width="50" height="50" relative="1" as="geometry">
            <mxPoint x="5" y="35" as="sourcePoint" />
            <mxPoint x="25" y="35" as="targetPoint" />
          </mxGeometry>
        </mxCell>
        <mxCell id="zghtrdZSJm3pvbIgBXX0-142" value="" style="group" parent="1" vertex="1" connectable="0">
          <mxGeometry x="50" y="990" width="50" height="50" as="geometry" />
        </mxCell>
        <mxCell id="zghtrdZSJm3pvbIgBXX0-143" value="" style="rounded=1;whiteSpace=wrap;html=1;strokeWidth=2;" parent="zghtrdZSJm3pvbIgBXX0-142" vertex="1">
          <mxGeometry width="50" height="50" as="geometry" />
        </mxCell>
        <mxCell id="zghtrdZSJm3pvbIgBXX0-144" value="" style="endArrow=none;html=1;rounded=0;exitX=0;exitY=0.5;exitDx=0;exitDy=0;entryX=1;entryY=0.5;entryDx=0;entryDy=0;strokeWidth=2;" parent="zghtrdZSJm3pvbIgBXX0-142" source="zghtrdZSJm3pvbIgBXX0-143" target="zghtrdZSJm3pvbIgBXX0-143" edge="1">
          <mxGeometry width="50" height="50" relative="1" as="geometry">
            <mxPoint x="30" y="50" as="sourcePoint" />
            <mxPoint x="80" as="targetPoint" />
          </mxGeometry>
        </mxCell>
        <mxCell id="zghtrdZSJm3pvbIgBXX0-145" value="" style="endArrow=none;html=1;rounded=0;strokeWidth=2;" parent="zghtrdZSJm3pvbIgBXX0-142" edge="1">
          <mxGeometry width="50" height="50" relative="1" as="geometry">
            <mxPoint x="5" y="15" as="sourcePoint" />
            <mxPoint x="25" y="15" as="targetPoint" />
          </mxGeometry>
        </mxCell>
        <mxCell id="zghtrdZSJm3pvbIgBXX0-146" value="" style="endArrow=none;html=1;rounded=0;strokeWidth=2;" parent="zghtrdZSJm3pvbIgBXX0-142" edge="1">
          <mxGeometry width="50" height="50" relative="1" as="geometry">
            <mxPoint x="5" y="35" as="sourcePoint" />
            <mxPoint x="25" y="35" as="targetPoint" />
          </mxGeometry>
        </mxCell>
        <mxCell id="zghtrdZSJm3pvbIgBXX0-147" value="" style="group" parent="1" vertex="1" connectable="0">
          <mxGeometry x="130" y="990" width="50" height="50" as="geometry" />
        </mxCell>
        <mxCell id="zghtrdZSJm3pvbIgBXX0-148" value="" style="rounded=1;whiteSpace=wrap;html=1;strokeWidth=2;" parent="zghtrdZSJm3pvbIgBXX0-147" vertex="1">
          <mxGeometry width="50" height="50" as="geometry" />
        </mxCell>
        <mxCell id="zghtrdZSJm3pvbIgBXX0-149" value="" style="endArrow=none;html=1;rounded=0;exitX=0;exitY=0.5;exitDx=0;exitDy=0;entryX=1;entryY=0.5;entryDx=0;entryDy=0;strokeWidth=2;" parent="zghtrdZSJm3pvbIgBXX0-147" source="zghtrdZSJm3pvbIgBXX0-148" target="zghtrdZSJm3pvbIgBXX0-148" edge="1">
          <mxGeometry width="50" height="50" relative="1" as="geometry">
            <mxPoint x="30" y="50" as="sourcePoint" />
            <mxPoint x="80" as="targetPoint" />
          </mxGeometry>
        </mxCell>
        <mxCell id="zghtrdZSJm3pvbIgBXX0-150" value="" style="endArrow=none;html=1;rounded=0;strokeWidth=2;" parent="zghtrdZSJm3pvbIgBXX0-147" edge="1">
          <mxGeometry width="50" height="50" relative="1" as="geometry">
            <mxPoint x="5" y="15" as="sourcePoint" />
            <mxPoint x="25" y="15" as="targetPoint" />
          </mxGeometry>
        </mxCell>
        <mxCell id="zghtrdZSJm3pvbIgBXX0-151" value="" style="endArrow=none;html=1;rounded=0;strokeWidth=2;" parent="zghtrdZSJm3pvbIgBXX0-147" edge="1">
          <mxGeometry width="50" height="50" relative="1" as="geometry">
            <mxPoint x="5" y="35" as="sourcePoint" />
            <mxPoint x="25" y="35" as="targetPoint" />
          </mxGeometry>
        </mxCell>
        <mxCell id="zghtrdZSJm3pvbIgBXX0-152" value="" style="group" parent="1" vertex="1" connectable="0">
          <mxGeometry x="210" y="990" width="50" height="50" as="geometry" />
        </mxCell>
        <mxCell id="zghtrdZSJm3pvbIgBXX0-153" value="" style="group" parent="zghtrdZSJm3pvbIgBXX0-152" vertex="1" connectable="0">
          <mxGeometry width="50" height="50" as="geometry" />
        </mxCell>
        <mxCell id="zghtrdZSJm3pvbIgBXX0-154" value="" style="rounded=1;whiteSpace=wrap;html=1;strokeWidth=2;" parent="zghtrdZSJm3pvbIgBXX0-153" vertex="1">
          <mxGeometry width="50" height="50" as="geometry" />
        </mxCell>
        <mxCell id="zghtrdZSJm3pvbIgBXX0-155" value="" style="endArrow=none;html=1;rounded=0;exitX=0;exitY=0.5;exitDx=0;exitDy=0;entryX=1;entryY=0.5;entryDx=0;entryDy=0;strokeWidth=2;" parent="zghtrdZSJm3pvbIgBXX0-153" source="zghtrdZSJm3pvbIgBXX0-154" target="zghtrdZSJm3pvbIgBXX0-154" edge="1">
          <mxGeometry width="50" height="50" relative="1" as="geometry">
            <mxPoint x="30" y="50" as="sourcePoint" />
            <mxPoint x="80" as="targetPoint" />
          </mxGeometry>
        </mxCell>
        <mxCell id="zghtrdZSJm3pvbIgBXX0-156" value="" style="endArrow=none;html=1;rounded=0;strokeWidth=2;" parent="zghtrdZSJm3pvbIgBXX0-153" edge="1">
          <mxGeometry width="50" height="50" relative="1" as="geometry">
            <mxPoint x="5" y="15" as="sourcePoint" />
            <mxPoint x="25" y="15" as="targetPoint" />
          </mxGeometry>
        </mxCell>
        <mxCell id="zghtrdZSJm3pvbIgBXX0-157" value="" style="endArrow=none;html=1;rounded=0;strokeWidth=2;" parent="zghtrdZSJm3pvbIgBXX0-153" edge="1">
          <mxGeometry width="50" height="50" relative="1" as="geometry">
            <mxPoint x="5" y="35" as="sourcePoint" />
            <mxPoint x="25" y="35" as="targetPoint" />
          </mxGeometry>
        </mxCell>
        <mxCell id="zghtrdZSJm3pvbIgBXX0-158" value="Пользователь" style="sketch=0;outlineConnect=0;fontColor=#232F3E;gradientColor=none;strokeColor=#232F3E;fillColor=#ffffff;dashed=0;verticalLabelPosition=bottom;verticalAlign=top;align=center;html=1;fontSize=14;fontStyle=1;aspect=fixed;shape=mxgraph.aws4.resourceIcon;resIcon=mxgraph.aws4.user;" parent="1" vertex="1">
          <mxGeometry x="420" y="790" width="50" height="50" as="geometry" />
        </mxCell>
        <mxCell id="zghtrdZSJm3pvbIgBXX0-159" value="" style="endArrow=classic;startArrow=classic;html=1;rounded=0;strokeWidth=2;exitX=0.5;exitY=0;exitDx=0;exitDy=0;" parent="1" source="zghtrdZSJm3pvbIgBXX0-121" edge="1">
          <mxGeometry width="50" height="50" relative="1" as="geometry">
            <mxPoint x="490" y="910" as="sourcePoint" />
            <mxPoint x="445" y="870" as="targetPoint" />
          </mxGeometry>
        </mxCell>
        <mxCell id="zghtrdZSJm3pvbIgBXX0-160" style="rounded=1;orthogonalLoop=1;jettySize=auto;html=1;strokeWidth=2;spacing=0;exitX=0.019;exitY=0.397;exitDx=0;exitDy=0;jumpSize=6;edgeStyle=orthogonalEdgeStyle;entryX=1;entryY=0.5;entryDx=0;entryDy=0;exitPerimeter=0;" parent="1" source="zghtrdZSJm3pvbIgBXX0-173" target="zghtrdZSJm3pvbIgBXX0-121" edge="1">
          <mxGeometry relative="1" as="geometry">
            <mxPoint x="530" y="980" as="targetPoint" />
            <mxPoint x="590" y="910" as="sourcePoint" />
            <Array as="points">
              <mxPoint x="510" y="945" />
              <mxPoint x="510" y="980" />
            </Array>
          </mxGeometry>
        </mxCell>
        <mxCell id="zghtrdZSJm3pvbIgBXX0-161" value="ODBC**/JDBC***" style="edgeLabel;html=1;align=center;verticalAlign=top;resizable=0;points=[];" parent="zghtrdZSJm3pvbIgBXX0-160" vertex="1" connectable="0">
          <mxGeometry x="0.43" relative="1" as="geometry">
            <mxPoint x="50" y="-25" as="offset" />
          </mxGeometry>
        </mxCell>
        <mxCell id="zghtrdZSJm3pvbIgBXX0-162" value="Native Client*" style="edgeLabel;html=1;align=center;verticalAlign=bottom;resizable=0;points=[];rotation=0;" parent="zghtrdZSJm3pvbIgBXX0-160" vertex="1" connectable="0">
          <mxGeometry x="0.43" relative="1" as="geometry">
            <mxPoint x="50" y="-23" as="offset" />
          </mxGeometry>
        </mxCell>
        <mxCell id="zghtrdZSJm3pvbIgBXX0-163" value="" style="html=1;verticalLabelPosition=bottom;align=center;labelBackgroundColor=#ffffff;verticalAlign=top;strokeWidth=2;strokeColor=#000000;shadow=0;dashed=0;shape=mxgraph.ios7.icons.data;" parent="1" vertex="1">
          <mxGeometry x="638" y="920" width="45" height="50" as="geometry" />
        </mxCell>
        <mxCell id="zghtrdZSJm3pvbIgBXX0-164" style="rounded=1;orthogonalLoop=1;jettySize=auto;html=1;strokeWidth=2;entryX=1;entryY=0.5;entryDx=0;entryDy=0;edgeStyle=orthogonalEdgeStyle;exitX=-0.003;exitY=0.672;exitDx=0;exitDy=0;exitPerimeter=0;" parent="1" source="zghtrdZSJm3pvbIgBXX0-173" target="zghtrdZSJm3pvbIgBXX0-121" edge="1">
          <mxGeometry relative="1" as="geometry">
            <mxPoint x="490" y="980" as="targetPoint" />
            <Array as="points">
              <mxPoint x="560" y="1011" />
              <mxPoint x="510" y="1012" />
              <mxPoint x="510" y="980" />
            </Array>
            <mxPoint x="560" y="1030" as="sourcePoint" />
          </mxGeometry>
        </mxCell>
        <mxCell id="zghtrdZSJm3pvbIgBXX0-165" value="CSV/XLSL" style="edgeLabel;html=1;align=center;verticalAlign=bottom;resizable=0;points=[];" parent="zghtrdZSJm3pvbIgBXX0-164" vertex="1" connectable="0">
          <mxGeometry x="0.6" relative="1" as="geometry">
            <mxPoint x="51" y="29" as="offset" />
          </mxGeometry>
        </mxCell>
        <mxCell id="zghtrdZSJm3pvbIgBXX0-166" value="" style="shape=image;html=1;verticalAlign=top;verticalLabelPosition=bottom;labelBackgroundColor=#ffffff;imageAspect=0;aspect=fixed;image=https://cdn0.iconfinder.com/data/icons/phosphor-thin-vol-3/256/microsoft-excel-logo-thin-128.png;container=0;" parent="1" vertex="1">
          <mxGeometry x="630.5" y="981" width="59" height="59" as="geometry" />
        </mxCell>
        <mxCell id="zghtrdZSJm3pvbIgBXX0-168" value="" style="group" parent="1" vertex="1" connectable="0">
          <mxGeometry x="420" y="955" width="50" height="50" as="geometry" />
        </mxCell>
        <mxCell id="zghtrdZSJm3pvbIgBXX0-169" value="Master-узел" style="rounded=1;whiteSpace=wrap;html=1;strokeWidth=2;labelPosition=center;verticalLabelPosition=bottom;align=center;verticalAlign=top;fontSize=14;fontStyle=1" parent="zghtrdZSJm3pvbIgBXX0-168" vertex="1">
          <mxGeometry width="50" height="50" as="geometry" />
        </mxCell>
        <mxCell id="zghtrdZSJm3pvbIgBXX0-170" value="" style="endArrow=none;html=1;rounded=0;exitX=0;exitY=0.5;exitDx=0;exitDy=0;entryX=1;entryY=0.5;entryDx=0;entryDy=0;strokeWidth=2;elbow=vertical;" parent="zghtrdZSJm3pvbIgBXX0-168" source="zghtrdZSJm3pvbIgBXX0-169" target="zghtrdZSJm3pvbIgBXX0-169" edge="1">
          <mxGeometry width="50" height="50" relative="1" as="geometry">
            <mxPoint x="30" y="50" as="sourcePoint" />
            <mxPoint x="80" as="targetPoint" />
          </mxGeometry>
        </mxCell>
        <mxCell id="zghtrdZSJm3pvbIgBXX0-171" value="" style="endArrow=none;html=1;rounded=0;strokeWidth=2;" parent="zghtrdZSJm3pvbIgBXX0-168" edge="1">
          <mxGeometry width="50" height="50" relative="1" as="geometry">
            <mxPoint x="5" y="15" as="sourcePoint" />
            <mxPoint x="25" y="15" as="targetPoint" />
          </mxGeometry>
        </mxCell>
        <mxCell id="zghtrdZSJm3pvbIgBXX0-172" value="" style="endArrow=none;html=1;rounded=0;strokeWidth=2;" parent="zghtrdZSJm3pvbIgBXX0-168" edge="1">
          <mxGeometry width="50" height="50" relative="1" as="geometry">
            <mxPoint x="5" y="35" as="sourcePoint" />
            <mxPoint x="25" y="35" as="targetPoint" />
          </mxGeometry>
        </mxCell>
        <mxCell id="zghtrdZSJm3pvbIgBXX0-173" value="" style="rounded=0;whiteSpace=wrap;html=1;strokeColor=none;opacity=0;" parent="1" vertex="1">
          <mxGeometry x="600" y="850" width="120" height="240" as="geometry" />
        </mxCell>
        <mxCell id="zghtrdZSJm3pvbIgBXX0-174" value="&lt;b&gt;*Native Client:&lt;/b&gt;&amp;nbsp;&lt;span style=&quot;background-color: transparent; color: light-dark(rgb(0, 0, 0), rgb(255, 255, 255));&quot;&gt;MS SQL,&amp;nbsp;&lt;/span&gt;&lt;span style=&quot;background-color: transparent; color: light-dark(rgb(0, 0, 0), rgb(255, 255, 255));&quot;&gt;MySQL,&amp;nbsp;&lt;/span&gt;&lt;span style=&quot;background-color: transparent; color: light-dark(rgb(0, 0, 0), rgb(255, 255, 255));&quot;&gt;PostgreSQL&lt;/span&gt;&lt;div&gt;&lt;span style=&quot;background-color: transparent; color: light-dark(rgb(0, 0, 0), rgb(255, 255, 255));&quot;&gt;&lt;b&gt;**ODBC:&lt;/b&gt; Hive, Vertica&lt;/span&gt;&lt;/div&gt;&lt;div&gt;&lt;span style=&quot;color: light-dark(rgb(0, 0, 0), rgb(255, 255, 255)); background-color: transparent;&quot;&gt;&lt;b&gt;***JDBC:&lt;/b&gt;&amp;nbsp;&lt;/span&gt;&lt;span style=&quot;color: light-dark(rgb(0, 0, 0), rgb(255, 255, 255)); background-color: transparent;&quot;&gt;MS SQL,&amp;nbsp;&lt;/span&gt;&lt;span style=&quot;color: light-dark(rgb(0, 0, 0), rgb(255, 255, 255)); background-color: transparent;&quot;&gt;MySQL,&amp;nbsp;&lt;/span&gt;&lt;span style=&quot;color: light-dark(rgb(0, 0, 0), rgb(255, 255, 255)); background-color: transparent;&quot;&gt;PostgreSQL, Hive, Vertica, ClickHouse, Teradata&lt;/span&gt;&lt;span style=&quot;background-color: transparent; color: light-dark(rgb(0, 0, 0), rgb(255, 255, 255));&quot;&gt;&lt;/span&gt;&lt;/div&gt;" style="text;html=1;align=left;verticalAlign=top;whiteSpace=wrap;rounded=0;fontSize=10;" parent="1" vertex="1">
          <mxGeometry x="40" y="1070" width="660" height="50" as="geometry" />
        </mxCell>
        <mxCell id="zghtrdZSJm3pvbIgBXX0-177" value="Источники&amp;nbsp;&lt;div&gt;данных&lt;/div&gt;" style="rounded=1;whiteSpace=wrap;html=1;strokeWidth=2;strokeColor=#0000FF;verticalAlign=top;fontSize=18;fontStyle=1" parent="1" vertex="1">
          <mxGeometry x="920" y="1250" width="140" height="300" as="geometry" />
        </mxCell>
        <mxCell id="zghtrdZSJm3pvbIgBXX0-178" value="" style="rounded=0;whiteSpace=wrap;html=1;strokeColor=none;opacity=0;" parent="1" vertex="1">
          <mxGeometry x="30" y="1250" width="410" height="320" as="geometry" />
        </mxCell>
        <mxCell id="zghtrdZSJm3pvbIgBXX0-179" style="edgeStyle=orthogonalEdgeStyle;rounded=0;orthogonalLoop=1;jettySize=auto;html=1;exitX=0;exitY=0.5;exitDx=0;exitDy=0;entryX=1;entryY=0.5;entryDx=0;entryDy=0;startArrow=classic;startFill=1;strokeWidth=2;" parent="1" source="zghtrdZSJm3pvbIgBXX0-176" target="zghtrdZSJm3pvbIgBXX0-178" edge="1">
          <mxGeometry relative="1" as="geometry" />
        </mxCell>
        <mxCell id="zghtrdZSJm3pvbIgBXX0-180" value="Slave-узлы" style="rounded=1;whiteSpace=wrap;html=1;strokeWidth=2;strokeColor=#0000FF;verticalAlign=top;fontSize=18;fontStyle=1;spacingTop=10;" parent="1" vertex="1">
          <mxGeometry x="40" y="1250" width="390" height="300" as="geometry" />
        </mxCell>
        <mxCell id="zghtrdZSJm3pvbIgBXX0-181" value="" style="group" parent="1" vertex="1" connectable="0">
          <mxGeometry x="60" y="1310" width="100" height="100" as="geometry" />
        </mxCell>
        <mxCell id="zghtrdZSJm3pvbIgBXX0-235" value="" style="group" parent="zghtrdZSJm3pvbIgBXX0-181" vertex="1" connectable="0">
          <mxGeometry width="100" height="100" as="geometry" />
        </mxCell>
        <mxCell id="zghtrdZSJm3pvbIgBXX0-182" value="" style="rounded=1;whiteSpace=wrap;html=1;strokeWidth=2;" parent="zghtrdZSJm3pvbIgBXX0-235" vertex="1">
          <mxGeometry width="100" height="100" as="geometry" />
        </mxCell>
        <mxCell id="zghtrdZSJm3pvbIgBXX0-183" value="" style="endArrow=none;html=1;rounded=0;exitX=0;exitY=0.5;exitDx=0;exitDy=0;entryX=1;entryY=0.5;entryDx=0;entryDy=0;strokeWidth=2;" parent="zghtrdZSJm3pvbIgBXX0-235" source="zghtrdZSJm3pvbIgBXX0-182" target="zghtrdZSJm3pvbIgBXX0-182" edge="1">
          <mxGeometry width="50" height="50" relative="1" as="geometry">
            <mxPoint x="52.5" y="87.5" as="sourcePoint" />
            <mxPoint x="140" as="targetPoint" />
          </mxGeometry>
        </mxCell>
        <mxCell id="zghtrdZSJm3pvbIgBXX0-184" value="" style="endArrow=none;html=1;rounded=0;strokeWidth=2;" parent="zghtrdZSJm3pvbIgBXX0-235" edge="1">
          <mxGeometry width="50" height="50" relative="1" as="geometry">
            <mxPoint x="8.75" y="26.25" as="sourcePoint" />
            <mxPoint x="43.75" y="26.25" as="targetPoint" />
          </mxGeometry>
        </mxCell>
        <mxCell id="zghtrdZSJm3pvbIgBXX0-185" value="" style="endArrow=none;html=1;rounded=0;strokeWidth=2;" parent="zghtrdZSJm3pvbIgBXX0-235" edge="1">
          <mxGeometry width="50" height="50" relative="1" as="geometry">
            <mxPoint x="8.75" y="61.25" as="sourcePoint" />
            <mxPoint x="43.75" y="61.25" as="targetPoint" />
          </mxGeometry>
        </mxCell>
        <mxCell id="zghtrdZSJm3pvbIgBXX0-186" value="" style="group" parent="1" vertex="1" connectable="0">
          <mxGeometry x="185" y="1310" width="100" height="100" as="geometry" />
        </mxCell>
        <mxCell id="zghtrdZSJm3pvbIgBXX0-236" value="" style="group" parent="zghtrdZSJm3pvbIgBXX0-186" vertex="1" connectable="0">
          <mxGeometry width="100" height="100" as="geometry" />
        </mxCell>
        <mxCell id="zghtrdZSJm3pvbIgBXX0-187" value="" style="rounded=1;whiteSpace=wrap;html=1;strokeWidth=2;" parent="zghtrdZSJm3pvbIgBXX0-236" vertex="1">
          <mxGeometry width="100" height="100" as="geometry" />
        </mxCell>
        <mxCell id="zghtrdZSJm3pvbIgBXX0-188" value="" style="endArrow=none;html=1;rounded=0;exitX=0;exitY=0.5;exitDx=0;exitDy=0;entryX=1;entryY=0.5;entryDx=0;entryDy=0;strokeWidth=2;" parent="zghtrdZSJm3pvbIgBXX0-236" source="zghtrdZSJm3pvbIgBXX0-187" target="zghtrdZSJm3pvbIgBXX0-187" edge="1">
          <mxGeometry width="50" height="50" relative="1" as="geometry">
            <mxPoint x="42.857142857142854" y="71.42857142857142" as="sourcePoint" />
            <mxPoint x="114.28571428571428" as="targetPoint" />
          </mxGeometry>
        </mxCell>
        <mxCell id="zghtrdZSJm3pvbIgBXX0-189" value="" style="endArrow=none;html=1;rounded=0;strokeWidth=2;" parent="zghtrdZSJm3pvbIgBXX0-236" edge="1">
          <mxGeometry width="50" height="50" relative="1" as="geometry">
            <mxPoint x="7.142857142857142" y="21.428571428571427" as="sourcePoint" />
            <mxPoint x="35.71428571428571" y="21.428571428571427" as="targetPoint" />
          </mxGeometry>
        </mxCell>
        <mxCell id="zghtrdZSJm3pvbIgBXX0-190" value="" style="endArrow=none;html=1;rounded=0;strokeWidth=2;" parent="zghtrdZSJm3pvbIgBXX0-236" edge="1">
          <mxGeometry width="50" height="50" relative="1" as="geometry">
            <mxPoint x="7.142857142857142" y="70" as="sourcePoint" />
            <mxPoint x="35.71428571428571" y="70" as="targetPoint" />
          </mxGeometry>
        </mxCell>
        <mxCell id="zghtrdZSJm3pvbIgBXX0-191" value="" style="group" parent="1" vertex="1" connectable="0">
          <mxGeometry x="310" y="1310" width="100" height="100" as="geometry" />
        </mxCell>
        <mxCell id="zghtrdZSJm3pvbIgBXX0-234" value="" style="group" parent="zghtrdZSJm3pvbIgBXX0-191" vertex="1" connectable="0">
          <mxGeometry width="100" height="100" as="geometry" />
        </mxCell>
        <mxCell id="zghtrdZSJm3pvbIgBXX0-192" value="" style="rounded=1;whiteSpace=wrap;html=1;strokeWidth=2;" parent="zghtrdZSJm3pvbIgBXX0-234" vertex="1">
          <mxGeometry width="100" height="100" as="geometry" />
        </mxCell>
        <mxCell id="zghtrdZSJm3pvbIgBXX0-193" value="" style="endArrow=none;html=1;rounded=0;exitX=0;exitY=0.5;exitDx=0;exitDy=0;entryX=1;entryY=0.5;entryDx=0;entryDy=0;strokeWidth=2;" parent="zghtrdZSJm3pvbIgBXX0-234" source="zghtrdZSJm3pvbIgBXX0-192" target="zghtrdZSJm3pvbIgBXX0-192" edge="1">
          <mxGeometry width="50" height="50" relative="1" as="geometry">
            <mxPoint x="52.5" y="87.5" as="sourcePoint" />
            <mxPoint x="140" as="targetPoint" />
          </mxGeometry>
        </mxCell>
        <mxCell id="zghtrdZSJm3pvbIgBXX0-194" value="" style="endArrow=none;html=1;rounded=0;strokeWidth=2;" parent="zghtrdZSJm3pvbIgBXX0-234" edge="1">
          <mxGeometry width="50" height="50" relative="1" as="geometry">
            <mxPoint x="8.75" y="26.25" as="sourcePoint" />
            <mxPoint x="43.75" y="26.25" as="targetPoint" />
          </mxGeometry>
        </mxCell>
        <mxCell id="zghtrdZSJm3pvbIgBXX0-195" value="" style="endArrow=none;html=1;rounded=0;strokeWidth=2;" parent="zghtrdZSJm3pvbIgBXX0-234" edge="1">
          <mxGeometry width="50" height="50" relative="1" as="geometry">
            <mxPoint x="8.75" y="61.25" as="sourcePoint" />
            <mxPoint x="43.75" y="61.25" as="targetPoint" />
          </mxGeometry>
        </mxCell>
        <mxCell id="zghtrdZSJm3pvbIgBXX0-196" value="" style="group" parent="1" vertex="1" connectable="0">
          <mxGeometry x="60" y="1425" width="100" height="100" as="geometry" />
        </mxCell>
        <mxCell id="zghtrdZSJm3pvbIgBXX0-228" value="" style="group" parent="zghtrdZSJm3pvbIgBXX0-196" vertex="1" connectable="0">
          <mxGeometry width="100" height="99.99999999999999" as="geometry" />
        </mxCell>
        <mxCell id="zghtrdZSJm3pvbIgBXX0-197" value="" style="rounded=1;whiteSpace=wrap;html=1;strokeWidth=2;" parent="zghtrdZSJm3pvbIgBXX0-228" vertex="1">
          <mxGeometry width="100" height="99.99999999999999" as="geometry" />
        </mxCell>
        <mxCell id="zghtrdZSJm3pvbIgBXX0-198" value="" style="endArrow=none;html=1;rounded=0;exitX=0;exitY=0.5;exitDx=0;exitDy=0;entryX=1;entryY=0.5;entryDx=0;entryDy=0;strokeWidth=2;" parent="zghtrdZSJm3pvbIgBXX0-228" source="zghtrdZSJm3pvbIgBXX0-197" target="zghtrdZSJm3pvbIgBXX0-197" edge="1">
          <mxGeometry width="50" height="50" relative="1" as="geometry">
            <mxPoint x="60.00000000000001" y="99.99999999999999" as="sourcePoint" />
            <mxPoint x="160" as="targetPoint" />
          </mxGeometry>
        </mxCell>
        <mxCell id="zghtrdZSJm3pvbIgBXX0-199" value="" style="endArrow=none;html=1;rounded=0;strokeWidth=2;" parent="zghtrdZSJm3pvbIgBXX0-228" edge="1">
          <mxGeometry width="50" height="50" relative="1" as="geometry">
            <mxPoint x="10" y="30.000000000000004" as="sourcePoint" />
            <mxPoint x="50" y="30.000000000000004" as="targetPoint" />
          </mxGeometry>
        </mxCell>
        <mxCell id="zghtrdZSJm3pvbIgBXX0-200" value="" style="endArrow=none;html=1;rounded=0;strokeWidth=2;" parent="zghtrdZSJm3pvbIgBXX0-228" edge="1">
          <mxGeometry width="50" height="50" relative="1" as="geometry">
            <mxPoint x="10" y="70.00000000000001" as="sourcePoint" />
            <mxPoint x="50" y="70.00000000000001" as="targetPoint" />
          </mxGeometry>
        </mxCell>
        <mxCell id="zghtrdZSJm3pvbIgBXX0-206" value="" style="group" parent="1" vertex="1" connectable="0">
          <mxGeometry x="310" y="1425" width="100" height="100" as="geometry" />
        </mxCell>
        <mxCell id="zghtrdZSJm3pvbIgBXX0-207" value="" style="group" parent="zghtrdZSJm3pvbIgBXX0-206" vertex="1" connectable="0">
          <mxGeometry width="100" height="100" as="geometry" />
        </mxCell>
        <mxCell id="zghtrdZSJm3pvbIgBXX0-231" value="" style="group" parent="zghtrdZSJm3pvbIgBXX0-207" vertex="1" connectable="0">
          <mxGeometry width="100" height="100" as="geometry" />
        </mxCell>
        <mxCell id="zghtrdZSJm3pvbIgBXX0-208" value="" style="rounded=1;whiteSpace=wrap;html=1;strokeWidth=2;" parent="zghtrdZSJm3pvbIgBXX0-231" vertex="1">
          <mxGeometry width="100" height="100" as="geometry" />
        </mxCell>
        <mxCell id="zghtrdZSJm3pvbIgBXX0-209" value="" style="endArrow=none;html=1;rounded=0;exitX=0;exitY=0.5;exitDx=0;exitDy=0;entryX=1;entryY=0.5;entryDx=0;entryDy=0;strokeWidth=2;" parent="zghtrdZSJm3pvbIgBXX0-231" source="zghtrdZSJm3pvbIgBXX0-208" target="zghtrdZSJm3pvbIgBXX0-208" edge="1">
          <mxGeometry width="50" height="50" relative="1" as="geometry">
            <mxPoint x="60.00000000000001" y="100" as="sourcePoint" />
            <mxPoint x="160" as="targetPoint" />
          </mxGeometry>
        </mxCell>
        <mxCell id="zghtrdZSJm3pvbIgBXX0-210" value="" style="endArrow=none;html=1;rounded=0;strokeWidth=2;" parent="zghtrdZSJm3pvbIgBXX0-231" edge="1">
          <mxGeometry width="50" height="50" relative="1" as="geometry">
            <mxPoint x="10" y="30.000000000000004" as="sourcePoint" />
            <mxPoint x="50" y="30.000000000000004" as="targetPoint" />
          </mxGeometry>
        </mxCell>
        <mxCell id="zghtrdZSJm3pvbIgBXX0-211" value="" style="endArrow=none;html=1;rounded=0;strokeWidth=2;" parent="zghtrdZSJm3pvbIgBXX0-231" edge="1">
          <mxGeometry width="50" height="50" relative="1" as="geometry">
            <mxPoint x="10" y="70" as="sourcePoint" />
            <mxPoint x="50" y="70" as="targetPoint" />
          </mxGeometry>
        </mxCell>
        <mxCell id="zghtrdZSJm3pvbIgBXX0-212" value="Пользователь" style="sketch=0;outlineConnect=0;fontColor=#232F3E;gradientColor=none;strokeColor=#232F3E;fillColor=#ffffff;dashed=0;verticalLabelPosition=bottom;verticalAlign=top;align=center;html=1;fontSize=14;fontStyle=1;aspect=fixed;shape=mxgraph.aws4.resourceIcon;resIcon=mxgraph.aws4.user;" parent="1" vertex="1">
          <mxGeometry x="610" y="1120" width="100" height="100" as="geometry" />
        </mxCell>
        <mxCell id="zghtrdZSJm3pvbIgBXX0-213" value="" style="endArrow=classic;startArrow=classic;html=1;rounded=0;strokeWidth=2;exitX=0.5;exitY=0;exitDx=0;exitDy=0;entryX=0.5;entryY=1;entryDx=0;entryDy=0;" parent="1" source="zghtrdZSJm3pvbIgBXX0-176" edge="1" target="r2AK_g9CTLc91CSiZ3bf-2">
          <mxGeometry width="50" height="50" relative="1" as="geometry">
            <mxPoint x="700" y="1300" as="sourcePoint" />
            <mxPoint x="655" y="1260" as="targetPoint" />
          </mxGeometry>
        </mxCell>
        <mxCell id="zghtrdZSJm3pvbIgBXX0-214" style="rounded=1;orthogonalLoop=1;jettySize=auto;html=1;strokeWidth=2;spacing=0;jumpSize=6;entryX=1;entryY=0.5;entryDx=0;entryDy=0;edgeStyle=orthogonalEdgeStyle;exitX=-0.01;exitY=0.339;exitDx=0;exitDy=0;exitPerimeter=0;" parent="1" source="zghtrdZSJm3pvbIgBXX0-226" target="zghtrdZSJm3pvbIgBXX0-176" edge="1">
          <mxGeometry relative="1" as="geometry">
            <mxPoint x="740" y="1370" as="targetPoint" />
            <mxPoint x="890" y="1359" as="sourcePoint" />
            <Array as="points">
              <mxPoint x="750" y="1359" />
              <mxPoint x="750" y="1410" />
            </Array>
          </mxGeometry>
        </mxCell>
        <mxCell id="zghtrdZSJm3pvbIgBXX0-215" value="ODBC**/JDBC***" style="edgeLabel;html=1;align=center;verticalAlign=top;resizable=0;points=[];fontSize=14;" parent="zghtrdZSJm3pvbIgBXX0-214" vertex="1" connectable="0">
          <mxGeometry x="0.43" relative="1" as="geometry">
            <mxPoint x="80" y="-17" as="offset" />
          </mxGeometry>
        </mxCell>
        <mxCell id="zghtrdZSJm3pvbIgBXX0-216" value="Native Client*" style="edgeLabel;html=1;align=center;verticalAlign=bottom;resizable=0;points=[];rotation=0;fontSize=14;" parent="zghtrdZSJm3pvbIgBXX0-214" vertex="1" connectable="0">
          <mxGeometry x="0.43" relative="1" as="geometry">
            <mxPoint x="80" y="-15" as="offset" />
          </mxGeometry>
        </mxCell>
        <mxCell id="zghtrdZSJm3pvbIgBXX0-217" value="" style="html=1;verticalLabelPosition=bottom;align=center;labelBackgroundColor=#ffffff;verticalAlign=top;strokeWidth=2;strokeColor=#000000;shadow=0;dashed=0;shape=mxgraph.ios7.icons.data;" parent="1" vertex="1">
          <mxGeometry x="940.5" y="1310" width="100" height="100" as="geometry" />
        </mxCell>
        <mxCell id="zghtrdZSJm3pvbIgBXX0-218" style="rounded=1;orthogonalLoop=1;jettySize=auto;html=1;strokeWidth=2;entryX=1;entryY=0.5;entryDx=0;entryDy=0;edgeStyle=orthogonalEdgeStyle;exitX=0.005;exitY=0.689;exitDx=0;exitDy=0;exitPerimeter=0;" parent="1" source="zghtrdZSJm3pvbIgBXX0-226" target="zghtrdZSJm3pvbIgBXX0-176" edge="1">
          <mxGeometry relative="1" as="geometry">
            <mxPoint x="700" y="1370" as="targetPoint" />
            <Array as="points">
              <mxPoint x="750" y="1471" />
              <mxPoint x="750" y="1410" />
            </Array>
            <mxPoint x="900" y="1471" as="sourcePoint" />
          </mxGeometry>
        </mxCell>
        <mxCell id="zghtrdZSJm3pvbIgBXX0-219" value="CSV/XLSL" style="edgeLabel;html=1;align=center;verticalAlign=bottom;resizable=0;points=[];fontSize=14;" parent="zghtrdZSJm3pvbIgBXX0-218" vertex="1" connectable="0">
          <mxGeometry x="0.6" relative="1" as="geometry">
            <mxPoint x="80" y="40" as="offset" />
          </mxGeometry>
        </mxCell>
        <mxCell id="zghtrdZSJm3pvbIgBXX0-220" value="" style="shape=image;html=1;verticalAlign=top;verticalLabelPosition=bottom;labelBackgroundColor=#ffffff;imageAspect=0;aspect=fixed;image=https://cdn0.iconfinder.com/data/icons/phosphor-thin-vol-3/256/microsoft-excel-logo-thin-128.png;container=0;" parent="1" vertex="1">
          <mxGeometry x="930" y="1425" width="115" height="115" as="geometry" />
        </mxCell>
        <mxCell id="zghtrdZSJm3pvbIgBXX0-221" value="" style="group;fontSize=15;" parent="1" vertex="1" connectable="0">
          <mxGeometry x="620" y="1370" width="90" height="130" as="geometry" />
        </mxCell>
        <mxCell id="zghtrdZSJm3pvbIgBXX0-222" value="Master-узел" style="rounded=1;whiteSpace=wrap;html=1;strokeWidth=2;labelPosition=center;verticalLabelPosition=bottom;align=center;verticalAlign=top;fontSize=14;fontStyle=1" parent="zghtrdZSJm3pvbIgBXX0-221" vertex="1">
          <mxGeometry x="-10" y="-10" width="100" height="100" as="geometry" />
        </mxCell>
        <mxCell id="zghtrdZSJm3pvbIgBXX0-223" value="" style="endArrow=none;html=1;rounded=0;exitX=0;exitY=0.5;exitDx=0;exitDy=0;entryX=1;entryY=0.5;entryDx=0;entryDy=0;strokeWidth=2;elbow=vertical;" parent="zghtrdZSJm3pvbIgBXX0-221" source="zghtrdZSJm3pvbIgBXX0-222" target="zghtrdZSJm3pvbIgBXX0-222" edge="1">
          <mxGeometry width="50" height="50" relative="1" as="geometry">
            <mxPoint x="42" y="70" as="sourcePoint" />
            <mxPoint x="112" as="targetPoint" />
          </mxGeometry>
        </mxCell>
        <mxCell id="zghtrdZSJm3pvbIgBXX0-224" value="" style="endArrow=none;html=1;rounded=0;strokeWidth=2;" parent="zghtrdZSJm3pvbIgBXX0-221" edge="1">
          <mxGeometry width="50" height="50" relative="1" as="geometry">
            <mxPoint x="7" y="21" as="sourcePoint" />
            <mxPoint x="35" y="21" as="targetPoint" />
          </mxGeometry>
        </mxCell>
        <mxCell id="zghtrdZSJm3pvbIgBXX0-225" value="" style="endArrow=none;html=1;rounded=0;strokeWidth=2;" parent="zghtrdZSJm3pvbIgBXX0-221" edge="1">
          <mxGeometry width="50" height="50" relative="1" as="geometry">
            <mxPoint x="7" y="49" as="sourcePoint" />
            <mxPoint x="35" y="49" as="targetPoint" />
          </mxGeometry>
        </mxCell>
        <mxCell id="zghtrdZSJm3pvbIgBXX0-227" value="&lt;b&gt;*Native Client:&lt;/b&gt;&amp;nbsp;&lt;span style=&quot;background-color: transparent; color: light-dark(rgb(0, 0, 0), rgb(255, 255, 255));&quot;&gt;MS SQL,&amp;nbsp;&lt;/span&gt;&lt;span style=&quot;background-color: transparent; color: light-dark(rgb(0, 0, 0), rgb(255, 255, 255));&quot;&gt;MySQL,&amp;nbsp;&lt;/span&gt;&lt;span style=&quot;background-color: transparent; color: light-dark(rgb(0, 0, 0), rgb(255, 255, 255));&quot;&gt;PostgreSQL&lt;/span&gt;&lt;div&gt;&lt;span style=&quot;background-color: transparent; color: light-dark(rgb(0, 0, 0), rgb(255, 255, 255));&quot;&gt;&lt;b&gt;**ODBC:&lt;/b&gt; Hive, Vertica&lt;/span&gt;&lt;/div&gt;&lt;div&gt;&lt;span style=&quot;color: light-dark(rgb(0, 0, 0), rgb(255, 255, 255)); background-color: transparent;&quot;&gt;&lt;b&gt;***JDBC:&lt;/b&gt;&amp;nbsp;&lt;/span&gt;&lt;span style=&quot;color: light-dark(rgb(0, 0, 0), rgb(255, 255, 255)); background-color: transparent;&quot;&gt;MS SQL,&amp;nbsp;&lt;/span&gt;&lt;span style=&quot;color: light-dark(rgb(0, 0, 0), rgb(255, 255, 255)); background-color: transparent;&quot;&gt;MySQL,&amp;nbsp;&lt;/span&gt;&lt;span style=&quot;color: light-dark(rgb(0, 0, 0), rgb(255, 255, 255)); background-color: transparent;&quot;&gt;PostgreSQL, Hive, Vertica, ClickHouse, Teradata&lt;/span&gt;&lt;span style=&quot;background-color: transparent; color: light-dark(rgb(0, 0, 0), rgb(255, 255, 255));&quot;&gt;&lt;/span&gt;&lt;/div&gt;" style="text;html=1;align=left;verticalAlign=top;whiteSpace=wrap;rounded=0;fontSize=14;" parent="1" vertex="1">
          <mxGeometry x="40" y="1570" width="660" height="60" as="geometry" />
        </mxCell>
        <mxCell id="zghtrdZSJm3pvbIgBXX0-237" value="" style="group" parent="1" vertex="1" connectable="0">
          <mxGeometry x="185" y="1425" width="100" height="100" as="geometry" />
        </mxCell>
        <mxCell id="zghtrdZSJm3pvbIgBXX0-202" value="" style="rounded=1;whiteSpace=wrap;html=1;strokeWidth=2;" parent="zghtrdZSJm3pvbIgBXX0-237" vertex="1">
          <mxGeometry width="99.99999999999999" height="100" as="geometry" />
        </mxCell>
        <mxCell id="zghtrdZSJm3pvbIgBXX0-203" value="" style="endArrow=none;html=1;rounded=0;exitX=0;exitY=0.5;exitDx=0;exitDy=0;entryX=1;entryY=0.5;entryDx=0;entryDy=0;strokeWidth=2;" parent="zghtrdZSJm3pvbIgBXX0-237" source="zghtrdZSJm3pvbIgBXX0-202" target="zghtrdZSJm3pvbIgBXX0-202" edge="1">
          <mxGeometry width="50" height="50" relative="1" as="geometry">
            <mxPoint x="60.00000000000001" y="100" as="sourcePoint" />
            <mxPoint x="160.00000000000003" as="targetPoint" />
          </mxGeometry>
        </mxCell>
        <mxCell id="zghtrdZSJm3pvbIgBXX0-204" value="" style="endArrow=none;html=1;rounded=0;strokeWidth=2;" parent="zghtrdZSJm3pvbIgBXX0-237" edge="1">
          <mxGeometry width="50" height="50" relative="1" as="geometry">
            <mxPoint x="10.000000000000002" y="30.000000000000004" as="sourcePoint" />
            <mxPoint x="49.99999999999999" y="30.000000000000004" as="targetPoint" />
          </mxGeometry>
        </mxCell>
        <mxCell id="zghtrdZSJm3pvbIgBXX0-205" value="" style="endArrow=none;html=1;rounded=0;strokeWidth=2;" parent="zghtrdZSJm3pvbIgBXX0-237" edge="1">
          <mxGeometry width="50" height="50" relative="1" as="geometry">
            <mxPoint x="10.000000000000002" y="70" as="sourcePoint" />
            <mxPoint x="49.99999999999999" y="70" as="targetPoint" />
          </mxGeometry>
        </mxCell>
      </root>
    </mxGraphModel>
  </diagram>
  <diagram id="ZiHy3cT17BOQsLi3uNpl" name="PD">
    <mxGraphModel dx="2074" dy="1140" grid="1" gridSize="10" guides="1" tooltips="1" connect="1" arrows="1" fold="1" page="1" pageScale="1" pageWidth="827" pageHeight="1169" math="0" shadow="0">
      <root>
        <mxCell id="0" />
        <mxCell id="1" parent="0" />
        <mxCell id="p6JzV3gUP_GWJPddPbTe-3" value="" style="rounded=1;whiteSpace=wrap;html=1;fillColor=#66B2FF;rotation=0;" vertex="1" parent="1">
          <mxGeometry x="640" y="520" width="150" height="220" as="geometry" />
        </mxCell>
        <mxCell id="p6JzV3gUP_GWJPddPbTe-4" value="" style="rounded=1;whiteSpace=wrap;html=1;rotation=0;" vertex="1" parent="1">
          <mxGeometry x="652.5" y="560" width="125" height="170" as="geometry" />
        </mxCell>
        <mxCell id="5t-zq_x8jgZp4Etx8RMX-1" value="" style="rounded=1;whiteSpace=wrap;html=1;fillColor=#66B2FF;" vertex="1" parent="1">
          <mxGeometry x="339" y="140" width="150" height="600" as="geometry" />
        </mxCell>
        <mxCell id="sU2ociRbS6ar2OP_EZ5i-1" value="" style="rounded=1;whiteSpace=wrap;html=1;rotation=0;" vertex="1" parent="1">
          <mxGeometry x="351.5" y="180" width="125" height="550" as="geometry" />
        </mxCell>
        <mxCell id="sU2ociRbS6ar2OP_EZ5i-5" value="" style="rounded=1;whiteSpace=wrap;html=1;fillColor=#66B2FF;" vertex="1" parent="1">
          <mxGeometry x="30" y="140" width="150" height="220" as="geometry" />
        </mxCell>
        <mxCell id="sU2ociRbS6ar2OP_EZ5i-6" value="" style="rounded=1;whiteSpace=wrap;html=1;" vertex="1" parent="1">
          <mxGeometry x="42.5" y="180" width="125" height="170" as="geometry" />
        </mxCell>
        <mxCell id="WtR9fKIHuIkYLFCNukh--1" style="edgeStyle=orthogonalEdgeStyle;rounded=1;orthogonalLoop=1;jettySize=auto;html=1;exitX=0;exitY=0.5;exitDx=0;exitDy=0;entryX=1;entryY=0.5;entryDx=0;entryDy=0;curved=0;" edge="1" parent="1" source="sU2ociRbS6ar2OP_EZ5i-8" target="sWYUQVAFVIdvqAlTgon5-5">
          <mxGeometry relative="1" as="geometry" />
        </mxCell>
        <mxCell id="EFSBWJI5PA5KtkKFh2MG-2" style="edgeStyle=orthogonalEdgeStyle;rounded=1;orthogonalLoop=1;jettySize=auto;html=1;exitX=1;exitY=0.5;exitDx=0;exitDy=0;entryX=0;entryY=0.5;entryDx=0;entryDy=0;curved=0;" edge="1" parent="1" source="sU2ociRbS6ar2OP_EZ5i-8" target="p6JzV3gUP_GWJPddPbTe-1">
          <mxGeometry relative="1" as="geometry" />
        </mxCell>
        <mxCell id="sU2ociRbS6ar2OP_EZ5i-8" value="Database" style="shape=datastore;whiteSpace=wrap;html=1;" vertex="1" parent="1">
          <mxGeometry x="379" y="225" width="70" height="70" as="geometry" />
        </mxCell>
        <mxCell id="sU2ociRbS6ar2OP_EZ5i-9" value="&lt;font color=&quot;#ffffff&quot; style=&quot;font-size: 14px; font-weight: normal;&quot;&gt;Источники данных&lt;/font&gt;" style="text;strokeColor=none;fillColor=none;html=1;fontSize=24;fontStyle=1;verticalAlign=middle;align=center;" vertex="1" parent="1">
          <mxGeometry x="342.75" y="145" width="130" height="30" as="geometry" />
        </mxCell>
        <mxCell id="sU2ociRbS6ar2OP_EZ5i-12" value="&lt;font color=&quot;#ffffff&quot;&gt;&lt;span style=&quot;font-size: 14px;&quot;&gt;Визуализация данных&lt;/span&gt;&lt;/font&gt;" style="text;html=1;align=center;verticalAlign=middle;whiteSpace=wrap;rounded=0;" vertex="1" parent="1">
          <mxGeometry x="60" y="145" width="90" height="30" as="geometry" />
        </mxCell>
        <mxCell id="sU2ociRbS6ar2OP_EZ5i-14" style="edgeStyle=orthogonalEdgeStyle;rounded=1;orthogonalLoop=1;jettySize=auto;html=1;exitX=1;exitY=0.5;exitDx=0;exitDy=0;entryX=0;entryY=0.5;entryDx=0;entryDy=0;curved=0;strokeColor=default;align=center;verticalAlign=middle;fontFamily=Helvetica;fontSize=11;fontColor=default;labelBackgroundColor=default;endArrow=classic;exitPerimeter=0;" edge="1" parent="1" source="sWYUQVAFVIdvqAlTgon5-1" target="p6JzV3gUP_GWJPddPbTe-1">
          <mxGeometry relative="1" as="geometry">
            <mxPoint x="130" y="400" as="sourcePoint" />
            <mxPoint x="350" y="400" as="targetPoint" />
          </mxGeometry>
        </mxCell>
        <mxCell id="WtR9fKIHuIkYLFCNukh--2" style="edgeStyle=orthogonalEdgeStyle;rounded=1;orthogonalLoop=1;jettySize=auto;html=1;exitX=0;exitY=0.5;exitDx=0;exitDy=0;entryX=1;entryY=0.5;entryDx=0;entryDy=0;curved=0;" edge="1" parent="1" source="u0x4Fsyacs7z1ms82_BT-1" target="sWYUQVAFVIdvqAlTgon5-5">
          <mxGeometry relative="1" as="geometry" />
        </mxCell>
        <mxCell id="EFSBWJI5PA5KtkKFh2MG-1" style="edgeStyle=orthogonalEdgeStyle;rounded=1;orthogonalLoop=1;jettySize=auto;html=1;exitX=1;exitY=0.5;exitDx=0;exitDy=0;entryX=0;entryY=0.5;entryDx=0;entryDy=0;curved=0;" edge="1" parent="1" source="u0x4Fsyacs7z1ms82_BT-1" target="p6JzV3gUP_GWJPddPbTe-1">
          <mxGeometry relative="1" as="geometry" />
        </mxCell>
        <mxCell id="u0x4Fsyacs7z1ms82_BT-1" value="Polymatica Analytics" style="shape=image;html=1;verticalAlign=top;verticalLabelPosition=bottom;labelBackgroundColor=#ffffff;imageAspect=0;aspect=fixed;image=https://cdn1.iconfinder.com/data/icons/seo-and-web-development-6/32/development_globe_sphere-128.png" vertex="1" parent="1">
          <mxGeometry x="379" y="365" width="70" height="70" as="geometry" />
        </mxCell>
        <mxCell id="sWYUQVAFVIdvqAlTgon5-1" value="File" style="whiteSpace=wrap;html=1;shape=mxgraph.basic.document" vertex="1" parent="1">
          <mxGeometry x="379" y="500" width="70" height="70" as="geometry" />
        </mxCell>
        <mxCell id="sWYUQVAFVIdvqAlTgon5-3" style="edgeStyle=orthogonalEdgeStyle;rounded=1;orthogonalLoop=1;jettySize=auto;html=1;entryX=0;entryY=0.5;entryDx=0;entryDy=0;curved=0;" edge="1" parent="1" source="sWYUQVAFVIdvqAlTgon5-2" target="p6JzV3gUP_GWJPddPbTe-1">
          <mxGeometry relative="1" as="geometry">
            <mxPoint x="350" y="400" as="targetPoint" />
          </mxGeometry>
        </mxCell>
        <mxCell id="sWYUQVAFVIdvqAlTgon5-2" value="Other" style="sketch=0;pointerEvents=1;shadow=0;dashed=0;html=1;strokeColor=none;fillColor=#505050;labelPosition=center;verticalLabelPosition=middle;outlineConnect=0;verticalAlign=middle;align=center;shape=mxgraph.office.clouds.cloud;spacingTop=5;" vertex="1" parent="1">
          <mxGeometry x="367" y="620" width="94" height="55" as="geometry" />
        </mxCell>
        <mxCell id="sWYUQVAFVIdvqAlTgon5-5" value="PD" style="shape=image;html=1;verticalAlign=top;verticalLabelPosition=bottom;labelBackgroundColor=#ffffff;imageAspect=0;aspect=fixed;image=https://cdn3.iconfinder.com/data/icons/user-interface-169/32/dashboard-128.png" vertex="1" parent="1">
          <mxGeometry x="70" y="225" width="70" height="70" as="geometry" />
        </mxCell>
        <mxCell id="p6JzV3gUP_GWJPddPbTe-1" value="PostgreSQL" style="shape=datastore;whiteSpace=wrap;html=1;labelPosition=center;verticalLabelPosition=bottom;align=center;verticalAlign=top;" vertex="1" parent="1">
          <mxGeometry x="685" y="617.5" width="60" height="60" as="geometry" />
        </mxCell>
        <mxCell id="p6JzV3gUP_GWJPddPbTe-5" value="&lt;font color=&quot;#ffffff&quot;&gt;&lt;span style=&quot;font-size: 14px;&quot;&gt;СУБД&lt;/span&gt;&lt;/font&gt;" style="text;html=1;align=center;verticalAlign=middle;whiteSpace=wrap;rounded=0;" vertex="1" parent="1">
          <mxGeometry x="670" y="525" width="90" height="30" as="geometry" />
        </mxCell>
      </root>
    </mxGraphModel>
  </diagram>
  <diagram id="IvM1AD8klN_EULY0ouu9" name="PD_v2">
    <mxGraphModel dx="1235" dy="778" grid="1" gridSize="10" guides="1" tooltips="1" connect="1" arrows="1" fold="1" page="1" pageScale="1" pageWidth="1169" pageHeight="827" math="0" shadow="0">
      <root>
        <mxCell id="0" />
        <mxCell id="1" parent="0" />
        <mxCell id="DctJ66sSAZJTUVIjfaTJ-1" value="&lt;span style=&quot;color: rgb(255, 255, 255);&quot;&gt;СУБД&lt;/span&gt;" style="rounded=1;whiteSpace=wrap;html=1;fillColor=#66B2FF;rotation=0;verticalAlign=top;fontSize=13;fontStyle=1" parent="1" vertex="1">
          <mxGeometry x="349" y="460" width="150" height="220" as="geometry" />
        </mxCell>
        <mxCell id="DctJ66sSAZJTUVIjfaTJ-2" value="" style="rounded=1;whiteSpace=wrap;html=1;rotation=0;" parent="1" vertex="1">
          <mxGeometry x="361.5" y="501.25" width="125" height="170" as="geometry" />
        </mxCell>
        <mxCell id="DctJ66sSAZJTUVIjfaTJ-3" value="&lt;span style=&quot;color: rgb(255, 255, 255); font-weight: 700; text-wrap-mode: nowrap;&quot;&gt;Источники&amp;nbsp;&lt;/span&gt;&lt;div&gt;&lt;span style=&quot;color: rgb(255, 255, 255); font-weight: 700; text-wrap-mode: nowrap;&quot;&gt;данных&lt;/span&gt;&lt;/div&gt;" style="rounded=1;whiteSpace=wrap;html=1;fillColor=#66B2FF;verticalAlign=top;fontSize=13;" parent="1" vertex="1">
          <mxGeometry x="39" y="150" width="150" height="650" as="geometry" />
        </mxCell>
        <mxCell id="IuPUt67D1EdyMQpDrZ7Y-5" style="edgeStyle=orthogonalEdgeStyle;rounded=1;orthogonalLoop=1;jettySize=auto;html=1;exitX=1;exitY=0.5;exitDx=0;exitDy=0;entryX=0;entryY=0.5;entryDx=0;entryDy=0;curved=0;strokeWidth=2;" edge="1" parent="1" source="IuPUt67D1EdyMQpDrZ7Y-1" target="DctJ66sSAZJTUVIjfaTJ-2">
          <mxGeometry relative="1" as="geometry" />
        </mxCell>
        <mxCell id="IuPUt67D1EdyMQpDrZ7Y-1" value="" style="rounded=1;whiteSpace=wrap;html=1;rotation=0;" vertex="1" parent="1">
          <mxGeometry x="51.5" y="382.5" width="125" height="407.5" as="geometry" />
        </mxCell>
        <mxCell id="DctJ66sSAZJTUVIjfaTJ-4" value="" style="rounded=1;whiteSpace=wrap;html=1;rotation=0;" parent="1" vertex="1">
          <mxGeometry x="51.5" y="190" width="125" height="170" as="geometry" />
        </mxCell>
        <mxCell id="DctJ66sSAZJTUVIjfaTJ-5" value="&lt;span style=&quot;color: rgb(255, 255, 255);&quot;&gt;Визуализация&amp;nbsp;&lt;/span&gt;&lt;div&gt;&lt;span style=&quot;color: rgb(255, 255, 255);&quot;&gt;данных&lt;/span&gt;&lt;/div&gt;" style="rounded=1;whiteSpace=wrap;html=1;fillColor=#66B2FF;verticalAlign=top;fontStyle=1;fontSize=13;" parent="1" vertex="1">
          <mxGeometry x="639" y="150" width="150" height="220" as="geometry" />
        </mxCell>
        <mxCell id="DctJ66sSAZJTUVIjfaTJ-6" value="" style="rounded=1;whiteSpace=wrap;html=1;" parent="1" vertex="1">
          <mxGeometry x="651.5" y="190" width="125" height="170" as="geometry" />
        </mxCell>
        <mxCell id="DctJ66sSAZJTUVIjfaTJ-8" style="edgeStyle=orthogonalEdgeStyle;rounded=1;orthogonalLoop=1;jettySize=auto;html=1;entryX=0;entryY=0.5;entryDx=0;entryDy=0;curved=0;exitX=1;exitY=0.75;exitDx=0;exitDy=0;strokeWidth=2;" parent="1" source="DctJ66sSAZJTUVIjfaTJ-4" target="DctJ66sSAZJTUVIjfaTJ-2" edge="1">
          <mxGeometry relative="1" as="geometry">
            <mxPoint x="230" y="270" as="sourcePoint" />
          </mxGeometry>
        </mxCell>
        <mxCell id="DctJ66sSAZJTUVIjfaTJ-9" value="Database" style="shape=datastore;whiteSpace=wrap;html=1;labelPosition=center;verticalLabelPosition=bottom;align=center;verticalAlign=top;fontStyle=1" parent="1" vertex="1">
          <mxGeometry x="79" y="235" width="70" height="70" as="geometry" />
        </mxCell>
        <mxCell id="DctJ66sSAZJTUVIjfaTJ-15" value="Polymatica Analytics" style="shape=image;html=1;verticalAlign=top;verticalLabelPosition=bottom;labelBackgroundColor=#ffffff;imageAspect=0;aspect=fixed;image=https://cdn1.iconfinder.com/data/icons/seo-and-web-development-6/32/development_globe_sphere-128.png;fontStyle=1" parent="1" vertex="1">
          <mxGeometry x="79" y="420" width="70" height="70" as="geometry" />
        </mxCell>
        <mxCell id="DctJ66sSAZJTUVIjfaTJ-16" value="File" style="whiteSpace=wrap;html=1;shape=mxgraph.basic.document;labelPosition=center;verticalLabelPosition=bottom;align=center;verticalAlign=top;fontStyle=1" parent="1" vertex="1">
          <mxGeometry x="79" y="555" width="70" height="70" as="geometry" />
        </mxCell>
        <mxCell id="DctJ66sSAZJTUVIjfaTJ-19" value="PD" style="shape=image;html=1;verticalAlign=top;verticalLabelPosition=bottom;labelBackgroundColor=#ffffff;imageAspect=0;aspect=fixed;image=https://cdn3.iconfinder.com/data/icons/user-interface-169/32/dashboard-128.png;fontStyle=1" parent="1" vertex="1">
          <mxGeometry x="679" y="235" width="70" height="70" as="geometry" />
        </mxCell>
        <mxCell id="DctJ66sSAZJTUVIjfaTJ-20" value="PostgreSQL" style="shape=datastore;whiteSpace=wrap;html=1;labelPosition=center;verticalLabelPosition=bottom;align=center;verticalAlign=top;fontStyle=1" parent="1" vertex="1">
          <mxGeometry x="394" y="555" width="60" height="60" as="geometry" />
        </mxCell>
        <mxCell id="IuPUt67D1EdyMQpDrZ7Y-2" style="edgeStyle=orthogonalEdgeStyle;rounded=1;orthogonalLoop=1;jettySize=auto;html=1;exitX=1;exitY=0.5;exitDx=0;exitDy=0;entryX=0;entryY=0.5;entryDx=0;entryDy=0;curved=0;strokeWidth=2;startArrow=classic;startFill=1;" edge="1" parent="1" source="DctJ66sSAZJTUVIjfaTJ-4" target="DctJ66sSAZJTUVIjfaTJ-6">
          <mxGeometry relative="1" as="geometry" />
        </mxCell>
        <mxCell id="IuPUt67D1EdyMQpDrZ7Y-3" value="Live-connect" style="edgeLabel;html=1;align=center;verticalAlign=bottom;resizable=0;points=[];fontSize=12;labelPosition=center;verticalLabelPosition=top;" vertex="1" connectable="0" parent="IuPUt67D1EdyMQpDrZ7Y-2">
          <mxGeometry x="0.2534" relative="1" as="geometry">
            <mxPoint as="offset" />
          </mxGeometry>
        </mxCell>
        <mxCell id="IuPUt67D1EdyMQpDrZ7Y-6" style="edgeStyle=orthogonalEdgeStyle;rounded=1;orthogonalLoop=1;jettySize=auto;html=1;exitX=1;exitY=0.5;exitDx=0;exitDy=0;entryX=0;entryY=0.5;entryDx=0;entryDy=0;curved=0;strokeWidth=2;startArrow=classic;startFill=1;" edge="1" parent="1" source="DctJ66sSAZJTUVIjfaTJ-2" target="DctJ66sSAZJTUVIjfaTJ-6">
          <mxGeometry relative="1" as="geometry" />
        </mxCell>
        <mxCell id="IuPUt67D1EdyMQpDrZ7Y-23" value="Р7-Офис" style="group;labelPosition=center;verticalLabelPosition=bottom;align=center;verticalAlign=top;movable=1;resizable=1;rotatable=1;deletable=1;editable=1;locked=0;connectable=1;fontStyle=1" vertex="1" connectable="0" parent="1">
          <mxGeometry x="79" y="690" width="70" height="60" as="geometry" />
        </mxCell>
        <mxCell id="IuPUt67D1EdyMQpDrZ7Y-13" value="" style="shape=image;html=1;verticalAlign=top;verticalLabelPosition=bottom;labelBackgroundColor=#ffffff;imageAspect=0;aspect=fixed;image=https://cdn0.iconfinder.com/data/icons/phosphor-regular-vol-4/256/square-128.png;rotation=45;movable=0;resizable=0;rotatable=0;deletable=0;editable=0;locked=1;connectable=0;" vertex="1" parent="IuPUt67D1EdyMQpDrZ7Y-23">
          <mxGeometry x="19" y="5" width="32" height="32" as="geometry" />
        </mxCell>
        <mxCell id="IuPUt67D1EdyMQpDrZ7Y-14" value="" style="shape=image;html=1;verticalAlign=top;verticalLabelPosition=bottom;labelBackgroundColor=#ffffff;imageAspect=0;aspect=fixed;image=https://cdn0.iconfinder.com/data/icons/phosphor-regular-vol-4/256/square-128.png;rotation=45;movable=0;resizable=0;rotatable=0;deletable=0;editable=0;locked=1;connectable=0;" vertex="1" parent="IuPUt67D1EdyMQpDrZ7Y-23">
          <mxGeometry x="37" y="23" width="32" height="32" as="geometry" />
        </mxCell>
        <mxCell id="IuPUt67D1EdyMQpDrZ7Y-16" value="" style="shape=image;html=1;verticalAlign=top;verticalLabelPosition=bottom;labelBackgroundColor=#ffffff;imageAspect=0;aspect=fixed;image=https://cdn0.iconfinder.com/data/icons/phosphor-regular-vol-4/256/square-128.png;rotation=45;movable=0;resizable=0;rotatable=0;deletable=0;editable=0;locked=1;connectable=0;" vertex="1" parent="IuPUt67D1EdyMQpDrZ7Y-23">
          <mxGeometry x="1" y="23" width="32" height="32" as="geometry" />
        </mxCell>
        <mxCell id="IuPUt67D1EdyMQpDrZ7Y-31" value="&lt;div&gt;csv&lt;/div&gt;&lt;div&gt;json&lt;/div&gt;&lt;div&gt;xlsx&lt;/div&gt;&lt;div&gt;xml&lt;/div&gt;" style="text;html=1;align=center;verticalAlign=middle;whiteSpace=wrap;rounded=0;fontSize=10;" vertex="1" parent="1">
          <mxGeometry x="84" y="571.25" width="60" height="48.75" as="geometry" />
        </mxCell>
        <mxCell id="IuPUt67D1EdyMQpDrZ7Y-32" value="Клиентское&amp;nbsp;&lt;div&gt;приложение&lt;/div&gt;" style="rounded=1;whiteSpace=wrap;html=1;fillColor=#66B2FF;fontColor=#FFFFFF;labelPosition=center;verticalLabelPosition=middle;align=center;verticalAlign=top;spacingTop=0;spacing=2;fontStyle=1;fontSize=13;" vertex="1" parent="1">
          <mxGeometry x="950" y="150" width="151" height="220" as="geometry" />
        </mxCell>
        <mxCell id="IuPUt67D1EdyMQpDrZ7Y-35" style="edgeStyle=orthogonalEdgeStyle;rounded=1;orthogonalLoop=1;jettySize=auto;html=1;exitX=0;exitY=0.5;exitDx=0;exitDy=0;entryX=1;entryY=0.5;entryDx=0;entryDy=0;curved=0;startArrow=classic;startFill=1;strokeWidth=2;" edge="1" parent="1" source="IuPUt67D1EdyMQpDrZ7Y-33" target="DctJ66sSAZJTUVIjfaTJ-6">
          <mxGeometry relative="1" as="geometry" />
        </mxCell>
        <mxCell id="IuPUt67D1EdyMQpDrZ7Y-33" value="" style="rounded=1;whiteSpace=wrap;html=1;rotation=0;" vertex="1" parent="1">
          <mxGeometry x="963" y="190" width="125" height="170" as="geometry" />
        </mxCell>
        <mxCell id="IuPUt67D1EdyMQpDrZ7Y-34" value="Веб-клиент" style="sketch=0;outlineConnect=0;fontColor=#232F3E;gradientColor=none;fillColor=#232F3D;strokeColor=none;dashed=0;verticalLabelPosition=bottom;verticalAlign=top;align=center;html=1;fontSize=12;fontStyle=1;aspect=fixed;pointerEvents=1;shape=mxgraph.aws4.client;" vertex="1" parent="1">
          <mxGeometry x="990.5" y="240.88" width="70" height="68.24" as="geometry" />
        </mxCell>
      </root>
    </mxGraphModel>
  </diagram>
  <diagram name="PD_v3" id="-P_eJwNC0lVC7-HkSzc4">
    <mxGraphModel dx="1500" dy="944" grid="1" gridSize="10" guides="1" tooltips="1" connect="1" arrows="1" fold="1" page="1" pageScale="1" pageWidth="1169" pageHeight="827" math="0" shadow="0">
      <root>
        <mxCell id="H4KePowgJvmSPLNmz8TC-0" />
        <mxCell id="H4KePowgJvmSPLNmz8TC-1" parent="H4KePowgJvmSPLNmz8TC-0" />
        <mxCell id="H4KePowgJvmSPLNmz8TC-2" value="&lt;span style=&quot;color: rgb(255, 255, 255);&quot;&gt;СУБД&lt;/span&gt;" style="rounded=1;whiteSpace=wrap;html=1;fillColor=#66B2FF;rotation=0;verticalAlign=top;fontSize=13;fontStyle=1" vertex="1" parent="H4KePowgJvmSPLNmz8TC-1">
          <mxGeometry x="349" y="490" width="150" height="220" as="geometry" />
        </mxCell>
        <mxCell id="H4KePowgJvmSPLNmz8TC-3" value="" style="rounded=1;whiteSpace=wrap;html=1;rotation=0;" vertex="1" parent="H4KePowgJvmSPLNmz8TC-1">
          <mxGeometry x="361.5" y="531.25" width="125" height="170" as="geometry" />
        </mxCell>
        <mxCell id="H4KePowgJvmSPLNmz8TC-4" value="&lt;span style=&quot;color: rgb(255, 255, 255); font-weight: 700; text-wrap-mode: nowrap;&quot;&gt;Источники&amp;nbsp;&lt;/span&gt;&lt;div&gt;&lt;span style=&quot;color: rgb(255, 255, 255); font-weight: 700; text-wrap-mode: nowrap;&quot;&gt;данных&lt;/span&gt;&lt;/div&gt;" style="rounded=1;whiteSpace=wrap;html=1;fillColor=#66B2FF;verticalAlign=top;fontSize=13;" vertex="1" parent="H4KePowgJvmSPLNmz8TC-1">
          <mxGeometry x="670" y="60" width="150" height="650" as="geometry" />
        </mxCell>
        <mxCell id="H4KePowgJvmSPLNmz8TC-5" style="rounded=1;orthogonalLoop=1;jettySize=auto;html=1;exitX=0.026;exitY=0.795;exitDx=0;exitDy=0;strokeWidth=2;entryX=1;entryY=0.5;entryDx=0;entryDy=0;edgeStyle=orthogonalEdgeStyle;exitPerimeter=0;" edge="1" parent="H4KePowgJvmSPLNmz8TC-1" source="H4KePowgJvmSPLNmz8TC-6" target="H4KePowgJvmSPLNmz8TC-3">
          <mxGeometry relative="1" as="geometry">
            <mxPoint x="820" y="390" as="targetPoint" />
          </mxGeometry>
        </mxCell>
        <mxCell id="H4KePowgJvmSPLNmz8TC-6" value="" style="rounded=1;whiteSpace=wrap;html=1;rotation=0;" vertex="1" parent="H4KePowgJvmSPLNmz8TC-1">
          <mxGeometry x="682.5" y="292.5" width="125" height="407.5" as="geometry" />
        </mxCell>
        <mxCell id="H4KePowgJvmSPLNmz8TC-7" value="" style="rounded=1;whiteSpace=wrap;html=1;rotation=0;" vertex="1" parent="H4KePowgJvmSPLNmz8TC-1">
          <mxGeometry x="682.5" y="100" width="125" height="170" as="geometry" />
        </mxCell>
        <mxCell id="H4KePowgJvmSPLNmz8TC-8" value="&lt;span style=&quot;color: rgb(255, 255, 255);&quot;&gt;Визуализация&amp;nbsp;&lt;/span&gt;&lt;div&gt;&lt;span style=&quot;color: rgb(255, 255, 255);&quot;&gt;данных&lt;/span&gt;&lt;/div&gt;" style="rounded=1;whiteSpace=wrap;html=1;fillColor=#66B2FF;verticalAlign=top;fontStyle=1;fontSize=13;" vertex="1" parent="H4KePowgJvmSPLNmz8TC-1">
          <mxGeometry x="349" y="60" width="150" height="220" as="geometry" />
        </mxCell>
        <mxCell id="H4KePowgJvmSPLNmz8TC-9" value="" style="rounded=1;whiteSpace=wrap;html=1;" vertex="1" parent="H4KePowgJvmSPLNmz8TC-1">
          <mxGeometry x="361.5" y="100" width="125" height="170" as="geometry" />
        </mxCell>
        <mxCell id="H4KePowgJvmSPLNmz8TC-10" style="edgeStyle=orthogonalEdgeStyle;rounded=1;orthogonalLoop=1;jettySize=auto;html=1;entryX=1;entryY=0.5;entryDx=0;entryDy=0;curved=0;exitX=0;exitY=0.75;exitDx=0;exitDy=0;strokeWidth=2;" edge="1" parent="H4KePowgJvmSPLNmz8TC-1" source="H4KePowgJvmSPLNmz8TC-7" target="H4KePowgJvmSPLNmz8TC-3">
          <mxGeometry relative="1" as="geometry">
            <mxPoint x="230" y="180" as="sourcePoint" />
            <Array as="points">
              <mxPoint x="630" y="228" />
              <mxPoint x="630" y="616" />
            </Array>
          </mxGeometry>
        </mxCell>
        <mxCell id="H4KePowgJvmSPLNmz8TC-11" value="Database" style="shape=datastore;whiteSpace=wrap;html=1;labelPosition=center;verticalLabelPosition=bottom;align=center;verticalAlign=top;fontStyle=1" vertex="1" parent="H4KePowgJvmSPLNmz8TC-1">
          <mxGeometry x="710" y="145" width="70" height="70" as="geometry" />
        </mxCell>
        <mxCell id="H4KePowgJvmSPLNmz8TC-12" value="Polymatica Analytics" style="shape=image;html=1;verticalAlign=top;verticalLabelPosition=bottom;labelBackgroundColor=#ffffff;imageAspect=0;aspect=fixed;image=https://cdn1.iconfinder.com/data/icons/seo-and-web-development-6/32/development_globe_sphere-128.png;fontStyle=1" vertex="1" parent="H4KePowgJvmSPLNmz8TC-1">
          <mxGeometry x="710" y="330" width="70" height="70" as="geometry" />
        </mxCell>
        <mxCell id="H4KePowgJvmSPLNmz8TC-13" value="File" style="whiteSpace=wrap;html=1;shape=mxgraph.basic.document;labelPosition=center;verticalLabelPosition=bottom;align=center;verticalAlign=top;fontStyle=1" vertex="1" parent="H4KePowgJvmSPLNmz8TC-1">
          <mxGeometry x="710" y="465" width="70" height="70" as="geometry" />
        </mxCell>
        <mxCell id="H4KePowgJvmSPLNmz8TC-14" value="PD" style="shape=image;html=1;verticalAlign=top;verticalLabelPosition=bottom;labelBackgroundColor=#ffffff;imageAspect=0;aspect=fixed;image=https://cdn3.iconfinder.com/data/icons/user-interface-169/32/dashboard-128.png;fontStyle=1" vertex="1" parent="H4KePowgJvmSPLNmz8TC-1">
          <mxGeometry x="389" y="145" width="70" height="70" as="geometry" />
        </mxCell>
        <mxCell id="H4KePowgJvmSPLNmz8TC-15" value="PostgreSQL" style="shape=datastore;whiteSpace=wrap;html=1;labelPosition=center;verticalLabelPosition=bottom;align=center;verticalAlign=top;fontStyle=1" vertex="1" parent="H4KePowgJvmSPLNmz8TC-1">
          <mxGeometry x="394" y="585" width="60" height="60" as="geometry" />
        </mxCell>
        <mxCell id="H4KePowgJvmSPLNmz8TC-16" style="edgeStyle=orthogonalEdgeStyle;rounded=1;orthogonalLoop=1;jettySize=auto;html=1;exitX=0;exitY=0.5;exitDx=0;exitDy=0;entryX=1;entryY=0.5;entryDx=0;entryDy=0;curved=0;strokeWidth=2;startArrow=classic;startFill=1;" edge="1" parent="H4KePowgJvmSPLNmz8TC-1" source="H4KePowgJvmSPLNmz8TC-7" target="H4KePowgJvmSPLNmz8TC-9">
          <mxGeometry relative="1" as="geometry" />
        </mxCell>
        <mxCell id="H4KePowgJvmSPLNmz8TC-17" value="Live-connect" style="edgeLabel;html=1;align=center;verticalAlign=bottom;resizable=0;points=[];fontSize=12;labelPosition=center;verticalLabelPosition=top;" vertex="1" connectable="0" parent="H4KePowgJvmSPLNmz8TC-16">
          <mxGeometry x="0.2534" relative="1" as="geometry">
            <mxPoint as="offset" />
          </mxGeometry>
        </mxCell>
        <mxCell id="H4KePowgJvmSPLNmz8TC-18" style="edgeStyle=orthogonalEdgeStyle;rounded=1;orthogonalLoop=1;jettySize=auto;html=1;exitX=0.5;exitY=0;exitDx=0;exitDy=0;entryX=0.5;entryY=1;entryDx=0;entryDy=0;curved=0;strokeWidth=2;startArrow=classic;startFill=1;" edge="1" parent="H4KePowgJvmSPLNmz8TC-1" source="H4KePowgJvmSPLNmz8TC-2" target="H4KePowgJvmSPLNmz8TC-9">
          <mxGeometry relative="1" as="geometry" />
        </mxCell>
        <mxCell id="H4KePowgJvmSPLNmz8TC-19" value="Р7-Офис" style="group;labelPosition=center;verticalLabelPosition=bottom;align=center;verticalAlign=top;movable=1;resizable=1;rotatable=1;deletable=1;editable=1;locked=0;connectable=1;fontStyle=1" vertex="1" connectable="0" parent="H4KePowgJvmSPLNmz8TC-1">
          <mxGeometry x="710" y="600" width="70" height="60" as="geometry" />
        </mxCell>
        <mxCell id="H4KePowgJvmSPLNmz8TC-20" value="" style="shape=image;html=1;verticalAlign=top;verticalLabelPosition=bottom;labelBackgroundColor=#ffffff;imageAspect=0;aspect=fixed;image=https://cdn0.iconfinder.com/data/icons/phosphor-regular-vol-4/256/square-128.png;rotation=45;movable=0;resizable=0;rotatable=0;deletable=0;editable=0;locked=1;connectable=0;" vertex="1" parent="H4KePowgJvmSPLNmz8TC-19">
          <mxGeometry x="19" y="5" width="32" height="32" as="geometry" />
        </mxCell>
        <mxCell id="H4KePowgJvmSPLNmz8TC-21" value="" style="shape=image;html=1;verticalAlign=top;verticalLabelPosition=bottom;labelBackgroundColor=#ffffff;imageAspect=0;aspect=fixed;image=https://cdn0.iconfinder.com/data/icons/phosphor-regular-vol-4/256/square-128.png;rotation=45;movable=0;resizable=0;rotatable=0;deletable=0;editable=0;locked=1;connectable=0;" vertex="1" parent="H4KePowgJvmSPLNmz8TC-19">
          <mxGeometry x="37" y="23" width="32" height="32" as="geometry" />
        </mxCell>
        <mxCell id="H4KePowgJvmSPLNmz8TC-22" value="" style="shape=image;html=1;verticalAlign=top;verticalLabelPosition=bottom;labelBackgroundColor=#ffffff;imageAspect=0;aspect=fixed;image=https://cdn0.iconfinder.com/data/icons/phosphor-regular-vol-4/256/square-128.png;rotation=45;movable=0;resizable=0;rotatable=0;deletable=0;editable=0;locked=1;connectable=0;" vertex="1" parent="H4KePowgJvmSPLNmz8TC-19">
          <mxGeometry x="1" y="23" width="32" height="32" as="geometry" />
        </mxCell>
        <mxCell id="H4KePowgJvmSPLNmz8TC-23" value="&lt;div&gt;csv&lt;/div&gt;&lt;div&gt;json&lt;/div&gt;&lt;div&gt;xlsx&lt;/div&gt;&lt;div&gt;xml&lt;/div&gt;" style="text;html=1;align=center;verticalAlign=middle;whiteSpace=wrap;rounded=0;fontSize=10;" vertex="1" parent="H4KePowgJvmSPLNmz8TC-1">
          <mxGeometry x="715" y="481.25" width="60" height="48.75" as="geometry" />
        </mxCell>
        <mxCell id="H4KePowgJvmSPLNmz8TC-24" value="Клиентское&amp;nbsp;&lt;div&gt;приложение&lt;/div&gt;" style="rounded=1;whiteSpace=wrap;html=1;fillColor=#66B2FF;fontColor=#FFFFFF;labelPosition=center;verticalLabelPosition=middle;align=center;verticalAlign=top;spacingTop=0;spacing=2;fontStyle=1;fontSize=13;" vertex="1" parent="H4KePowgJvmSPLNmz8TC-1">
          <mxGeometry x="30" y="60" width="151" height="220" as="geometry" />
        </mxCell>
        <mxCell id="r1MxayCOHCW9UAvFnSoD-1" style="edgeStyle=orthogonalEdgeStyle;rounded=1;orthogonalLoop=1;jettySize=auto;html=1;exitX=1;exitY=0.5;exitDx=0;exitDy=0;entryX=0;entryY=0.5;entryDx=0;entryDy=0;curved=0;startArrow=classic;startFill=1;strokeWidth=2;" edge="1" parent="H4KePowgJvmSPLNmz8TC-1" source="H4KePowgJvmSPLNmz8TC-26" target="H4KePowgJvmSPLNmz8TC-9">
          <mxGeometry relative="1" as="geometry" />
        </mxCell>
        <mxCell id="H4KePowgJvmSPLNmz8TC-26" value="" style="rounded=1;whiteSpace=wrap;html=1;rotation=0;" vertex="1" parent="H4KePowgJvmSPLNmz8TC-1">
          <mxGeometry x="43" y="100" width="125" height="170" as="geometry" />
        </mxCell>
        <mxCell id="H4KePowgJvmSPLNmz8TC-27" value="Веб-клиент" style="sketch=0;outlineConnect=0;fontColor=#232F3E;gradientColor=none;fillColor=#232F3D;strokeColor=none;dashed=0;verticalLabelPosition=bottom;verticalAlign=top;align=center;html=1;fontSize=12;fontStyle=1;aspect=fixed;pointerEvents=1;shape=mxgraph.aws4.client;" vertex="1" parent="H4KePowgJvmSPLNmz8TC-1">
          <mxGeometry x="70.5" y="150.88" width="70" height="68.24" as="geometry" />
        </mxCell>
      </root>
    </mxGraphModel>
  </diagram>
  <diagram id="y41feV_IiK5flG5kmzwf" name="PD_Draft">
    <mxGraphModel dx="1050" dy="661" grid="1" gridSize="10" guides="1" tooltips="1" connect="1" arrows="1" fold="1" page="1" pageScale="1" pageWidth="827" pageHeight="1169" math="0" shadow="0">
      <root>
        <mxCell id="0" />
        <mxCell id="1" parent="0" />
        <mxCell id="xvgOaRZrqdrt7SZgEXJk-1" value="" style="rounded=1;whiteSpace=wrap;html=1;fillColor=#66B2FF;rotation=0;" parent="1" vertex="1">
          <mxGeometry x="341" y="450" width="150" height="220" as="geometry" />
        </mxCell>
        <mxCell id="xvgOaRZrqdrt7SZgEXJk-2" value="" style="rounded=1;whiteSpace=wrap;html=1;rotation=0;" parent="1" vertex="1">
          <mxGeometry x="353.5" y="490" width="125" height="170" as="geometry" />
        </mxCell>
        <mxCell id="xvgOaRZrqdrt7SZgEXJk-3" value="" style="rounded=1;whiteSpace=wrap;html=1;fillColor=#66B2FF;" parent="1" vertex="1">
          <mxGeometry x="40" y="70" width="150" height="600" as="geometry" />
        </mxCell>
        <mxCell id="xvgOaRZrqdrt7SZgEXJk-4" value="" style="rounded=1;whiteSpace=wrap;html=1;rotation=0;" parent="1" vertex="1">
          <mxGeometry x="52.5" y="110" width="125" height="550" as="geometry" />
        </mxCell>
        <mxCell id="xvgOaRZrqdrt7SZgEXJk-5" value="" style="rounded=1;whiteSpace=wrap;html=1;fillColor=#66B2FF;" parent="1" vertex="1">
          <mxGeometry x="341" y="70" width="150" height="220" as="geometry" />
        </mxCell>
        <mxCell id="xvgOaRZrqdrt7SZgEXJk-6" value="" style="rounded=1;whiteSpace=wrap;html=1;" parent="1" vertex="1">
          <mxGeometry x="353.5" y="110" width="125" height="170" as="geometry" />
        </mxCell>
        <mxCell id="xvgOaRZrqdrt7SZgEXJk-8" style="edgeStyle=orthogonalEdgeStyle;rounded=1;orthogonalLoop=1;jettySize=auto;html=1;exitX=1;exitY=0.7;exitDx=0;exitDy=0;entryX=0;entryY=0.5;entryDx=0;entryDy=0;curved=0;" parent="1" source="xvgOaRZrqdrt7SZgEXJk-9" target="xvgOaRZrqdrt7SZgEXJk-20" edge="1">
          <mxGeometry relative="1" as="geometry">
            <Array as="points">
              <mxPoint x="241" y="204" />
              <mxPoint x="241" y="578" />
            </Array>
          </mxGeometry>
        </mxCell>
        <mxCell id="xvgOaRZrqdrt7SZgEXJk-23" style="edgeStyle=orthogonalEdgeStyle;rounded=1;orthogonalLoop=1;jettySize=auto;html=1;exitX=1;exitY=0.5;exitDx=0;exitDy=0;entryX=0;entryY=0.5;entryDx=0;entryDy=0;curved=0;dashed=1;" parent="1" source="xvgOaRZrqdrt7SZgEXJk-9" target="xvgOaRZrqdrt7SZgEXJk-19" edge="1">
          <mxGeometry relative="1" as="geometry" />
        </mxCell>
        <mxCell id="xvgOaRZrqdrt7SZgEXJk-9" value="Database" style="shape=datastore;whiteSpace=wrap;html=1;" parent="1" vertex="1">
          <mxGeometry x="80" y="155" width="70" height="70" as="geometry" />
        </mxCell>
        <mxCell id="xvgOaRZrqdrt7SZgEXJk-10" value="&lt;font color=&quot;#ffffff&quot; style=&quot;font-size: 14px; font-weight: normal;&quot;&gt;Источники данных&lt;/font&gt;" style="text;strokeColor=none;fillColor=none;html=1;fontSize=24;fontStyle=1;verticalAlign=middle;align=center;" parent="1" vertex="1">
          <mxGeometry x="43.75" y="75" width="130" height="30" as="geometry" />
        </mxCell>
        <mxCell id="xvgOaRZrqdrt7SZgEXJk-11" value="&lt;font color=&quot;#ffffff&quot;&gt;&lt;span style=&quot;font-size: 14px;&quot;&gt;Визуализация и аналитика&lt;/span&gt;&lt;/font&gt;" style="text;html=1;align=center;verticalAlign=middle;whiteSpace=wrap;rounded=0;" parent="1" vertex="1">
          <mxGeometry x="371" y="75" width="90" height="30" as="geometry" />
        </mxCell>
        <mxCell id="xvgOaRZrqdrt7SZgEXJk-12" style="edgeStyle=orthogonalEdgeStyle;rounded=1;orthogonalLoop=1;jettySize=auto;html=1;exitX=1;exitY=0.5;exitDx=0;exitDy=0;entryX=0;entryY=0.5;entryDx=0;entryDy=0;curved=0;strokeColor=default;align=center;verticalAlign=middle;fontFamily=Helvetica;fontSize=11;fontColor=default;labelBackgroundColor=default;endArrow=classic;exitPerimeter=0;" parent="1" source="xvgOaRZrqdrt7SZgEXJk-16" target="xvgOaRZrqdrt7SZgEXJk-20" edge="1">
          <mxGeometry relative="1" as="geometry">
            <mxPoint x="-169" y="330" as="sourcePoint" />
            <mxPoint x="51" y="330" as="targetPoint" />
            <Array as="points">
              <mxPoint x="241" y="465" />
              <mxPoint x="241" y="578" />
            </Array>
          </mxGeometry>
        </mxCell>
        <mxCell id="xvgOaRZrqdrt7SZgEXJk-14" style="edgeStyle=orthogonalEdgeStyle;rounded=1;orthogonalLoop=1;jettySize=auto;html=1;exitX=1;exitY=0.75;exitDx=0;exitDy=0;entryX=0;entryY=0.5;entryDx=0;entryDy=0;curved=0;" parent="1" source="xvgOaRZrqdrt7SZgEXJk-15" target="xvgOaRZrqdrt7SZgEXJk-20" edge="1">
          <mxGeometry relative="1" as="geometry">
            <Array as="points">
              <mxPoint x="241" y="348" />
              <mxPoint x="241" y="578" />
            </Array>
          </mxGeometry>
        </mxCell>
        <mxCell id="xvgOaRZrqdrt7SZgEXJk-22" style="edgeStyle=orthogonalEdgeStyle;rounded=1;orthogonalLoop=1;jettySize=auto;html=1;exitX=1;exitY=0.5;exitDx=0;exitDy=0;entryX=0;entryY=0.5;entryDx=0;entryDy=0;curved=0;dashed=1;" parent="1" source="xvgOaRZrqdrt7SZgEXJk-15" target="xvgOaRZrqdrt7SZgEXJk-19" edge="1">
          <mxGeometry relative="1" as="geometry" />
        </mxCell>
        <mxCell id="xvgOaRZrqdrt7SZgEXJk-15" value="Polymatica Analytics" style="shape=image;html=1;verticalAlign=top;verticalLabelPosition=bottom;labelBackgroundColor=#ffffff;imageAspect=0;aspect=fixed;image=https://cdn1.iconfinder.com/data/icons/seo-and-web-development-6/32/development_globe_sphere-128.png" parent="1" vertex="1">
          <mxGeometry x="80" y="295" width="70" height="70" as="geometry" />
        </mxCell>
        <mxCell id="xvgOaRZrqdrt7SZgEXJk-16" value="File" style="whiteSpace=wrap;html=1;shape=mxgraph.basic.document" parent="1" vertex="1">
          <mxGeometry x="80" y="430" width="70" height="70" as="geometry" />
        </mxCell>
        <mxCell id="xvgOaRZrqdrt7SZgEXJk-17" style="edgeStyle=orthogonalEdgeStyle;rounded=1;orthogonalLoop=1;jettySize=auto;html=1;entryX=0;entryY=0.5;entryDx=0;entryDy=0;curved=0;" parent="1" source="xvgOaRZrqdrt7SZgEXJk-18" target="xvgOaRZrqdrt7SZgEXJk-20" edge="1">
          <mxGeometry relative="1" as="geometry">
            <mxPoint x="51" y="330" as="targetPoint" />
          </mxGeometry>
        </mxCell>
        <mxCell id="xvgOaRZrqdrt7SZgEXJk-18" value="Other" style="sketch=0;pointerEvents=1;shadow=0;dashed=0;html=1;strokeColor=none;fillColor=#505050;labelPosition=center;verticalLabelPosition=middle;outlineConnect=0;verticalAlign=middle;align=center;shape=mxgraph.office.clouds.cloud;spacingTop=5;" parent="1" vertex="1">
          <mxGeometry x="68" y="550" width="94" height="55" as="geometry" />
        </mxCell>
        <mxCell id="xvgOaRZrqdrt7SZgEXJk-19" value="PD" style="shape=image;html=1;verticalAlign=top;verticalLabelPosition=bottom;labelBackgroundColor=#ffffff;imageAspect=0;aspect=fixed;image=https://cdn3.iconfinder.com/data/icons/user-interface-169/32/dashboard-128.png" parent="1" vertex="1">
          <mxGeometry x="381" y="155" width="70" height="70" as="geometry" />
        </mxCell>
        <mxCell id="xvgOaRZrqdrt7SZgEXJk-24" style="edgeStyle=orthogonalEdgeStyle;rounded=0;orthogonalLoop=1;jettySize=auto;html=1;exitX=1;exitY=0.5;exitDx=0;exitDy=0;entryX=1;entryY=0.5;entryDx=0;entryDy=0;" parent="1" source="xvgOaRZrqdrt7SZgEXJk-20" target="xvgOaRZrqdrt7SZgEXJk-19" edge="1">
          <mxGeometry relative="1" as="geometry">
            <Array as="points">
              <mxPoint x="550" y="578" />
              <mxPoint x="550" y="190" />
            </Array>
          </mxGeometry>
        </mxCell>
        <mxCell id="xvgOaRZrqdrt7SZgEXJk-20" value="PostgreSQL" style="shape=datastore;whiteSpace=wrap;html=1;labelPosition=center;verticalLabelPosition=bottom;align=center;verticalAlign=top;" parent="1" vertex="1">
          <mxGeometry x="386" y="547.5" width="60" height="60" as="geometry" />
        </mxCell>
        <mxCell id="xvgOaRZrqdrt7SZgEXJk-21" value="&lt;font color=&quot;#ffffff&quot;&gt;&lt;span style=&quot;font-size: 14px;&quot;&gt;СУБД&lt;/span&gt;&lt;/font&gt;" style="text;html=1;align=center;verticalAlign=middle;whiteSpace=wrap;rounded=0;" parent="1" vertex="1">
          <mxGeometry x="371" y="455" width="90" height="30" as="geometry" />
        </mxCell>
        <mxCell id="xvgOaRZrqdrt7SZgEXJk-29" value="" style="rounded=1;whiteSpace=wrap;html=1;gradientColor=none;" parent="1" vertex="1">
          <mxGeometry x="610" y="70" width="150" height="600" as="geometry" />
        </mxCell>
        <mxCell id="xvgOaRZrqdrt7SZgEXJk-31" value="&lt;span style=&quot;font-size: 14px;&quot;&gt;Потребители&lt;/span&gt;" style="text;html=1;align=center;verticalAlign=middle;whiteSpace=wrap;rounded=0;" parent="1" vertex="1">
          <mxGeometry x="640" y="75" width="90" height="30" as="geometry" />
        </mxCell>
        <mxCell id="xvgOaRZrqdrt7SZgEXJk-33" value="API" style="text;html=1;align=center;verticalAlign=middle;whiteSpace=wrap;rounded=0;" parent="1" vertex="1">
          <mxGeometry x="655" y="130" width="60" height="30" as="geometry" />
        </mxCell>
      </root>
    </mxGraphModel>
  </diagram>
  <diagram id="uE-J4Tgr8yQCsVfpyiEu" name="PD_v4">
    <mxGraphModel dx="1235" dy="778" grid="1" gridSize="10" guides="1" tooltips="1" connect="1" arrows="1" fold="1" page="1" pageScale="1" pageWidth="1169" pageHeight="827" math="0" shadow="0">
      <root>
        <mxCell id="0" />
        <mxCell id="1" parent="0" />
        <mxCell id="p4SFhjvlGKmMavnUfZih-1" value="я" style="rounded=0;whiteSpace=wrap;html=1;strokeColor=none;opacity=0;" vertex="1" parent="1">
          <mxGeometry x="870" y="970" width="190" height="655" as="geometry" />
        </mxCell>
        <mxCell id="h71knLdtUTUv9CMWA6zR-1" value="Источники данных" style="rounded=1;whiteSpace=wrap;html=1;strokeWidth=2;strokeColor=#0000FF;verticalAlign=top;fontSize=18;fontStyle=1" vertex="1" parent="1">
          <mxGeometry x="885.01" y="960" width="160" height="625" as="geometry" />
        </mxCell>
        <mxCell id="FW9JMo0mOV5YamA3jnH6-1" value="Источники данных" style="rounded=1;whiteSpace=wrap;html=1;strokeWidth=2;strokeColor=#0000FF;verticalAlign=top;fontSize=14;fontStyle=1" parent="1" vertex="1">
          <mxGeometry x="610" y="30" width="160" height="610" as="geometry" />
        </mxCell>
        <mxCell id="FW9JMo0mOV5YamA3jnH6-2" value="" style="rounded=0;whiteSpace=wrap;html=1;strokeColor=none;opacity=0;" parent="1" vertex="1">
          <mxGeometry x="630" y="60" width="120" height="140" as="geometry" />
        </mxCell>
        <mxCell id="FW9JMo0mOV5YamA3jnH6-47" value="" style="html=1;verticalLabelPosition=bottom;align=center;labelBackgroundColor=#ffffff;verticalAlign=top;strokeWidth=2;strokeColor=#000000;shadow=0;dashed=0;shape=mxgraph.ios7.icons.data;" parent="1" vertex="1">
          <mxGeometry x="640" y="70" width="100" height="100" as="geometry" />
        </mxCell>
        <mxCell id="Fq9bDcgWrl9CTsCdfi1Z-12" value="" style="rounded=0;whiteSpace=wrap;html=1;fillColor=none;strokeColor=none;" vertex="1" parent="1">
          <mxGeometry x="75" y="30" width="120" height="140" as="geometry" />
        </mxCell>
        <mxCell id="FW9JMo0mOV5YamA3jnH6-4" value="" style="rounded=0;whiteSpace=wrap;html=1;strokeColor=none;opacity=0;" parent="1" vertex="1">
          <mxGeometry x="40" y="237.5" width="190" height="422.5" as="geometry" />
        </mxCell>
        <mxCell id="FW9JMo0mOV5YamA3jnH6-7" value="Узел PD" style="rounded=1;whiteSpace=wrap;html=1;strokeWidth=2;strokeColor=#0000FF;verticalAlign=top;fontSize=14;fontStyle=1" parent="1" vertex="1">
          <mxGeometry x="50" y="250" width="170" height="390" as="geometry" />
        </mxCell>
        <mxCell id="Fq9bDcgWrl9CTsCdfi1Z-11" style="edgeStyle=orthogonalEdgeStyle;rounded=0;orthogonalLoop=1;jettySize=auto;html=1;entryX=0.5;entryY=1;entryDx=0;entryDy=0;strokeWidth=2;" edge="1" parent="1" source="Fq9bDcgWrl9CTsCdfi1Z-10" target="Fq9bDcgWrl9CTsCdfi1Z-8">
          <mxGeometry relative="1" as="geometry" />
        </mxCell>
        <mxCell id="Fq9bDcgWrl9CTsCdfi1Z-10" value="" style="rounded=0;whiteSpace=wrap;html=1;strokeColor=none;fillColor=none;" vertex="1" parent="1">
          <mxGeometry x="70" y="490" width="120" height="140" as="geometry" />
        </mxCell>
        <mxCell id="Fq9bDcgWrl9CTsCdfi1Z-8" value="" style="rounded=0;whiteSpace=wrap;html=1;strokeColor=none;fillColor=none;" vertex="1" parent="1">
          <mxGeometry x="70" y="280" width="120" height="140" as="geometry" />
        </mxCell>
        <mxCell id="FW9JMo0mOV5YamA3jnH6-43" value="Пользователь" style="sketch=0;outlineConnect=0;fontColor=#232F3E;gradientColor=none;strokeColor=#232F3E;fillColor=#ffffff;dashed=0;verticalLabelPosition=bottom;verticalAlign=top;align=center;html=1;fontSize=14;fontStyle=1;aspect=fixed;shape=mxgraph.aws4.resourceIcon;resIcon=mxgraph.aws4.user;" parent="1" vertex="1">
          <mxGeometry x="90" y="40" width="100" height="100" as="geometry" />
        </mxCell>
        <mxCell id="FW9JMo0mOV5YamA3jnH6-44" value="" style="endArrow=classic;startArrow=classic;html=1;rounded=0;strokeWidth=2;exitX=0.5;exitY=0;exitDx=0;exitDy=0;entryX=0.5;entryY=1;entryDx=0;entryDy=0;" parent="1" edge="1" target="Fq9bDcgWrl9CTsCdfi1Z-12" source="FW9JMo0mOV5YamA3jnH6-4">
          <mxGeometry width="50" height="50" relative="1" as="geometry">
            <mxPoint x="125" y="180" as="sourcePoint" />
            <mxPoint x="130" y="150" as="targetPoint" />
          </mxGeometry>
        </mxCell>
        <mxCell id="FW9JMo0mOV5YamA3jnH6-45" style="edgeStyle=orthogonalEdgeStyle;rounded=1;orthogonalLoop=1;jettySize=auto;html=1;curved=0;strokeWidth=2;entryX=1;entryY=0.5;entryDx=0;entryDy=0;exitX=0;exitY=0.5;exitDx=0;exitDy=0;" parent="1" source="FW9JMo0mOV5YamA3jnH6-2" target="Fq9bDcgWrl9CTsCdfi1Z-8" edge="1">
          <mxGeometry relative="1" as="geometry">
            <mxPoint x="630" y="47.5" as="sourcePoint" />
            <mxPoint x="500.27" y="88.38999999999999" as="targetPoint" />
            <Array as="points">
              <mxPoint x="330" y="130" />
              <mxPoint x="330" y="350" />
            </Array>
          </mxGeometry>
        </mxCell>
        <mxCell id="FW9JMo0mOV5YamA3jnH6-46" value="&lt;font style=&quot;color: rgb(0, 0, 0);&quot;&gt;Live-connect&lt;/font&gt;" style="edgeLabel;html=1;align=center;verticalAlign=bottom;resizable=0;points=[];fontColor=#FF3333;" parent="FW9JMo0mOV5YamA3jnH6-45" vertex="1" connectable="0">
          <mxGeometry x="0.4545" relative="1" as="geometry">
            <mxPoint x="-60" y="25" as="offset" />
          </mxGeometry>
        </mxCell>
        <mxCell id="FW9JMo0mOV5YamA3jnH6-48" style="edgeStyle=orthogonalEdgeStyle;rounded=1;orthogonalLoop=1;jettySize=auto;html=1;curved=0;strokeWidth=2;spacing=0;exitX=0;exitY=0.5;exitDx=0;exitDy=0;entryX=1;entryY=0.5;entryDx=0;entryDy=0;" parent="1" source="FW9JMo0mOV5YamA3jnH6-2" target="Fq9bDcgWrl9CTsCdfi1Z-10" edge="1">
          <mxGeometry relative="1" as="geometry">
            <mxPoint x="310" y="170" as="targetPoint" />
            <mxPoint x="630" y="270.0000000000001" as="sourcePoint" />
            <Array as="points">
              <mxPoint x="370" y="130" />
              <mxPoint x="370" y="560" />
            </Array>
          </mxGeometry>
        </mxCell>
        <mxCell id="FW9JMo0mOV5YamA3jnH6-49" value="SQL-запрос" style="edgeLabel;html=1;align=center;verticalAlign=middle;resizable=0;points=[];" parent="FW9JMo0mOV5YamA3jnH6-48" vertex="1" connectable="0">
          <mxGeometry x="0.43" relative="1" as="geometry">
            <mxPoint x="-10" y="-112" as="offset" />
          </mxGeometry>
        </mxCell>
        <mxCell id="FW9JMo0mOV5YamA3jnH6-51" style="edgeStyle=orthogonalEdgeStyle;rounded=1;orthogonalLoop=1;jettySize=auto;html=1;curved=0;strokeWidth=2;exitX=0;exitY=0.5;exitDx=0;exitDy=0;entryX=1;entryY=0.5;entryDx=0;entryDy=0;" parent="1" source="_MPT0Zznv6nXBrTDMWTH-4" target="Fq9bDcgWrl9CTsCdfi1Z-10" edge="1">
          <mxGeometry relative="1" as="geometry">
            <mxPoint x="380" y="290" as="targetPoint" />
            <Array as="points">
              <mxPoint x="420" y="265" />
              <mxPoint x="420" y="560" />
            </Array>
            <mxPoint x="626.25" y="450" as="sourcePoint" />
          </mxGeometry>
        </mxCell>
        <mxCell id="FW9JMo0mOV5YamA3jnH6-52" value="CSV/JSON/XLSL/XML" style="edgeLabel;html=1;align=center;verticalAlign=top;resizable=0;points=[];" parent="FW9JMo0mOV5YamA3jnH6-51" vertex="1" connectable="0">
          <mxGeometry x="0.6" relative="1" as="geometry">
            <mxPoint x="203" y="-322" as="offset" />
          </mxGeometry>
        </mxCell>
        <mxCell id="JxCisemfu5t62T9U17d_-1" value="PostgreSQL" style="html=1;verticalLabelPosition=bottom;align=center;labelBackgroundColor=#ffffff;verticalAlign=top;strokeWidth=2;strokeColor=#000000;shadow=0;dashed=0;shape=mxgraph.ios7.icons.data;fontStyle=1;fontSize=14;" parent="1" vertex="1">
          <mxGeometry x="80" y="500" width="100" height="100" as="geometry" />
        </mxCell>
        <mxCell id="JxCisemfu5t62T9U17d_-2" value="" style="group" parent="1" vertex="1" connectable="0">
          <mxGeometry x="80" y="290" width="100" height="100" as="geometry" />
        </mxCell>
        <mxCell id="FW9JMo0mOV5YamA3jnH6-39" value="PD" style="rounded=1;whiteSpace=wrap;html=1;strokeWidth=2;labelPosition=center;verticalLabelPosition=bottom;align=center;verticalAlign=top;fontSize=14;fontStyle=1" parent="JxCisemfu5t62T9U17d_-2" vertex="1">
          <mxGeometry width="100" height="100" as="geometry" />
        </mxCell>
        <mxCell id="FW9JMo0mOV5YamA3jnH6-40" value="" style="endArrow=none;html=1;rounded=0;exitX=0;exitY=0.5;exitDx=0;exitDy=0;entryX=1;entryY=0.5;entryDx=0;entryDy=0;strokeWidth=2;elbow=vertical;" parent="JxCisemfu5t62T9U17d_-2" source="FW9JMo0mOV5YamA3jnH6-39" target="FW9JMo0mOV5YamA3jnH6-39" edge="1">
          <mxGeometry width="50" height="50" relative="1" as="geometry">
            <mxPoint x="60" y="100" as="sourcePoint" />
            <mxPoint x="160" as="targetPoint" />
          </mxGeometry>
        </mxCell>
        <mxCell id="FW9JMo0mOV5YamA3jnH6-41" value="" style="endArrow=none;html=1;rounded=0;strokeWidth=2;" parent="JxCisemfu5t62T9U17d_-2" edge="1">
          <mxGeometry width="50" height="50" relative="1" as="geometry">
            <mxPoint x="10" y="30" as="sourcePoint" />
            <mxPoint x="50" y="30" as="targetPoint" />
          </mxGeometry>
        </mxCell>
        <mxCell id="FW9JMo0mOV5YamA3jnH6-42" value="" style="endArrow=none;html=1;rounded=0;strokeWidth=2;" parent="JxCisemfu5t62T9U17d_-2" edge="1">
          <mxGeometry width="50" height="50" relative="1" as="geometry">
            <mxPoint x="10" y="70" as="sourcePoint" />
            <mxPoint x="50" y="70" as="targetPoint" />
          </mxGeometry>
        </mxCell>
        <mxCell id="2mmDP2q630RzN0Ejhd47-2" style="edgeStyle=orthogonalEdgeStyle;rounded=1;orthogonalLoop=1;jettySize=auto;html=1;exitX=0;exitY=0.5;exitDx=0;exitDy=0;entryX=1;entryY=0.5;entryDx=0;entryDy=0;curved=0;strokeWidth=2;" edge="1" parent="1" source="EYL9rrYPSX7i42cZdplI-1" target="Fq9bDcgWrl9CTsCdfi1Z-10">
          <mxGeometry relative="1" as="geometry">
            <Array as="points">
              <mxPoint x="470" y="410" />
              <mxPoint x="470" y="560" />
            </Array>
          </mxGeometry>
        </mxCell>
        <mxCell id="m6BTJLdzDXpLzJjxy6aI-1" value="Скрипты PA" style="edgeLabel;html=1;align=center;verticalAlign=middle;resizable=0;points=[];" vertex="1" connectable="0" parent="2mmDP2q630RzN0Ejhd47-2">
          <mxGeometry x="-0.4917" y="-2" relative="1" as="geometry">
            <mxPoint x="59" y="-8" as="offset" />
          </mxGeometry>
        </mxCell>
        <mxCell id="kDDx8qQWLybyQJUbjAHL-1" value="Polymatica Analytics" style="shape=image;html=1;verticalAlign=top;verticalLabelPosition=bottom;labelBackgroundColor=#ffffff;imageAspect=0;aspect=fixed;image=https://cdn1.iconfinder.com/data/icons/seo-and-web-development-6/32/development_globe_sphere-128.png;fontSize=14;fontStyle=1" parent="1" vertex="1">
          <mxGeometry x="640" y="350" width="100" height="100" as="geometry" />
        </mxCell>
        <mxCell id="_MPT0Zznv6nXBrTDMWTH-4" value="" style="shape=image;verticalLabelPosition=bottom;verticalAlign=top;imageAspect=0;image=data:image/svg+xml,PHN2ZyB4bWxucz0iaHR0cDovL3d3dy53My5vcmcvMjAwMC9zdmciIHZpZXdCb3g9IjAgMCA0MDAgNDAwIiBoZWlnaHQ9IjgwMHB4IiB3aWR0aD0iODAwcHgiPiYjeGE7JiN4YTs8ZGVmcz4mI3hhOyYjeGE7PHN0eWxlPi5jbHMtMXtmaWxsOiMxMDEwMTA7fTwvc3R5bGU+JiN4YTsmI3hhOzwvZGVmcz4mI3hhOyYjeGE7PHRpdGxlLz4mI3hhOyYjeGE7PGcgaWQ9Inh4eC1maWxlIj4mI3hhOyYjeGE7PHBhdGggZD0iTTMyNSwxMDVIMjUwYTUsNSwwLDAsMS01LTVWMjVhNSw1LDAsMCwxLDEwLDBWOTVoNzBhNSw1LDAsMCwxLDAsMTBaIiBjbGFzcz0iY2xzLTEiLz4mI3hhOyYjeGE7PHBhdGggZD0iTTMwMCwzODBIMTAwYTMwLDMwLDAsMCwxLTMwLTMwVjUwYTMwLDMwLDAsMCwxLDMwLTMwSDI1MGE1LDUsMCwwLDEsMy41NCwxLjQ2bDc1LDc1QTUsNSwwLDAsMSwzMzAsMTAwVjM1MEEzMCwzMCwwLDAsMSwzMDAsMzgwWk0xMDAsMzBBMjAsMjAsMCwwLDAsODAsNTBWMzUwYTIwLDIwLDAsMCwwLDIwLDIwSDMwMGEyMCwyMCwwLDAsMCwyMC0yMFYxMDIuMDdMMjQ3LjkzLDMwWiIgY2xhc3M9ImNscy0xIi8+JiN4YTsmI3hhOzxwYXRoIGQ9Ik0yNzUsMTgwSDEyNWE1LDUsMCwwLDEsMC0xMEgyNzVhNSw1LDAsMCwxLDAsMTBaIiBjbGFzcz0iY2xzLTEiLz4mI3hhOyYjeGE7PHBhdGggZD0iTTI3NSwyMzBIMTI1YTUsNSwwLDAsMSwwLTEwSDI3NWE1LDUsMCwwLDEsMCwxMFoiIGNsYXNzPSJjbHMtMSIvPiYjeGE7JiN4YTs8cGF0aCBkPSJNMjc1LDI4MEgxMjVhNSw1LDAsMCwxLDAtMTBIMjc1YTUsNSwwLDAsMSwwLDEwWiIgY2xhc3M9ImNscy0xIi8+JiN4YTsmI3hhOzxwYXRoIGQ9Ik0yMDAsMzMwSDEyNWE1LDUsMCwwLDEsMC0xMGg3NWE1LDUsMCwwLDEsMCwxMFoiIGNsYXNzPSJjbHMtMSIvPiYjeGE7JiN4YTs8L2c+JiN4YTsmI3hhOzwvc3ZnPg==" vertex="1" parent="1">
          <mxGeometry x="630" y="210" width="120" height="110" as="geometry" />
        </mxCell>
        <mxCell id="B12E1nvrvlhY06u_1_WR-5" value="Р7-Офис" style="group;movable=1;resizable=1;rotatable=1;deletable=1;editable=1;locked=0;connectable=1;aspect=fixed;verticalAlign=top;fontSize=14;fontStyle=1;spacingTop=0;labelPosition=center;verticalLabelPosition=bottom;align=center;" vertex="1" connectable="0" parent="1">
          <mxGeometry x="625" y="500" width="130.01" height="100" as="geometry" />
        </mxCell>
        <mxCell id="B12E1nvrvlhY06u_1_WR-2" value="" style="shape=image;html=1;verticalAlign=top;verticalLabelPosition=bottom;labelBackgroundColor=#ffffff;imageAspect=0;aspect=fixed;image=https://cdn0.iconfinder.com/data/icons/phosphor-regular-vol-4/256/square-128.png;rotation=45;movable=1;resizable=1;rotatable=1;deletable=1;editable=1;locked=0;connectable=1;" vertex="1" parent="B12E1nvrvlhY06u_1_WR-5">
          <mxGeometry x="42.55948523577348" y="0.0011381109991297615" width="48.151001540832056" height="48.151001540832056" as="geometry" />
        </mxCell>
        <mxCell id="B12E1nvrvlhY06u_1_WR-3" value="" style="shape=image;html=1;verticalAlign=top;verticalLabelPosition=bottom;labelBackgroundColor=#ffffff;imageAspect=0;aspect=fixed;image=https://cdn0.iconfinder.com/data/icons/phosphor-regular-vol-4/256/square-128.png;rotation=45;movable=1;resizable=1;rotatable=1;deletable=1;editable=1;locked=0;connectable=1;" vertex="1" parent="B12E1nvrvlhY06u_1_WR-5">
          <mxGeometry x="73.79284037142091" y="35.85300614156134" width="48.151001540832056" height="48.151001540832056" as="geometry" />
        </mxCell>
        <mxCell id="B12E1nvrvlhY06u_1_WR-4" value="" style="shape=image;html=1;verticalAlign=top;verticalLabelPosition=bottom;labelBackgroundColor=#ffffff;imageAspect=0;aspect=fixed;image=https://cdn0.iconfinder.com/data/icons/phosphor-regular-vol-4/256/square-128.png;rotation=45;movable=1;resizable=1;rotatable=1;deletable=1;editable=1;locked=0;connectable=1;" vertex="1" parent="B12E1nvrvlhY06u_1_WR-5">
          <mxGeometry x="8.06219728978156" y="35.812464505983876" width="48.151001540832056" height="48.151001540832056" as="geometry" />
        </mxCell>
        <mxCell id="m6BTJLdzDXpLzJjxy6aI-2" style="edgeStyle=orthogonalEdgeStyle;rounded=1;orthogonalLoop=1;jettySize=auto;html=1;entryX=1;entryY=0.5;entryDx=0;entryDy=0;curved=0;strokeWidth=2;" edge="1" parent="1" source="B12E1nvrvlhY06u_1_WR-4" target="Fq9bDcgWrl9CTsCdfi1Z-10">
          <mxGeometry relative="1" as="geometry" />
        </mxCell>
        <mxCell id="m6BTJLdzDXpLzJjxy6aI-3" value="CSV/JSON/XLSL/XML" style="edgeLabel;html=1;align=center;verticalAlign=middle;resizable=0;points=[];" vertex="1" connectable="0" parent="m6BTJLdzDXpLzJjxy6aI-2">
          <mxGeometry x="-0.7035" y="1" relative="1" as="geometry">
            <mxPoint x="-18" y="-13" as="offset" />
          </mxGeometry>
        </mxCell>
        <mxCell id="EYL9rrYPSX7i42cZdplI-1" value="" style="rounded=0;whiteSpace=wrap;html=1;strokeColor=none;opacity=0;" vertex="1" parent="1">
          <mxGeometry x="630" y="340" width="120" height="140" as="geometry" />
        </mxCell>
        <mxCell id="h71knLdtUTUv9CMWA6zR-3" value="" style="html=1;verticalLabelPosition=bottom;align=center;labelBackgroundColor=#ffffff;verticalAlign=top;strokeWidth=2;strokeColor=#000000;shadow=0;dashed=0;shape=mxgraph.ios7.icons.data;" vertex="1" parent="1">
          <mxGeometry x="915" y="1045" width="100" height="100" as="geometry" />
        </mxCell>
        <mxCell id="h71knLdtUTUv9CMWA6zR-4" value="" style="rounded=0;whiteSpace=wrap;html=1;fillColor=none;strokeColor=none;" vertex="1" parent="1">
          <mxGeometry x="40" y="1020" width="120" height="140" as="geometry" />
        </mxCell>
        <mxCell id="h71knLdtUTUv9CMWA6zR-5" value="" style="rounded=0;whiteSpace=wrap;html=1;strokeColor=none;opacity=0;" vertex="1" parent="1">
          <mxGeometry x="310" y="970" width="190" height="500" as="geometry" />
        </mxCell>
        <mxCell id="h71knLdtUTUv9CMWA6zR-6" value="Polymatica Dashboards" style="rounded=1;whiteSpace=wrap;html=1;strokeWidth=2;strokeColor=#0000FF;verticalAlign=top;fontSize=18;fontStyle=1" vertex="1" parent="1">
          <mxGeometry x="320" y="960" width="170" height="485" as="geometry" />
        </mxCell>
        <mxCell id="h71knLdtUTUv9CMWA6zR-7" style="edgeStyle=orthogonalEdgeStyle;rounded=0;orthogonalLoop=1;jettySize=auto;html=1;entryX=0.5;entryY=1;entryDx=0;entryDy=0;strokeWidth=2;startArrow=classic;startFill=0;" edge="1" parent="1" source="h71knLdtUTUv9CMWA6zR-8" target="h71knLdtUTUv9CMWA6zR-9">
          <mxGeometry relative="1" as="geometry" />
        </mxCell>
        <mxCell id="h71knLdtUTUv9CMWA6zR-8" value="" style="rounded=0;whiteSpace=wrap;html=1;strokeColor=none;fillColor=none;" vertex="1" parent="1">
          <mxGeometry x="340" y="1300" width="120" height="140" as="geometry" />
        </mxCell>
        <mxCell id="h71knLdtUTUv9CMWA6zR-9" value="" style="rounded=0;whiteSpace=wrap;html=1;strokeColor=none;fillColor=none;" vertex="1" parent="1">
          <mxGeometry x="340" y="1020" width="120" height="140" as="geometry" />
        </mxCell>
        <mxCell id="h71knLdtUTUv9CMWA6zR-10" value="Пользователь" style="sketch=0;outlineConnect=0;fontColor=#232F3E;gradientColor=none;strokeColor=#232F3E;fillColor=#ffffff;dashed=0;verticalLabelPosition=bottom;verticalAlign=top;align=center;html=1;fontSize=14;fontStyle=1;aspect=fixed;shape=mxgraph.aws4.resourceIcon;resIcon=mxgraph.aws4.user;" vertex="1" parent="1">
          <mxGeometry x="55" y="1030" width="85" height="85" as="geometry" />
        </mxCell>
        <mxCell id="h71knLdtUTUv9CMWA6zR-11" value="" style="endArrow=classic;startArrow=classic;html=1;rounded=0;strokeWidth=2;entryX=1;entryY=0.5;entryDx=0;entryDy=0;exitX=0.008;exitY=0.24;exitDx=0;exitDy=0;exitPerimeter=0;" edge="1" parent="1" source="h71knLdtUTUv9CMWA6zR-5" target="h71knLdtUTUv9CMWA6zR-4">
          <mxGeometry width="50" height="50" relative="1" as="geometry">
            <mxPoint x="310" y="1090" as="sourcePoint" />
            <mxPoint x="400" y="960" as="targetPoint" />
          </mxGeometry>
        </mxCell>
        <mxCell id="h71knLdtUTUv9CMWA6zR-12" style="edgeStyle=orthogonalEdgeStyle;rounded=1;orthogonalLoop=1;jettySize=auto;html=1;curved=0;strokeWidth=2;exitX=0.005;exitY=0.15;exitDx=0;exitDy=0;exitPerimeter=0;entryX=1.018;entryY=0.196;entryDx=0;entryDy=0;entryPerimeter=0;startArrow=classic;startFill=1;" edge="1" parent="1" source="p4SFhjvlGKmMavnUfZih-1" target="h71knLdtUTUv9CMWA6zR-5">
          <mxGeometry relative="1" as="geometry">
            <mxPoint x="820" y="1070" as="sourcePoint" />
            <mxPoint x="510" y="1090" as="targetPoint" />
          </mxGeometry>
        </mxCell>
        <mxCell id="h71knLdtUTUv9CMWA6zR-13" value="&lt;font style=&quot;color: rgb(0, 0, 0);&quot;&gt;Live-connect*&lt;/font&gt;" style="edgeLabel;html=1;align=center;verticalAlign=bottom;resizable=0;points=[];fontColor=#FF3333;" vertex="1" connectable="0" parent="h71knLdtUTUv9CMWA6zR-12">
          <mxGeometry x="0.4545" relative="1" as="geometry">
            <mxPoint x="-41" y="-2" as="offset" />
          </mxGeometry>
        </mxCell>
        <mxCell id="h71knLdtUTUv9CMWA6zR-14" style="edgeStyle=orthogonalEdgeStyle;rounded=1;orthogonalLoop=1;jettySize=auto;html=1;curved=0;strokeWidth=2;spacing=0;exitX=0.003;exitY=0.184;exitDx=0;exitDy=0;exitPerimeter=0;entryX=0.989;entryY=0.8;entryDx=0;entryDy=0;entryPerimeter=0;" edge="1" parent="1" source="p4SFhjvlGKmMavnUfZih-1" target="h71knLdtUTUv9CMWA6zR-5">
          <mxGeometry relative="1" as="geometry">
            <mxPoint x="510" y="1370" as="targetPoint" />
            <mxPoint x="840" y="1100" as="sourcePoint" />
            <Array as="points">
              <mxPoint x="590" y="1091" />
              <mxPoint x="590" y="1370" />
            </Array>
          </mxGeometry>
        </mxCell>
        <mxCell id="h71knLdtUTUv9CMWA6zR-15" value="&lt;span style=&quot;font-size: 14px;&quot;&gt;Native Client*&lt;/span&gt;" style="edgeLabel;html=1;align=center;verticalAlign=middle;resizable=0;points=[];" vertex="1" connectable="0" parent="h71knLdtUTUv9CMWA6zR-14">
          <mxGeometry x="0.43" relative="1" as="geometry">
            <mxPoint x="190" y="-176" as="offset" />
          </mxGeometry>
        </mxCell>
        <mxCell id="h71knLdtUTUv9CMWA6zR-16" style="edgeStyle=orthogonalEdgeStyle;rounded=1;orthogonalLoop=1;jettySize=auto;html=1;curved=0;strokeWidth=2;exitX=-0.005;exitY=0.384;exitDx=0;exitDy=0;exitPerimeter=0;entryX=0.988;entryY=0.8;entryDx=0;entryDy=0;entryPerimeter=0;" edge="1" parent="1" source="p4SFhjvlGKmMavnUfZih-1" target="h71knLdtUTUv9CMWA6zR-5">
          <mxGeometry relative="1" as="geometry">
            <mxPoint x="510" y="1370" as="targetPoint" />
            <Array as="points">
              <mxPoint x="685" y="1221" />
              <mxPoint x="685" y="1370" />
            </Array>
            <mxPoint x="860" y="1222" as="sourcePoint" />
          </mxGeometry>
        </mxCell>
        <mxCell id="h71knLdtUTUv9CMWA6zR-17" value="CSV/JSON/XLSL/XML" style="edgeLabel;html=1;align=center;verticalAlign=top;resizable=0;points=[];" vertex="1" connectable="0" parent="h71knLdtUTUv9CMWA6zR-16">
          <mxGeometry x="0.6" relative="1" as="geometry">
            <mxPoint x="203" y="-170" as="offset" />
          </mxGeometry>
        </mxCell>
        <mxCell id="h71knLdtUTUv9CMWA6zR-18" value="Узел СУБД" style="html=1;verticalLabelPosition=bottom;align=center;labelBackgroundColor=#ffffff;verticalAlign=top;strokeWidth=2;strokeColor=#000000;shadow=0;dashed=0;shape=mxgraph.ios7.icons.data;fontStyle=1;fontSize=14;" vertex="1" parent="1">
          <mxGeometry x="350" y="1310" width="100" height="100" as="geometry" />
        </mxCell>
        <mxCell id="h71knLdtUTUv9CMWA6zR-19" value="" style="group" vertex="1" connectable="0" parent="1">
          <mxGeometry x="350" y="1030" width="100" height="100" as="geometry" />
        </mxCell>
        <mxCell id="h71knLdtUTUv9CMWA6zR-20" value="Узел PD" style="rounded=1;whiteSpace=wrap;html=1;strokeWidth=2;labelPosition=center;verticalLabelPosition=bottom;align=center;verticalAlign=top;fontSize=14;fontStyle=1" vertex="1" parent="h71knLdtUTUv9CMWA6zR-19">
          <mxGeometry width="100" height="100" as="geometry" />
        </mxCell>
        <mxCell id="h71knLdtUTUv9CMWA6zR-21" value="" style="endArrow=none;html=1;rounded=0;exitX=0;exitY=0.5;exitDx=0;exitDy=0;entryX=1;entryY=0.5;entryDx=0;entryDy=0;strokeWidth=2;elbow=vertical;" edge="1" parent="h71knLdtUTUv9CMWA6zR-19" source="h71knLdtUTUv9CMWA6zR-20" target="h71knLdtUTUv9CMWA6zR-20">
          <mxGeometry width="50" height="50" relative="1" as="geometry">
            <mxPoint x="60" y="100" as="sourcePoint" />
            <mxPoint x="160" as="targetPoint" />
          </mxGeometry>
        </mxCell>
        <mxCell id="h71knLdtUTUv9CMWA6zR-22" value="" style="endArrow=none;html=1;rounded=0;strokeWidth=2;" edge="1" parent="h71knLdtUTUv9CMWA6zR-19">
          <mxGeometry width="50" height="50" relative="1" as="geometry">
            <mxPoint x="10" y="30" as="sourcePoint" />
            <mxPoint x="50" y="30" as="targetPoint" />
          </mxGeometry>
        </mxCell>
        <mxCell id="h71knLdtUTUv9CMWA6zR-23" value="" style="endArrow=none;html=1;rounded=0;strokeWidth=2;" edge="1" parent="h71knLdtUTUv9CMWA6zR-19">
          <mxGeometry width="50" height="50" relative="1" as="geometry">
            <mxPoint x="10" y="70" as="sourcePoint" />
            <mxPoint x="50" y="70" as="targetPoint" />
          </mxGeometry>
        </mxCell>
        <mxCell id="h71knLdtUTUv9CMWA6zR-24" style="edgeStyle=orthogonalEdgeStyle;rounded=1;orthogonalLoop=1;jettySize=auto;html=1;curved=0;strokeWidth=2;exitX=0.012;exitY=0.611;exitDx=0;exitDy=0;exitPerimeter=0;entryX=0.986;entryY=0.8;entryDx=0;entryDy=0;entryPerimeter=0;" edge="1" parent="1" source="p4SFhjvlGKmMavnUfZih-1" target="h71knLdtUTUv9CMWA6zR-5">
          <mxGeometry relative="1" as="geometry">
            <mxPoint x="870" y="1370" as="sourcePoint" />
            <mxPoint x="500" y="1370" as="targetPoint" />
          </mxGeometry>
        </mxCell>
        <mxCell id="h71knLdtUTUv9CMWA6zR-25" value="Скрипты PA" style="edgeLabel;html=1;align=center;verticalAlign=middle;resizable=0;points=[];" vertex="1" connectable="0" parent="h71knLdtUTUv9CMWA6zR-24">
          <mxGeometry x="-0.4917" y="-2" relative="1" as="geometry">
            <mxPoint x="4" y="-9" as="offset" />
          </mxGeometry>
        </mxCell>
        <mxCell id="h71knLdtUTUv9CMWA6zR-26" value="Polymatica Analytics" style="shape=image;html=1;verticalAlign=top;verticalLabelPosition=bottom;labelBackgroundColor=#ffffff;imageAspect=0;aspect=fixed;image=https://cdn1.iconfinder.com/data/icons/seo-and-web-development-6/32/development_globe_sphere-128.png;fontSize=14;fontStyle=1" vertex="1" parent="1">
          <mxGeometry x="915.01" y="1310" width="100" height="100" as="geometry" />
        </mxCell>
        <mxCell id="h71knLdtUTUv9CMWA6zR-27" value="" style="shape=image;verticalLabelPosition=bottom;verticalAlign=top;imageAspect=0;image=data:image/svg+xml,PHN2ZyB4bWxucz0iaHR0cDovL3d3dy53My5vcmcvMjAwMC9zdmciIHZpZXdCb3g9IjAgMCA0MDAgNDAwIiBoZWlnaHQ9IjgwMHB4IiB3aWR0aD0iODAwcHgiPiYjeGE7JiN4YTs8ZGVmcz4mI3hhOyYjeGE7PHN0eWxlPi5jbHMtMXtmaWxsOiMxMDEwMTA7fTwvc3R5bGU+JiN4YTsmI3hhOzwvZGVmcz4mI3hhOyYjeGE7PHRpdGxlLz4mI3hhOyYjeGE7PGcgaWQ9Inh4eC1maWxlIj4mI3hhOyYjeGE7PHBhdGggZD0iTTMyNSwxMDVIMjUwYTUsNSwwLDAsMS01LTVWMjVhNSw1LDAsMCwxLDEwLDBWOTVoNzBhNSw1LDAsMCwxLDAsMTBaIiBjbGFzcz0iY2xzLTEiLz4mI3hhOyYjeGE7PHBhdGggZD0iTTMwMCwzODBIMTAwYTMwLDMwLDAsMCwxLTMwLTMwVjUwYTMwLDMwLDAsMCwxLDMwLTMwSDI1MGE1LDUsMCwwLDEsMy41NCwxLjQ2bDc1LDc1QTUsNSwwLDAsMSwzMzAsMTAwVjM1MEEzMCwzMCwwLDAsMSwzMDAsMzgwWk0xMDAsMzBBMjAsMjAsMCwwLDAsODAsNTBWMzUwYTIwLDIwLDAsMCwwLDIwLDIwSDMwMGEyMCwyMCwwLDAsMCwyMC0yMFYxMDIuMDdMMjQ3LjkzLDMwWiIgY2xhc3M9ImNscy0xIi8+JiN4YTsmI3hhOzxwYXRoIGQ9Ik0yNzUsMTgwSDEyNWE1LDUsMCwwLDEsMC0xMEgyNzVhNSw1LDAsMCwxLDAsMTBaIiBjbGFzcz0iY2xzLTEiLz4mI3hhOyYjeGE7PHBhdGggZD0iTTI3NSwyMzBIMTI1YTUsNSwwLDAsMSwwLTEwSDI3NWE1LDUsMCwwLDEsMCwxMFoiIGNsYXNzPSJjbHMtMSIvPiYjeGE7JiN4YTs8cGF0aCBkPSJNMjc1LDI4MEgxMjVhNSw1LDAsMCwxLDAtMTBIMjc1YTUsNSwwLDAsMSwwLDEwWiIgY2xhc3M9ImNscy0xIi8+JiN4YTsmI3hhOzxwYXRoIGQ9Ik0yMDAsMzMwSDEyNWE1LDUsMCwwLDEsMC0xMGg3NWE1LDUsMCwwLDEsMCwxMFoiIGNsYXNzPSJjbHMtMSIvPiYjeGE7JiN4YTs8L2c+JiN4YTsmI3hhOzwvc3ZnPg==" vertex="1" parent="1">
          <mxGeometry x="905" y="1175" width="120" height="110" as="geometry" />
        </mxCell>
        <mxCell id="h71knLdtUTUv9CMWA6zR-28" value="Р7-Офис" style="group;movable=1;resizable=1;rotatable=1;deletable=1;editable=1;locked=0;connectable=1;verticalAlign=top;fontSize=14;fontStyle=1;spacingTop=0;labelPosition=center;verticalLabelPosition=bottom;align=center;aspect=fixed;" vertex="1" connectable="0" parent="1">
          <mxGeometry x="900" y="1445" width="130" height="100" as="geometry" />
        </mxCell>
        <mxCell id="h71knLdtUTUv9CMWA6zR-29" value="" style="shape=image;html=1;verticalAlign=top;verticalLabelPosition=bottom;labelBackgroundColor=#ffffff;imageAspect=0;aspect=fixed;image=https://cdn0.iconfinder.com/data/icons/phosphor-regular-vol-4/256/square-128.png;rotation=45;movable=1;resizable=1;rotatable=1;deletable=1;editable=1;locked=0;connectable=1;" vertex="1" parent="h71knLdtUTUv9CMWA6zR-28">
          <mxGeometry x="42.556211681028785" y="0.0011381109991297617" width="47.775423728813564" height="47.775423728813564" as="geometry" />
        </mxCell>
        <mxCell id="h71knLdtUTUv9CMWA6zR-30" value="" style="shape=image;html=1;verticalAlign=top;verticalLabelPosition=bottom;labelBackgroundColor=#ffffff;imageAspect=0;aspect=fixed;image=https://cdn0.iconfinder.com/data/icons/phosphor-regular-vol-4/256/square-128.png;rotation=45;movable=1;resizable=1;rotatable=1;deletable=1;editable=1;locked=0;connectable=1;" vertex="1" parent="h71knLdtUTUv9CMWA6zR-28">
          <mxGeometry x="73.78716443569509" y="35.853006141561345" width="47.775423728813564" height="47.775423728813564" as="geometry" />
        </mxCell>
        <mxCell id="h71knLdtUTUv9CMWA6zR-31" value="" style="shape=image;html=1;verticalAlign=top;verticalLabelPosition=bottom;labelBackgroundColor=#ffffff;imageAspect=0;aspect=fixed;image=https://cdn0.iconfinder.com/data/icons/phosphor-regular-vol-4/256/square-128.png;rotation=45;movable=1;resizable=1;rotatable=1;deletable=1;editable=1;locked=0;connectable=1;" vertex="1" parent="h71knLdtUTUv9CMWA6zR-28">
          <mxGeometry x="8.061577168460909" y="35.812464505983876" width="47.775423728813564" height="47.775423728813564" as="geometry" />
        </mxCell>
        <mxCell id="h71knLdtUTUv9CMWA6zR-32" style="edgeStyle=orthogonalEdgeStyle;rounded=1;orthogonalLoop=1;jettySize=auto;html=1;curved=0;strokeWidth=2;exitX=0.001;exitY=0.835;exitDx=0;exitDy=0;exitPerimeter=0;entryX=0.988;entryY=0.8;entryDx=0;entryDy=0;entryPerimeter=0;" edge="1" parent="1" source="p4SFhjvlGKmMavnUfZih-1" target="h71knLdtUTUv9CMWA6zR-5">
          <mxGeometry relative="1" as="geometry">
            <mxPoint x="850" y="1517" as="sourcePoint" />
            <mxPoint x="520" y="1370" as="targetPoint" />
            <Array as="points">
              <mxPoint x="685" y="1517" />
              <mxPoint x="685" y="1370" />
            </Array>
          </mxGeometry>
        </mxCell>
        <mxCell id="h71knLdtUTUv9CMWA6zR-33" value="CSV/JSON/XLSL/XML" style="edgeLabel;html=1;align=center;verticalAlign=middle;resizable=0;points=[];" vertex="1" connectable="0" parent="h71knLdtUTUv9CMWA6zR-32">
          <mxGeometry x="-0.7035" y="1" relative="1" as="geometry">
            <mxPoint x="15" y="-13" as="offset" />
          </mxGeometry>
        </mxCell>
        <mxCell id="aNzd6NPmwxGE88aOZ_6Z-1" value="&lt;b&gt;*Native Client:&lt;/b&gt;&amp;nbsp;&lt;span style=&quot;color: light-dark(rgb(0, 0, 0), rgb(255, 255, 255)); background-color: transparent;&quot;&gt;MS SQL,&amp;nbsp;&lt;/span&gt;&lt;span style=&quot;color: light-dark(rgb(0, 0, 0), rgb(255, 255, 255)); background-color: transparent;&quot;&gt;MySQL,&amp;nbsp;&lt;/span&gt;&lt;span style=&quot;color: light-dark(rgb(0, 0, 0), rgb(255, 255, 255)); background-color: transparent;&quot;&gt;PostgreSQL, Vertica, ClickHouse, Oracle, Proxima DB, Arenadata DB, Arenadata Postgres, Arenadata QuickMarts, YDB, Greenplum&lt;/span&gt;" style="text;html=1;align=left;verticalAlign=top;whiteSpace=wrap;rounded=0;fontSize=14;" vertex="1" parent="1">
          <mxGeometry x="50" y="1589" width="1050" height="36" as="geometry" />
        </mxCell>
      </root>
    </mxGraphModel>
  </diagram>
</mxfile>
